G75*
%MOIN*%
%OFA0B0*%
%FSLAX25Y25*%
%IPPOS*%
%LPD*%
%AMOC8*
5,1,8,0,0,1.08239X$1,22.5*
%
%ADD10C,0.00000*%
%ADD11C,0.10000*%
%ADD12C,0.00098*%
D10*
X0039900Y0020000D02*
X0039902Y0020187D01*
X0039909Y0020373D01*
X0039921Y0020559D01*
X0039937Y0020745D01*
X0039957Y0020930D01*
X0039982Y0021115D01*
X0040012Y0021299D01*
X0040046Y0021483D01*
X0040085Y0021665D01*
X0040128Y0021847D01*
X0040175Y0022027D01*
X0040227Y0022206D01*
X0040284Y0022384D01*
X0040344Y0022560D01*
X0040409Y0022735D01*
X0040479Y0022908D01*
X0040552Y0023080D01*
X0040630Y0023249D01*
X0040711Y0023417D01*
X0040797Y0023583D01*
X0040887Y0023746D01*
X0040981Y0023907D01*
X0041079Y0024066D01*
X0041181Y0024222D01*
X0041286Y0024376D01*
X0041396Y0024527D01*
X0041509Y0024676D01*
X0041625Y0024821D01*
X0041745Y0024964D01*
X0041869Y0025104D01*
X0041996Y0025241D01*
X0042126Y0025374D01*
X0042259Y0025504D01*
X0042396Y0025631D01*
X0042536Y0025755D01*
X0042679Y0025875D01*
X0042824Y0025991D01*
X0042973Y0026104D01*
X0043124Y0026214D01*
X0043278Y0026319D01*
X0043434Y0026421D01*
X0043593Y0026519D01*
X0043754Y0026613D01*
X0043917Y0026703D01*
X0044083Y0026789D01*
X0044251Y0026870D01*
X0044420Y0026948D01*
X0044592Y0027021D01*
X0044765Y0027091D01*
X0044940Y0027156D01*
X0045116Y0027216D01*
X0045294Y0027273D01*
X0045473Y0027325D01*
X0045653Y0027372D01*
X0045835Y0027415D01*
X0046017Y0027454D01*
X0046201Y0027488D01*
X0046385Y0027518D01*
X0046570Y0027543D01*
X0046755Y0027563D01*
X0046941Y0027579D01*
X0047127Y0027591D01*
X0047313Y0027598D01*
X0047500Y0027600D01*
X0047687Y0027598D01*
X0047873Y0027591D01*
X0048059Y0027579D01*
X0048245Y0027563D01*
X0048430Y0027543D01*
X0048615Y0027518D01*
X0048799Y0027488D01*
X0048983Y0027454D01*
X0049165Y0027415D01*
X0049347Y0027372D01*
X0049527Y0027325D01*
X0049706Y0027273D01*
X0049884Y0027216D01*
X0050060Y0027156D01*
X0050235Y0027091D01*
X0050408Y0027021D01*
X0050580Y0026948D01*
X0050749Y0026870D01*
X0050917Y0026789D01*
X0051083Y0026703D01*
X0051246Y0026613D01*
X0051407Y0026519D01*
X0051566Y0026421D01*
X0051722Y0026319D01*
X0051876Y0026214D01*
X0052027Y0026104D01*
X0052176Y0025991D01*
X0052321Y0025875D01*
X0052464Y0025755D01*
X0052604Y0025631D01*
X0052741Y0025504D01*
X0052874Y0025374D01*
X0053004Y0025241D01*
X0053131Y0025104D01*
X0053255Y0024964D01*
X0053375Y0024821D01*
X0053491Y0024676D01*
X0053604Y0024527D01*
X0053714Y0024376D01*
X0053819Y0024222D01*
X0053921Y0024066D01*
X0054019Y0023907D01*
X0054113Y0023746D01*
X0054203Y0023583D01*
X0054289Y0023417D01*
X0054370Y0023249D01*
X0054448Y0023080D01*
X0054521Y0022908D01*
X0054591Y0022735D01*
X0054656Y0022560D01*
X0054716Y0022384D01*
X0054773Y0022206D01*
X0054825Y0022027D01*
X0054872Y0021847D01*
X0054915Y0021665D01*
X0054954Y0021483D01*
X0054988Y0021299D01*
X0055018Y0021115D01*
X0055043Y0020930D01*
X0055063Y0020745D01*
X0055079Y0020559D01*
X0055091Y0020373D01*
X0055098Y0020187D01*
X0055100Y0020000D01*
X0055098Y0019813D01*
X0055091Y0019627D01*
X0055079Y0019441D01*
X0055063Y0019255D01*
X0055043Y0019070D01*
X0055018Y0018885D01*
X0054988Y0018701D01*
X0054954Y0018517D01*
X0054915Y0018335D01*
X0054872Y0018153D01*
X0054825Y0017973D01*
X0054773Y0017794D01*
X0054716Y0017616D01*
X0054656Y0017440D01*
X0054591Y0017265D01*
X0054521Y0017092D01*
X0054448Y0016920D01*
X0054370Y0016751D01*
X0054289Y0016583D01*
X0054203Y0016417D01*
X0054113Y0016254D01*
X0054019Y0016093D01*
X0053921Y0015934D01*
X0053819Y0015778D01*
X0053714Y0015624D01*
X0053604Y0015473D01*
X0053491Y0015324D01*
X0053375Y0015179D01*
X0053255Y0015036D01*
X0053131Y0014896D01*
X0053004Y0014759D01*
X0052874Y0014626D01*
X0052741Y0014496D01*
X0052604Y0014369D01*
X0052464Y0014245D01*
X0052321Y0014125D01*
X0052176Y0014009D01*
X0052027Y0013896D01*
X0051876Y0013786D01*
X0051722Y0013681D01*
X0051566Y0013579D01*
X0051407Y0013481D01*
X0051246Y0013387D01*
X0051083Y0013297D01*
X0050917Y0013211D01*
X0050749Y0013130D01*
X0050580Y0013052D01*
X0050408Y0012979D01*
X0050235Y0012909D01*
X0050060Y0012844D01*
X0049884Y0012784D01*
X0049706Y0012727D01*
X0049527Y0012675D01*
X0049347Y0012628D01*
X0049165Y0012585D01*
X0048983Y0012546D01*
X0048799Y0012512D01*
X0048615Y0012482D01*
X0048430Y0012457D01*
X0048245Y0012437D01*
X0048059Y0012421D01*
X0047873Y0012409D01*
X0047687Y0012402D01*
X0047500Y0012400D01*
X0047313Y0012402D01*
X0047127Y0012409D01*
X0046941Y0012421D01*
X0046755Y0012437D01*
X0046570Y0012457D01*
X0046385Y0012482D01*
X0046201Y0012512D01*
X0046017Y0012546D01*
X0045835Y0012585D01*
X0045653Y0012628D01*
X0045473Y0012675D01*
X0045294Y0012727D01*
X0045116Y0012784D01*
X0044940Y0012844D01*
X0044765Y0012909D01*
X0044592Y0012979D01*
X0044420Y0013052D01*
X0044251Y0013130D01*
X0044083Y0013211D01*
X0043917Y0013297D01*
X0043754Y0013387D01*
X0043593Y0013481D01*
X0043434Y0013579D01*
X0043278Y0013681D01*
X0043124Y0013786D01*
X0042973Y0013896D01*
X0042824Y0014009D01*
X0042679Y0014125D01*
X0042536Y0014245D01*
X0042396Y0014369D01*
X0042259Y0014496D01*
X0042126Y0014626D01*
X0041996Y0014759D01*
X0041869Y0014896D01*
X0041745Y0015036D01*
X0041625Y0015179D01*
X0041509Y0015324D01*
X0041396Y0015473D01*
X0041286Y0015624D01*
X0041181Y0015778D01*
X0041079Y0015934D01*
X0040981Y0016093D01*
X0040887Y0016254D01*
X0040797Y0016417D01*
X0040711Y0016583D01*
X0040630Y0016751D01*
X0040552Y0016920D01*
X0040479Y0017092D01*
X0040409Y0017265D01*
X0040344Y0017440D01*
X0040284Y0017616D01*
X0040227Y0017794D01*
X0040175Y0017973D01*
X0040128Y0018153D01*
X0040085Y0018335D01*
X0040046Y0018517D01*
X0040012Y0018701D01*
X0039982Y0018885D01*
X0039957Y0019070D01*
X0039937Y0019255D01*
X0039921Y0019441D01*
X0039909Y0019627D01*
X0039902Y0019813D01*
X0039900Y0020000D01*
X0029802Y0157480D02*
X0029804Y0157667D01*
X0029811Y0157853D01*
X0029823Y0158039D01*
X0029839Y0158225D01*
X0029859Y0158410D01*
X0029884Y0158595D01*
X0029914Y0158779D01*
X0029948Y0158963D01*
X0029987Y0159145D01*
X0030030Y0159327D01*
X0030077Y0159507D01*
X0030129Y0159686D01*
X0030186Y0159864D01*
X0030246Y0160040D01*
X0030311Y0160215D01*
X0030381Y0160388D01*
X0030454Y0160560D01*
X0030532Y0160729D01*
X0030613Y0160897D01*
X0030699Y0161063D01*
X0030789Y0161226D01*
X0030883Y0161387D01*
X0030981Y0161546D01*
X0031083Y0161702D01*
X0031188Y0161856D01*
X0031298Y0162007D01*
X0031411Y0162156D01*
X0031527Y0162301D01*
X0031647Y0162444D01*
X0031771Y0162584D01*
X0031898Y0162721D01*
X0032028Y0162854D01*
X0032161Y0162984D01*
X0032298Y0163111D01*
X0032438Y0163235D01*
X0032581Y0163355D01*
X0032726Y0163471D01*
X0032875Y0163584D01*
X0033026Y0163694D01*
X0033180Y0163799D01*
X0033336Y0163901D01*
X0033495Y0163999D01*
X0033656Y0164093D01*
X0033819Y0164183D01*
X0033985Y0164269D01*
X0034153Y0164350D01*
X0034322Y0164428D01*
X0034494Y0164501D01*
X0034667Y0164571D01*
X0034842Y0164636D01*
X0035018Y0164696D01*
X0035196Y0164753D01*
X0035375Y0164805D01*
X0035555Y0164852D01*
X0035737Y0164895D01*
X0035919Y0164934D01*
X0036103Y0164968D01*
X0036287Y0164998D01*
X0036472Y0165023D01*
X0036657Y0165043D01*
X0036843Y0165059D01*
X0037029Y0165071D01*
X0037215Y0165078D01*
X0037402Y0165080D01*
X0037589Y0165078D01*
X0037775Y0165071D01*
X0037961Y0165059D01*
X0038147Y0165043D01*
X0038332Y0165023D01*
X0038517Y0164998D01*
X0038701Y0164968D01*
X0038885Y0164934D01*
X0039067Y0164895D01*
X0039249Y0164852D01*
X0039429Y0164805D01*
X0039608Y0164753D01*
X0039786Y0164696D01*
X0039962Y0164636D01*
X0040137Y0164571D01*
X0040310Y0164501D01*
X0040482Y0164428D01*
X0040651Y0164350D01*
X0040819Y0164269D01*
X0040985Y0164183D01*
X0041148Y0164093D01*
X0041309Y0163999D01*
X0041468Y0163901D01*
X0041624Y0163799D01*
X0041778Y0163694D01*
X0041929Y0163584D01*
X0042078Y0163471D01*
X0042223Y0163355D01*
X0042366Y0163235D01*
X0042506Y0163111D01*
X0042643Y0162984D01*
X0042776Y0162854D01*
X0042906Y0162721D01*
X0043033Y0162584D01*
X0043157Y0162444D01*
X0043277Y0162301D01*
X0043393Y0162156D01*
X0043506Y0162007D01*
X0043616Y0161856D01*
X0043721Y0161702D01*
X0043823Y0161546D01*
X0043921Y0161387D01*
X0044015Y0161226D01*
X0044105Y0161063D01*
X0044191Y0160897D01*
X0044272Y0160729D01*
X0044350Y0160560D01*
X0044423Y0160388D01*
X0044493Y0160215D01*
X0044558Y0160040D01*
X0044618Y0159864D01*
X0044675Y0159686D01*
X0044727Y0159507D01*
X0044774Y0159327D01*
X0044817Y0159145D01*
X0044856Y0158963D01*
X0044890Y0158779D01*
X0044920Y0158595D01*
X0044945Y0158410D01*
X0044965Y0158225D01*
X0044981Y0158039D01*
X0044993Y0157853D01*
X0045000Y0157667D01*
X0045002Y0157480D01*
X0045000Y0157293D01*
X0044993Y0157107D01*
X0044981Y0156921D01*
X0044965Y0156735D01*
X0044945Y0156550D01*
X0044920Y0156365D01*
X0044890Y0156181D01*
X0044856Y0155997D01*
X0044817Y0155815D01*
X0044774Y0155633D01*
X0044727Y0155453D01*
X0044675Y0155274D01*
X0044618Y0155096D01*
X0044558Y0154920D01*
X0044493Y0154745D01*
X0044423Y0154572D01*
X0044350Y0154400D01*
X0044272Y0154231D01*
X0044191Y0154063D01*
X0044105Y0153897D01*
X0044015Y0153734D01*
X0043921Y0153573D01*
X0043823Y0153414D01*
X0043721Y0153258D01*
X0043616Y0153104D01*
X0043506Y0152953D01*
X0043393Y0152804D01*
X0043277Y0152659D01*
X0043157Y0152516D01*
X0043033Y0152376D01*
X0042906Y0152239D01*
X0042776Y0152106D01*
X0042643Y0151976D01*
X0042506Y0151849D01*
X0042366Y0151725D01*
X0042223Y0151605D01*
X0042078Y0151489D01*
X0041929Y0151376D01*
X0041778Y0151266D01*
X0041624Y0151161D01*
X0041468Y0151059D01*
X0041309Y0150961D01*
X0041148Y0150867D01*
X0040985Y0150777D01*
X0040819Y0150691D01*
X0040651Y0150610D01*
X0040482Y0150532D01*
X0040310Y0150459D01*
X0040137Y0150389D01*
X0039962Y0150324D01*
X0039786Y0150264D01*
X0039608Y0150207D01*
X0039429Y0150155D01*
X0039249Y0150108D01*
X0039067Y0150065D01*
X0038885Y0150026D01*
X0038701Y0149992D01*
X0038517Y0149962D01*
X0038332Y0149937D01*
X0038147Y0149917D01*
X0037961Y0149901D01*
X0037775Y0149889D01*
X0037589Y0149882D01*
X0037402Y0149880D01*
X0037215Y0149882D01*
X0037029Y0149889D01*
X0036843Y0149901D01*
X0036657Y0149917D01*
X0036472Y0149937D01*
X0036287Y0149962D01*
X0036103Y0149992D01*
X0035919Y0150026D01*
X0035737Y0150065D01*
X0035555Y0150108D01*
X0035375Y0150155D01*
X0035196Y0150207D01*
X0035018Y0150264D01*
X0034842Y0150324D01*
X0034667Y0150389D01*
X0034494Y0150459D01*
X0034322Y0150532D01*
X0034153Y0150610D01*
X0033985Y0150691D01*
X0033819Y0150777D01*
X0033656Y0150867D01*
X0033495Y0150961D01*
X0033336Y0151059D01*
X0033180Y0151161D01*
X0033026Y0151266D01*
X0032875Y0151376D01*
X0032726Y0151489D01*
X0032581Y0151605D01*
X0032438Y0151725D01*
X0032298Y0151849D01*
X0032161Y0151976D01*
X0032028Y0152106D01*
X0031898Y0152239D01*
X0031771Y0152376D01*
X0031647Y0152516D01*
X0031527Y0152659D01*
X0031411Y0152804D01*
X0031298Y0152953D01*
X0031188Y0153104D01*
X0031083Y0153258D01*
X0030981Y0153414D01*
X0030883Y0153573D01*
X0030789Y0153734D01*
X0030699Y0153897D01*
X0030613Y0154063D01*
X0030532Y0154231D01*
X0030454Y0154400D01*
X0030381Y0154572D01*
X0030311Y0154745D01*
X0030246Y0154920D01*
X0030186Y0155096D01*
X0030129Y0155274D01*
X0030077Y0155453D01*
X0030030Y0155633D01*
X0029987Y0155815D01*
X0029948Y0155997D01*
X0029914Y0156181D01*
X0029884Y0156365D01*
X0029859Y0156550D01*
X0029839Y0156735D01*
X0029823Y0156921D01*
X0029811Y0157107D01*
X0029804Y0157293D01*
X0029802Y0157480D01*
X0019232Y0171453D02*
X0019234Y0171524D01*
X0019240Y0171595D01*
X0019250Y0171666D01*
X0019264Y0171735D01*
X0019281Y0171804D01*
X0019303Y0171872D01*
X0019328Y0171939D01*
X0019357Y0172004D01*
X0019389Y0172067D01*
X0019425Y0172129D01*
X0019464Y0172188D01*
X0019507Y0172245D01*
X0019552Y0172300D01*
X0019601Y0172352D01*
X0019652Y0172401D01*
X0019706Y0172447D01*
X0019763Y0172491D01*
X0019821Y0172531D01*
X0019882Y0172567D01*
X0019945Y0172601D01*
X0020010Y0172630D01*
X0020076Y0172656D01*
X0020144Y0172679D01*
X0020212Y0172697D01*
X0020282Y0172712D01*
X0020352Y0172723D01*
X0020423Y0172730D01*
X0020494Y0172733D01*
X0020565Y0172732D01*
X0020636Y0172727D01*
X0020707Y0172718D01*
X0020777Y0172705D01*
X0020846Y0172689D01*
X0020914Y0172668D01*
X0020981Y0172644D01*
X0021047Y0172616D01*
X0021110Y0172584D01*
X0021172Y0172549D01*
X0021232Y0172511D01*
X0021290Y0172469D01*
X0021345Y0172425D01*
X0021398Y0172377D01*
X0021448Y0172326D01*
X0021495Y0172273D01*
X0021539Y0172217D01*
X0021580Y0172159D01*
X0021618Y0172098D01*
X0021652Y0172036D01*
X0021682Y0171971D01*
X0021709Y0171906D01*
X0021733Y0171838D01*
X0021752Y0171770D01*
X0021768Y0171701D01*
X0021780Y0171630D01*
X0021788Y0171560D01*
X0021792Y0171489D01*
X0021792Y0171417D01*
X0021788Y0171346D01*
X0021780Y0171276D01*
X0021768Y0171205D01*
X0021752Y0171136D01*
X0021733Y0171068D01*
X0021709Y0171000D01*
X0021682Y0170935D01*
X0021652Y0170870D01*
X0021618Y0170808D01*
X0021580Y0170747D01*
X0021539Y0170689D01*
X0021495Y0170633D01*
X0021448Y0170580D01*
X0021398Y0170529D01*
X0021345Y0170481D01*
X0021290Y0170437D01*
X0021232Y0170395D01*
X0021172Y0170357D01*
X0021110Y0170322D01*
X0021047Y0170290D01*
X0020981Y0170262D01*
X0020914Y0170238D01*
X0020846Y0170217D01*
X0020777Y0170201D01*
X0020707Y0170188D01*
X0020636Y0170179D01*
X0020565Y0170174D01*
X0020494Y0170173D01*
X0020423Y0170176D01*
X0020352Y0170183D01*
X0020282Y0170194D01*
X0020212Y0170209D01*
X0020144Y0170227D01*
X0020076Y0170250D01*
X0020010Y0170276D01*
X0019945Y0170305D01*
X0019882Y0170339D01*
X0019821Y0170375D01*
X0019763Y0170415D01*
X0019706Y0170459D01*
X0019652Y0170505D01*
X0019601Y0170554D01*
X0019552Y0170606D01*
X0019507Y0170661D01*
X0019464Y0170718D01*
X0019425Y0170777D01*
X0019389Y0170839D01*
X0019357Y0170902D01*
X0019328Y0170967D01*
X0019303Y0171034D01*
X0019281Y0171102D01*
X0019264Y0171171D01*
X0019250Y0171240D01*
X0019240Y0171311D01*
X0019234Y0171382D01*
X0019232Y0171453D01*
X0017657Y0171453D02*
X0017659Y0171524D01*
X0017665Y0171595D01*
X0017675Y0171666D01*
X0017689Y0171735D01*
X0017706Y0171804D01*
X0017728Y0171872D01*
X0017753Y0171939D01*
X0017782Y0172004D01*
X0017814Y0172067D01*
X0017850Y0172129D01*
X0017889Y0172188D01*
X0017932Y0172245D01*
X0017977Y0172300D01*
X0018026Y0172352D01*
X0018077Y0172401D01*
X0018131Y0172447D01*
X0018188Y0172491D01*
X0018246Y0172531D01*
X0018307Y0172567D01*
X0018370Y0172601D01*
X0018435Y0172630D01*
X0018501Y0172656D01*
X0018569Y0172679D01*
X0018637Y0172697D01*
X0018707Y0172712D01*
X0018777Y0172723D01*
X0018848Y0172730D01*
X0018919Y0172733D01*
X0018990Y0172732D01*
X0019061Y0172727D01*
X0019132Y0172718D01*
X0019202Y0172705D01*
X0019271Y0172689D01*
X0019339Y0172668D01*
X0019406Y0172644D01*
X0019472Y0172616D01*
X0019535Y0172584D01*
X0019597Y0172549D01*
X0019657Y0172511D01*
X0019715Y0172469D01*
X0019770Y0172425D01*
X0019823Y0172377D01*
X0019873Y0172326D01*
X0019920Y0172273D01*
X0019964Y0172217D01*
X0020005Y0172159D01*
X0020043Y0172098D01*
X0020077Y0172036D01*
X0020107Y0171971D01*
X0020134Y0171906D01*
X0020158Y0171838D01*
X0020177Y0171770D01*
X0020193Y0171701D01*
X0020205Y0171630D01*
X0020213Y0171560D01*
X0020217Y0171489D01*
X0020217Y0171417D01*
X0020213Y0171346D01*
X0020205Y0171276D01*
X0020193Y0171205D01*
X0020177Y0171136D01*
X0020158Y0171068D01*
X0020134Y0171000D01*
X0020107Y0170935D01*
X0020077Y0170870D01*
X0020043Y0170808D01*
X0020005Y0170747D01*
X0019964Y0170689D01*
X0019920Y0170633D01*
X0019873Y0170580D01*
X0019823Y0170529D01*
X0019770Y0170481D01*
X0019715Y0170437D01*
X0019657Y0170395D01*
X0019597Y0170357D01*
X0019535Y0170322D01*
X0019472Y0170290D01*
X0019406Y0170262D01*
X0019339Y0170238D01*
X0019271Y0170217D01*
X0019202Y0170201D01*
X0019132Y0170188D01*
X0019061Y0170179D01*
X0018990Y0170174D01*
X0018919Y0170173D01*
X0018848Y0170176D01*
X0018777Y0170183D01*
X0018707Y0170194D01*
X0018637Y0170209D01*
X0018569Y0170227D01*
X0018501Y0170250D01*
X0018435Y0170276D01*
X0018370Y0170305D01*
X0018307Y0170339D01*
X0018246Y0170375D01*
X0018188Y0170415D01*
X0018131Y0170459D01*
X0018077Y0170505D01*
X0018026Y0170554D01*
X0017977Y0170606D01*
X0017932Y0170661D01*
X0017889Y0170718D01*
X0017850Y0170777D01*
X0017814Y0170839D01*
X0017782Y0170902D01*
X0017753Y0170967D01*
X0017728Y0171034D01*
X0017706Y0171102D01*
X0017689Y0171171D01*
X0017675Y0171240D01*
X0017665Y0171311D01*
X0017659Y0171382D01*
X0017657Y0171453D01*
X0007402Y0170272D02*
X0007404Y0170346D01*
X0007410Y0170420D01*
X0007420Y0170493D01*
X0007434Y0170566D01*
X0007451Y0170638D01*
X0007473Y0170708D01*
X0007498Y0170778D01*
X0007527Y0170846D01*
X0007560Y0170912D01*
X0007596Y0170977D01*
X0007636Y0171039D01*
X0007678Y0171100D01*
X0007724Y0171158D01*
X0007773Y0171213D01*
X0007825Y0171266D01*
X0007880Y0171316D01*
X0007937Y0171362D01*
X0007997Y0171406D01*
X0008059Y0171446D01*
X0008123Y0171483D01*
X0008189Y0171517D01*
X0008257Y0171547D01*
X0008326Y0171573D01*
X0008397Y0171596D01*
X0008468Y0171614D01*
X0008541Y0171629D01*
X0008614Y0171640D01*
X0008688Y0171647D01*
X0008762Y0171650D01*
X0008835Y0171649D01*
X0008909Y0171644D01*
X0008983Y0171635D01*
X0009056Y0171622D01*
X0009128Y0171605D01*
X0009199Y0171585D01*
X0009269Y0171560D01*
X0009337Y0171532D01*
X0009404Y0171501D01*
X0009469Y0171465D01*
X0009532Y0171427D01*
X0009593Y0171385D01*
X0009652Y0171339D01*
X0009708Y0171291D01*
X0009761Y0171240D01*
X0009811Y0171186D01*
X0009859Y0171129D01*
X0009903Y0171070D01*
X0009945Y0171008D01*
X0009983Y0170945D01*
X0010017Y0170879D01*
X0010048Y0170812D01*
X0010075Y0170743D01*
X0010098Y0170673D01*
X0010118Y0170602D01*
X0010134Y0170529D01*
X0010146Y0170456D01*
X0010154Y0170383D01*
X0010158Y0170309D01*
X0010158Y0170235D01*
X0010154Y0170161D01*
X0010146Y0170088D01*
X0010134Y0170015D01*
X0010118Y0169942D01*
X0010098Y0169871D01*
X0010075Y0169801D01*
X0010048Y0169732D01*
X0010017Y0169665D01*
X0009983Y0169599D01*
X0009945Y0169536D01*
X0009903Y0169474D01*
X0009859Y0169415D01*
X0009811Y0169358D01*
X0009761Y0169304D01*
X0009708Y0169253D01*
X0009652Y0169205D01*
X0009593Y0169159D01*
X0009532Y0169117D01*
X0009469Y0169079D01*
X0009404Y0169043D01*
X0009337Y0169012D01*
X0009269Y0168984D01*
X0009199Y0168959D01*
X0009128Y0168939D01*
X0009056Y0168922D01*
X0008983Y0168909D01*
X0008909Y0168900D01*
X0008835Y0168895D01*
X0008762Y0168894D01*
X0008688Y0168897D01*
X0008614Y0168904D01*
X0008541Y0168915D01*
X0008468Y0168930D01*
X0008397Y0168948D01*
X0008326Y0168971D01*
X0008257Y0168997D01*
X0008189Y0169027D01*
X0008123Y0169061D01*
X0008059Y0169098D01*
X0007997Y0169138D01*
X0007937Y0169182D01*
X0007880Y0169228D01*
X0007825Y0169278D01*
X0007773Y0169331D01*
X0007724Y0169386D01*
X0007678Y0169444D01*
X0007636Y0169505D01*
X0007596Y0169567D01*
X0007560Y0169632D01*
X0007527Y0169698D01*
X0007498Y0169766D01*
X0007473Y0169836D01*
X0007451Y0169906D01*
X0007434Y0169978D01*
X0007420Y0170051D01*
X0007410Y0170124D01*
X0007404Y0170198D01*
X0007402Y0170272D01*
X0005433Y0170272D02*
X0005435Y0170346D01*
X0005441Y0170420D01*
X0005451Y0170493D01*
X0005465Y0170566D01*
X0005482Y0170638D01*
X0005504Y0170708D01*
X0005529Y0170778D01*
X0005558Y0170846D01*
X0005591Y0170912D01*
X0005627Y0170977D01*
X0005667Y0171039D01*
X0005709Y0171100D01*
X0005755Y0171158D01*
X0005804Y0171213D01*
X0005856Y0171266D01*
X0005911Y0171316D01*
X0005968Y0171362D01*
X0006028Y0171406D01*
X0006090Y0171446D01*
X0006154Y0171483D01*
X0006220Y0171517D01*
X0006288Y0171547D01*
X0006357Y0171573D01*
X0006428Y0171596D01*
X0006499Y0171614D01*
X0006572Y0171629D01*
X0006645Y0171640D01*
X0006719Y0171647D01*
X0006793Y0171650D01*
X0006866Y0171649D01*
X0006940Y0171644D01*
X0007014Y0171635D01*
X0007087Y0171622D01*
X0007159Y0171605D01*
X0007230Y0171585D01*
X0007300Y0171560D01*
X0007368Y0171532D01*
X0007435Y0171501D01*
X0007500Y0171465D01*
X0007563Y0171427D01*
X0007624Y0171385D01*
X0007683Y0171339D01*
X0007739Y0171291D01*
X0007792Y0171240D01*
X0007842Y0171186D01*
X0007890Y0171129D01*
X0007934Y0171070D01*
X0007976Y0171008D01*
X0008014Y0170945D01*
X0008048Y0170879D01*
X0008079Y0170812D01*
X0008106Y0170743D01*
X0008129Y0170673D01*
X0008149Y0170602D01*
X0008165Y0170529D01*
X0008177Y0170456D01*
X0008185Y0170383D01*
X0008189Y0170309D01*
X0008189Y0170235D01*
X0008185Y0170161D01*
X0008177Y0170088D01*
X0008165Y0170015D01*
X0008149Y0169942D01*
X0008129Y0169871D01*
X0008106Y0169801D01*
X0008079Y0169732D01*
X0008048Y0169665D01*
X0008014Y0169599D01*
X0007976Y0169536D01*
X0007934Y0169474D01*
X0007890Y0169415D01*
X0007842Y0169358D01*
X0007792Y0169304D01*
X0007739Y0169253D01*
X0007683Y0169205D01*
X0007624Y0169159D01*
X0007563Y0169117D01*
X0007500Y0169079D01*
X0007435Y0169043D01*
X0007368Y0169012D01*
X0007300Y0168984D01*
X0007230Y0168959D01*
X0007159Y0168939D01*
X0007087Y0168922D01*
X0007014Y0168909D01*
X0006940Y0168900D01*
X0006866Y0168895D01*
X0006793Y0168894D01*
X0006719Y0168897D01*
X0006645Y0168904D01*
X0006572Y0168915D01*
X0006499Y0168930D01*
X0006428Y0168948D01*
X0006357Y0168971D01*
X0006288Y0168997D01*
X0006220Y0169027D01*
X0006154Y0169061D01*
X0006090Y0169098D01*
X0006028Y0169138D01*
X0005968Y0169182D01*
X0005911Y0169228D01*
X0005856Y0169278D01*
X0005804Y0169331D01*
X0005755Y0169386D01*
X0005709Y0169444D01*
X0005667Y0169505D01*
X0005627Y0169567D01*
X0005591Y0169632D01*
X0005558Y0169698D01*
X0005529Y0169766D01*
X0005504Y0169836D01*
X0005482Y0169906D01*
X0005465Y0169978D01*
X0005451Y0170051D01*
X0005441Y0170124D01*
X0005435Y0170198D01*
X0005433Y0170272D01*
X0017657Y0190547D02*
X0017659Y0190618D01*
X0017665Y0190689D01*
X0017675Y0190760D01*
X0017689Y0190829D01*
X0017706Y0190898D01*
X0017728Y0190966D01*
X0017753Y0191033D01*
X0017782Y0191098D01*
X0017814Y0191161D01*
X0017850Y0191223D01*
X0017889Y0191282D01*
X0017932Y0191339D01*
X0017977Y0191394D01*
X0018026Y0191446D01*
X0018077Y0191495D01*
X0018131Y0191541D01*
X0018188Y0191585D01*
X0018246Y0191625D01*
X0018307Y0191661D01*
X0018370Y0191695D01*
X0018435Y0191724D01*
X0018501Y0191750D01*
X0018569Y0191773D01*
X0018637Y0191791D01*
X0018707Y0191806D01*
X0018777Y0191817D01*
X0018848Y0191824D01*
X0018919Y0191827D01*
X0018990Y0191826D01*
X0019061Y0191821D01*
X0019132Y0191812D01*
X0019202Y0191799D01*
X0019271Y0191783D01*
X0019339Y0191762D01*
X0019406Y0191738D01*
X0019472Y0191710D01*
X0019535Y0191678D01*
X0019597Y0191643D01*
X0019657Y0191605D01*
X0019715Y0191563D01*
X0019770Y0191519D01*
X0019823Y0191471D01*
X0019873Y0191420D01*
X0019920Y0191367D01*
X0019964Y0191311D01*
X0020005Y0191253D01*
X0020043Y0191192D01*
X0020077Y0191130D01*
X0020107Y0191065D01*
X0020134Y0191000D01*
X0020158Y0190932D01*
X0020177Y0190864D01*
X0020193Y0190795D01*
X0020205Y0190724D01*
X0020213Y0190654D01*
X0020217Y0190583D01*
X0020217Y0190511D01*
X0020213Y0190440D01*
X0020205Y0190370D01*
X0020193Y0190299D01*
X0020177Y0190230D01*
X0020158Y0190162D01*
X0020134Y0190094D01*
X0020107Y0190029D01*
X0020077Y0189964D01*
X0020043Y0189902D01*
X0020005Y0189841D01*
X0019964Y0189783D01*
X0019920Y0189727D01*
X0019873Y0189674D01*
X0019823Y0189623D01*
X0019770Y0189575D01*
X0019715Y0189531D01*
X0019657Y0189489D01*
X0019597Y0189451D01*
X0019535Y0189416D01*
X0019472Y0189384D01*
X0019406Y0189356D01*
X0019339Y0189332D01*
X0019271Y0189311D01*
X0019202Y0189295D01*
X0019132Y0189282D01*
X0019061Y0189273D01*
X0018990Y0189268D01*
X0018919Y0189267D01*
X0018848Y0189270D01*
X0018777Y0189277D01*
X0018707Y0189288D01*
X0018637Y0189303D01*
X0018569Y0189321D01*
X0018501Y0189344D01*
X0018435Y0189370D01*
X0018370Y0189399D01*
X0018307Y0189433D01*
X0018246Y0189469D01*
X0018188Y0189509D01*
X0018131Y0189553D01*
X0018077Y0189599D01*
X0018026Y0189648D01*
X0017977Y0189700D01*
X0017932Y0189755D01*
X0017889Y0189812D01*
X0017850Y0189871D01*
X0017814Y0189933D01*
X0017782Y0189996D01*
X0017753Y0190061D01*
X0017728Y0190128D01*
X0017706Y0190196D01*
X0017689Y0190265D01*
X0017675Y0190334D01*
X0017665Y0190405D01*
X0017659Y0190476D01*
X0017657Y0190547D01*
X0019232Y0190547D02*
X0019234Y0190618D01*
X0019240Y0190689D01*
X0019250Y0190760D01*
X0019264Y0190829D01*
X0019281Y0190898D01*
X0019303Y0190966D01*
X0019328Y0191033D01*
X0019357Y0191098D01*
X0019389Y0191161D01*
X0019425Y0191223D01*
X0019464Y0191282D01*
X0019507Y0191339D01*
X0019552Y0191394D01*
X0019601Y0191446D01*
X0019652Y0191495D01*
X0019706Y0191541D01*
X0019763Y0191585D01*
X0019821Y0191625D01*
X0019882Y0191661D01*
X0019945Y0191695D01*
X0020010Y0191724D01*
X0020076Y0191750D01*
X0020144Y0191773D01*
X0020212Y0191791D01*
X0020282Y0191806D01*
X0020352Y0191817D01*
X0020423Y0191824D01*
X0020494Y0191827D01*
X0020565Y0191826D01*
X0020636Y0191821D01*
X0020707Y0191812D01*
X0020777Y0191799D01*
X0020846Y0191783D01*
X0020914Y0191762D01*
X0020981Y0191738D01*
X0021047Y0191710D01*
X0021110Y0191678D01*
X0021172Y0191643D01*
X0021232Y0191605D01*
X0021290Y0191563D01*
X0021345Y0191519D01*
X0021398Y0191471D01*
X0021448Y0191420D01*
X0021495Y0191367D01*
X0021539Y0191311D01*
X0021580Y0191253D01*
X0021618Y0191192D01*
X0021652Y0191130D01*
X0021682Y0191065D01*
X0021709Y0191000D01*
X0021733Y0190932D01*
X0021752Y0190864D01*
X0021768Y0190795D01*
X0021780Y0190724D01*
X0021788Y0190654D01*
X0021792Y0190583D01*
X0021792Y0190511D01*
X0021788Y0190440D01*
X0021780Y0190370D01*
X0021768Y0190299D01*
X0021752Y0190230D01*
X0021733Y0190162D01*
X0021709Y0190094D01*
X0021682Y0190029D01*
X0021652Y0189964D01*
X0021618Y0189902D01*
X0021580Y0189841D01*
X0021539Y0189783D01*
X0021495Y0189727D01*
X0021448Y0189674D01*
X0021398Y0189623D01*
X0021345Y0189575D01*
X0021290Y0189531D01*
X0021232Y0189489D01*
X0021172Y0189451D01*
X0021110Y0189416D01*
X0021047Y0189384D01*
X0020981Y0189356D01*
X0020914Y0189332D01*
X0020846Y0189311D01*
X0020777Y0189295D01*
X0020707Y0189282D01*
X0020636Y0189273D01*
X0020565Y0189268D01*
X0020494Y0189267D01*
X0020423Y0189270D01*
X0020352Y0189277D01*
X0020282Y0189288D01*
X0020212Y0189303D01*
X0020144Y0189321D01*
X0020076Y0189344D01*
X0020010Y0189370D01*
X0019945Y0189399D01*
X0019882Y0189433D01*
X0019821Y0189469D01*
X0019763Y0189509D01*
X0019706Y0189553D01*
X0019652Y0189599D01*
X0019601Y0189648D01*
X0019552Y0189700D01*
X0019507Y0189755D01*
X0019464Y0189812D01*
X0019425Y0189871D01*
X0019389Y0189933D01*
X0019357Y0189996D01*
X0019328Y0190061D01*
X0019303Y0190128D01*
X0019281Y0190196D01*
X0019264Y0190265D01*
X0019250Y0190334D01*
X0019240Y0190405D01*
X0019234Y0190476D01*
X0019232Y0190547D01*
X0007402Y0191728D02*
X0007404Y0191802D01*
X0007410Y0191876D01*
X0007420Y0191949D01*
X0007434Y0192022D01*
X0007451Y0192094D01*
X0007473Y0192164D01*
X0007498Y0192234D01*
X0007527Y0192302D01*
X0007560Y0192368D01*
X0007596Y0192433D01*
X0007636Y0192495D01*
X0007678Y0192556D01*
X0007724Y0192614D01*
X0007773Y0192669D01*
X0007825Y0192722D01*
X0007880Y0192772D01*
X0007937Y0192818D01*
X0007997Y0192862D01*
X0008059Y0192902D01*
X0008123Y0192939D01*
X0008189Y0192973D01*
X0008257Y0193003D01*
X0008326Y0193029D01*
X0008397Y0193052D01*
X0008468Y0193070D01*
X0008541Y0193085D01*
X0008614Y0193096D01*
X0008688Y0193103D01*
X0008762Y0193106D01*
X0008835Y0193105D01*
X0008909Y0193100D01*
X0008983Y0193091D01*
X0009056Y0193078D01*
X0009128Y0193061D01*
X0009199Y0193041D01*
X0009269Y0193016D01*
X0009337Y0192988D01*
X0009404Y0192957D01*
X0009469Y0192921D01*
X0009532Y0192883D01*
X0009593Y0192841D01*
X0009652Y0192795D01*
X0009708Y0192747D01*
X0009761Y0192696D01*
X0009811Y0192642D01*
X0009859Y0192585D01*
X0009903Y0192526D01*
X0009945Y0192464D01*
X0009983Y0192401D01*
X0010017Y0192335D01*
X0010048Y0192268D01*
X0010075Y0192199D01*
X0010098Y0192129D01*
X0010118Y0192058D01*
X0010134Y0191985D01*
X0010146Y0191912D01*
X0010154Y0191839D01*
X0010158Y0191765D01*
X0010158Y0191691D01*
X0010154Y0191617D01*
X0010146Y0191544D01*
X0010134Y0191471D01*
X0010118Y0191398D01*
X0010098Y0191327D01*
X0010075Y0191257D01*
X0010048Y0191188D01*
X0010017Y0191121D01*
X0009983Y0191055D01*
X0009945Y0190992D01*
X0009903Y0190930D01*
X0009859Y0190871D01*
X0009811Y0190814D01*
X0009761Y0190760D01*
X0009708Y0190709D01*
X0009652Y0190661D01*
X0009593Y0190615D01*
X0009532Y0190573D01*
X0009469Y0190535D01*
X0009404Y0190499D01*
X0009337Y0190468D01*
X0009269Y0190440D01*
X0009199Y0190415D01*
X0009128Y0190395D01*
X0009056Y0190378D01*
X0008983Y0190365D01*
X0008909Y0190356D01*
X0008835Y0190351D01*
X0008762Y0190350D01*
X0008688Y0190353D01*
X0008614Y0190360D01*
X0008541Y0190371D01*
X0008468Y0190386D01*
X0008397Y0190404D01*
X0008326Y0190427D01*
X0008257Y0190453D01*
X0008189Y0190483D01*
X0008123Y0190517D01*
X0008059Y0190554D01*
X0007997Y0190594D01*
X0007937Y0190638D01*
X0007880Y0190684D01*
X0007825Y0190734D01*
X0007773Y0190787D01*
X0007724Y0190842D01*
X0007678Y0190900D01*
X0007636Y0190961D01*
X0007596Y0191023D01*
X0007560Y0191088D01*
X0007527Y0191154D01*
X0007498Y0191222D01*
X0007473Y0191292D01*
X0007451Y0191362D01*
X0007434Y0191434D01*
X0007420Y0191507D01*
X0007410Y0191580D01*
X0007404Y0191654D01*
X0007402Y0191728D01*
X0005433Y0191728D02*
X0005435Y0191802D01*
X0005441Y0191876D01*
X0005451Y0191949D01*
X0005465Y0192022D01*
X0005482Y0192094D01*
X0005504Y0192164D01*
X0005529Y0192234D01*
X0005558Y0192302D01*
X0005591Y0192368D01*
X0005627Y0192433D01*
X0005667Y0192495D01*
X0005709Y0192556D01*
X0005755Y0192614D01*
X0005804Y0192669D01*
X0005856Y0192722D01*
X0005911Y0192772D01*
X0005968Y0192818D01*
X0006028Y0192862D01*
X0006090Y0192902D01*
X0006154Y0192939D01*
X0006220Y0192973D01*
X0006288Y0193003D01*
X0006357Y0193029D01*
X0006428Y0193052D01*
X0006499Y0193070D01*
X0006572Y0193085D01*
X0006645Y0193096D01*
X0006719Y0193103D01*
X0006793Y0193106D01*
X0006866Y0193105D01*
X0006940Y0193100D01*
X0007014Y0193091D01*
X0007087Y0193078D01*
X0007159Y0193061D01*
X0007230Y0193041D01*
X0007300Y0193016D01*
X0007368Y0192988D01*
X0007435Y0192957D01*
X0007500Y0192921D01*
X0007563Y0192883D01*
X0007624Y0192841D01*
X0007683Y0192795D01*
X0007739Y0192747D01*
X0007792Y0192696D01*
X0007842Y0192642D01*
X0007890Y0192585D01*
X0007934Y0192526D01*
X0007976Y0192464D01*
X0008014Y0192401D01*
X0008048Y0192335D01*
X0008079Y0192268D01*
X0008106Y0192199D01*
X0008129Y0192129D01*
X0008149Y0192058D01*
X0008165Y0191985D01*
X0008177Y0191912D01*
X0008185Y0191839D01*
X0008189Y0191765D01*
X0008189Y0191691D01*
X0008185Y0191617D01*
X0008177Y0191544D01*
X0008165Y0191471D01*
X0008149Y0191398D01*
X0008129Y0191327D01*
X0008106Y0191257D01*
X0008079Y0191188D01*
X0008048Y0191121D01*
X0008014Y0191055D01*
X0007976Y0190992D01*
X0007934Y0190930D01*
X0007890Y0190871D01*
X0007842Y0190814D01*
X0007792Y0190760D01*
X0007739Y0190709D01*
X0007683Y0190661D01*
X0007624Y0190615D01*
X0007563Y0190573D01*
X0007500Y0190535D01*
X0007435Y0190499D01*
X0007368Y0190468D01*
X0007300Y0190440D01*
X0007230Y0190415D01*
X0007159Y0190395D01*
X0007087Y0190378D01*
X0007014Y0190365D01*
X0006940Y0190356D01*
X0006866Y0190351D01*
X0006793Y0190350D01*
X0006719Y0190353D01*
X0006645Y0190360D01*
X0006572Y0190371D01*
X0006499Y0190386D01*
X0006428Y0190404D01*
X0006357Y0190427D01*
X0006288Y0190453D01*
X0006220Y0190483D01*
X0006154Y0190517D01*
X0006090Y0190554D01*
X0006028Y0190594D01*
X0005968Y0190638D01*
X0005911Y0190684D01*
X0005856Y0190734D01*
X0005804Y0190787D01*
X0005755Y0190842D01*
X0005709Y0190900D01*
X0005667Y0190961D01*
X0005627Y0191023D01*
X0005591Y0191088D01*
X0005558Y0191154D01*
X0005529Y0191222D01*
X0005504Y0191292D01*
X0005482Y0191362D01*
X0005465Y0191434D01*
X0005451Y0191507D01*
X0005441Y0191580D01*
X0005435Y0191654D01*
X0005433Y0191728D01*
X0089900Y0240000D02*
X0089902Y0240187D01*
X0089909Y0240373D01*
X0089921Y0240559D01*
X0089937Y0240745D01*
X0089957Y0240930D01*
X0089982Y0241115D01*
X0090012Y0241299D01*
X0090046Y0241483D01*
X0090085Y0241665D01*
X0090128Y0241847D01*
X0090175Y0242027D01*
X0090227Y0242206D01*
X0090284Y0242384D01*
X0090344Y0242560D01*
X0090409Y0242735D01*
X0090479Y0242908D01*
X0090552Y0243080D01*
X0090630Y0243249D01*
X0090711Y0243417D01*
X0090797Y0243583D01*
X0090887Y0243746D01*
X0090981Y0243907D01*
X0091079Y0244066D01*
X0091181Y0244222D01*
X0091286Y0244376D01*
X0091396Y0244527D01*
X0091509Y0244676D01*
X0091625Y0244821D01*
X0091745Y0244964D01*
X0091869Y0245104D01*
X0091996Y0245241D01*
X0092126Y0245374D01*
X0092259Y0245504D01*
X0092396Y0245631D01*
X0092536Y0245755D01*
X0092679Y0245875D01*
X0092824Y0245991D01*
X0092973Y0246104D01*
X0093124Y0246214D01*
X0093278Y0246319D01*
X0093434Y0246421D01*
X0093593Y0246519D01*
X0093754Y0246613D01*
X0093917Y0246703D01*
X0094083Y0246789D01*
X0094251Y0246870D01*
X0094420Y0246948D01*
X0094592Y0247021D01*
X0094765Y0247091D01*
X0094940Y0247156D01*
X0095116Y0247216D01*
X0095294Y0247273D01*
X0095473Y0247325D01*
X0095653Y0247372D01*
X0095835Y0247415D01*
X0096017Y0247454D01*
X0096201Y0247488D01*
X0096385Y0247518D01*
X0096570Y0247543D01*
X0096755Y0247563D01*
X0096941Y0247579D01*
X0097127Y0247591D01*
X0097313Y0247598D01*
X0097500Y0247600D01*
X0097687Y0247598D01*
X0097873Y0247591D01*
X0098059Y0247579D01*
X0098245Y0247563D01*
X0098430Y0247543D01*
X0098615Y0247518D01*
X0098799Y0247488D01*
X0098983Y0247454D01*
X0099165Y0247415D01*
X0099347Y0247372D01*
X0099527Y0247325D01*
X0099706Y0247273D01*
X0099884Y0247216D01*
X0100060Y0247156D01*
X0100235Y0247091D01*
X0100408Y0247021D01*
X0100580Y0246948D01*
X0100749Y0246870D01*
X0100917Y0246789D01*
X0101083Y0246703D01*
X0101246Y0246613D01*
X0101407Y0246519D01*
X0101566Y0246421D01*
X0101722Y0246319D01*
X0101876Y0246214D01*
X0102027Y0246104D01*
X0102176Y0245991D01*
X0102321Y0245875D01*
X0102464Y0245755D01*
X0102604Y0245631D01*
X0102741Y0245504D01*
X0102874Y0245374D01*
X0103004Y0245241D01*
X0103131Y0245104D01*
X0103255Y0244964D01*
X0103375Y0244821D01*
X0103491Y0244676D01*
X0103604Y0244527D01*
X0103714Y0244376D01*
X0103819Y0244222D01*
X0103921Y0244066D01*
X0104019Y0243907D01*
X0104113Y0243746D01*
X0104203Y0243583D01*
X0104289Y0243417D01*
X0104370Y0243249D01*
X0104448Y0243080D01*
X0104521Y0242908D01*
X0104591Y0242735D01*
X0104656Y0242560D01*
X0104716Y0242384D01*
X0104773Y0242206D01*
X0104825Y0242027D01*
X0104872Y0241847D01*
X0104915Y0241665D01*
X0104954Y0241483D01*
X0104988Y0241299D01*
X0105018Y0241115D01*
X0105043Y0240930D01*
X0105063Y0240745D01*
X0105079Y0240559D01*
X0105091Y0240373D01*
X0105098Y0240187D01*
X0105100Y0240000D01*
X0105098Y0239813D01*
X0105091Y0239627D01*
X0105079Y0239441D01*
X0105063Y0239255D01*
X0105043Y0239070D01*
X0105018Y0238885D01*
X0104988Y0238701D01*
X0104954Y0238517D01*
X0104915Y0238335D01*
X0104872Y0238153D01*
X0104825Y0237973D01*
X0104773Y0237794D01*
X0104716Y0237616D01*
X0104656Y0237440D01*
X0104591Y0237265D01*
X0104521Y0237092D01*
X0104448Y0236920D01*
X0104370Y0236751D01*
X0104289Y0236583D01*
X0104203Y0236417D01*
X0104113Y0236254D01*
X0104019Y0236093D01*
X0103921Y0235934D01*
X0103819Y0235778D01*
X0103714Y0235624D01*
X0103604Y0235473D01*
X0103491Y0235324D01*
X0103375Y0235179D01*
X0103255Y0235036D01*
X0103131Y0234896D01*
X0103004Y0234759D01*
X0102874Y0234626D01*
X0102741Y0234496D01*
X0102604Y0234369D01*
X0102464Y0234245D01*
X0102321Y0234125D01*
X0102176Y0234009D01*
X0102027Y0233896D01*
X0101876Y0233786D01*
X0101722Y0233681D01*
X0101566Y0233579D01*
X0101407Y0233481D01*
X0101246Y0233387D01*
X0101083Y0233297D01*
X0100917Y0233211D01*
X0100749Y0233130D01*
X0100580Y0233052D01*
X0100408Y0232979D01*
X0100235Y0232909D01*
X0100060Y0232844D01*
X0099884Y0232784D01*
X0099706Y0232727D01*
X0099527Y0232675D01*
X0099347Y0232628D01*
X0099165Y0232585D01*
X0098983Y0232546D01*
X0098799Y0232512D01*
X0098615Y0232482D01*
X0098430Y0232457D01*
X0098245Y0232437D01*
X0098059Y0232421D01*
X0097873Y0232409D01*
X0097687Y0232402D01*
X0097500Y0232400D01*
X0097313Y0232402D01*
X0097127Y0232409D01*
X0096941Y0232421D01*
X0096755Y0232437D01*
X0096570Y0232457D01*
X0096385Y0232482D01*
X0096201Y0232512D01*
X0096017Y0232546D01*
X0095835Y0232585D01*
X0095653Y0232628D01*
X0095473Y0232675D01*
X0095294Y0232727D01*
X0095116Y0232784D01*
X0094940Y0232844D01*
X0094765Y0232909D01*
X0094592Y0232979D01*
X0094420Y0233052D01*
X0094251Y0233130D01*
X0094083Y0233211D01*
X0093917Y0233297D01*
X0093754Y0233387D01*
X0093593Y0233481D01*
X0093434Y0233579D01*
X0093278Y0233681D01*
X0093124Y0233786D01*
X0092973Y0233896D01*
X0092824Y0234009D01*
X0092679Y0234125D01*
X0092536Y0234245D01*
X0092396Y0234369D01*
X0092259Y0234496D01*
X0092126Y0234626D01*
X0091996Y0234759D01*
X0091869Y0234896D01*
X0091745Y0235036D01*
X0091625Y0235179D01*
X0091509Y0235324D01*
X0091396Y0235473D01*
X0091286Y0235624D01*
X0091181Y0235778D01*
X0091079Y0235934D01*
X0090981Y0236093D01*
X0090887Y0236254D01*
X0090797Y0236417D01*
X0090711Y0236583D01*
X0090630Y0236751D01*
X0090552Y0236920D01*
X0090479Y0237092D01*
X0090409Y0237265D01*
X0090344Y0237440D01*
X0090284Y0237616D01*
X0090227Y0237794D01*
X0090175Y0237973D01*
X0090128Y0238153D01*
X0090085Y0238335D01*
X0090046Y0238517D01*
X0090012Y0238701D01*
X0089982Y0238885D01*
X0089957Y0239070D01*
X0089937Y0239255D01*
X0089921Y0239441D01*
X0089909Y0239627D01*
X0089902Y0239813D01*
X0089900Y0240000D01*
X0197400Y0279500D02*
X0197402Y0279687D01*
X0197409Y0279873D01*
X0197421Y0280059D01*
X0197437Y0280245D01*
X0197457Y0280430D01*
X0197482Y0280615D01*
X0197512Y0280799D01*
X0197546Y0280983D01*
X0197585Y0281165D01*
X0197628Y0281347D01*
X0197675Y0281527D01*
X0197727Y0281706D01*
X0197784Y0281884D01*
X0197844Y0282060D01*
X0197909Y0282235D01*
X0197979Y0282408D01*
X0198052Y0282580D01*
X0198130Y0282749D01*
X0198211Y0282917D01*
X0198297Y0283083D01*
X0198387Y0283246D01*
X0198481Y0283407D01*
X0198579Y0283566D01*
X0198681Y0283722D01*
X0198786Y0283876D01*
X0198896Y0284027D01*
X0199009Y0284176D01*
X0199125Y0284321D01*
X0199245Y0284464D01*
X0199369Y0284604D01*
X0199496Y0284741D01*
X0199626Y0284874D01*
X0199759Y0285004D01*
X0199896Y0285131D01*
X0200036Y0285255D01*
X0200179Y0285375D01*
X0200324Y0285491D01*
X0200473Y0285604D01*
X0200624Y0285714D01*
X0200778Y0285819D01*
X0200934Y0285921D01*
X0201093Y0286019D01*
X0201254Y0286113D01*
X0201417Y0286203D01*
X0201583Y0286289D01*
X0201751Y0286370D01*
X0201920Y0286448D01*
X0202092Y0286521D01*
X0202265Y0286591D01*
X0202440Y0286656D01*
X0202616Y0286716D01*
X0202794Y0286773D01*
X0202973Y0286825D01*
X0203153Y0286872D01*
X0203335Y0286915D01*
X0203517Y0286954D01*
X0203701Y0286988D01*
X0203885Y0287018D01*
X0204070Y0287043D01*
X0204255Y0287063D01*
X0204441Y0287079D01*
X0204627Y0287091D01*
X0204813Y0287098D01*
X0205000Y0287100D01*
X0205187Y0287098D01*
X0205373Y0287091D01*
X0205559Y0287079D01*
X0205745Y0287063D01*
X0205930Y0287043D01*
X0206115Y0287018D01*
X0206299Y0286988D01*
X0206483Y0286954D01*
X0206665Y0286915D01*
X0206847Y0286872D01*
X0207027Y0286825D01*
X0207206Y0286773D01*
X0207384Y0286716D01*
X0207560Y0286656D01*
X0207735Y0286591D01*
X0207908Y0286521D01*
X0208080Y0286448D01*
X0208249Y0286370D01*
X0208417Y0286289D01*
X0208583Y0286203D01*
X0208746Y0286113D01*
X0208907Y0286019D01*
X0209066Y0285921D01*
X0209222Y0285819D01*
X0209376Y0285714D01*
X0209527Y0285604D01*
X0209676Y0285491D01*
X0209821Y0285375D01*
X0209964Y0285255D01*
X0210104Y0285131D01*
X0210241Y0285004D01*
X0210374Y0284874D01*
X0210504Y0284741D01*
X0210631Y0284604D01*
X0210755Y0284464D01*
X0210875Y0284321D01*
X0210991Y0284176D01*
X0211104Y0284027D01*
X0211214Y0283876D01*
X0211319Y0283722D01*
X0211421Y0283566D01*
X0211519Y0283407D01*
X0211613Y0283246D01*
X0211703Y0283083D01*
X0211789Y0282917D01*
X0211870Y0282749D01*
X0211948Y0282580D01*
X0212021Y0282408D01*
X0212091Y0282235D01*
X0212156Y0282060D01*
X0212216Y0281884D01*
X0212273Y0281706D01*
X0212325Y0281527D01*
X0212372Y0281347D01*
X0212415Y0281165D01*
X0212454Y0280983D01*
X0212488Y0280799D01*
X0212518Y0280615D01*
X0212543Y0280430D01*
X0212563Y0280245D01*
X0212579Y0280059D01*
X0212591Y0279873D01*
X0212598Y0279687D01*
X0212600Y0279500D01*
X0212598Y0279313D01*
X0212591Y0279127D01*
X0212579Y0278941D01*
X0212563Y0278755D01*
X0212543Y0278570D01*
X0212518Y0278385D01*
X0212488Y0278201D01*
X0212454Y0278017D01*
X0212415Y0277835D01*
X0212372Y0277653D01*
X0212325Y0277473D01*
X0212273Y0277294D01*
X0212216Y0277116D01*
X0212156Y0276940D01*
X0212091Y0276765D01*
X0212021Y0276592D01*
X0211948Y0276420D01*
X0211870Y0276251D01*
X0211789Y0276083D01*
X0211703Y0275917D01*
X0211613Y0275754D01*
X0211519Y0275593D01*
X0211421Y0275434D01*
X0211319Y0275278D01*
X0211214Y0275124D01*
X0211104Y0274973D01*
X0210991Y0274824D01*
X0210875Y0274679D01*
X0210755Y0274536D01*
X0210631Y0274396D01*
X0210504Y0274259D01*
X0210374Y0274126D01*
X0210241Y0273996D01*
X0210104Y0273869D01*
X0209964Y0273745D01*
X0209821Y0273625D01*
X0209676Y0273509D01*
X0209527Y0273396D01*
X0209376Y0273286D01*
X0209222Y0273181D01*
X0209066Y0273079D01*
X0208907Y0272981D01*
X0208746Y0272887D01*
X0208583Y0272797D01*
X0208417Y0272711D01*
X0208249Y0272630D01*
X0208080Y0272552D01*
X0207908Y0272479D01*
X0207735Y0272409D01*
X0207560Y0272344D01*
X0207384Y0272284D01*
X0207206Y0272227D01*
X0207027Y0272175D01*
X0206847Y0272128D01*
X0206665Y0272085D01*
X0206483Y0272046D01*
X0206299Y0272012D01*
X0206115Y0271982D01*
X0205930Y0271957D01*
X0205745Y0271937D01*
X0205559Y0271921D01*
X0205373Y0271909D01*
X0205187Y0271902D01*
X0205000Y0271900D01*
X0204813Y0271902D01*
X0204627Y0271909D01*
X0204441Y0271921D01*
X0204255Y0271937D01*
X0204070Y0271957D01*
X0203885Y0271982D01*
X0203701Y0272012D01*
X0203517Y0272046D01*
X0203335Y0272085D01*
X0203153Y0272128D01*
X0202973Y0272175D01*
X0202794Y0272227D01*
X0202616Y0272284D01*
X0202440Y0272344D01*
X0202265Y0272409D01*
X0202092Y0272479D01*
X0201920Y0272552D01*
X0201751Y0272630D01*
X0201583Y0272711D01*
X0201417Y0272797D01*
X0201254Y0272887D01*
X0201093Y0272981D01*
X0200934Y0273079D01*
X0200778Y0273181D01*
X0200624Y0273286D01*
X0200473Y0273396D01*
X0200324Y0273509D01*
X0200179Y0273625D01*
X0200036Y0273745D01*
X0199896Y0273869D01*
X0199759Y0273996D01*
X0199626Y0274126D01*
X0199496Y0274259D01*
X0199369Y0274396D01*
X0199245Y0274536D01*
X0199125Y0274679D01*
X0199009Y0274824D01*
X0198896Y0274973D01*
X0198786Y0275124D01*
X0198681Y0275278D01*
X0198579Y0275434D01*
X0198481Y0275593D01*
X0198387Y0275754D01*
X0198297Y0275917D01*
X0198211Y0276083D01*
X0198130Y0276251D01*
X0198052Y0276420D01*
X0197979Y0276592D01*
X0197909Y0276765D01*
X0197844Y0276940D01*
X0197784Y0277116D01*
X0197727Y0277294D01*
X0197675Y0277473D01*
X0197628Y0277653D01*
X0197585Y0277835D01*
X0197546Y0278017D01*
X0197512Y0278201D01*
X0197482Y0278385D01*
X0197457Y0278570D01*
X0197437Y0278755D01*
X0197421Y0278941D01*
X0197409Y0279127D01*
X0197402Y0279313D01*
X0197400Y0279500D01*
X0334900Y0016250D02*
X0334902Y0016437D01*
X0334909Y0016623D01*
X0334921Y0016809D01*
X0334937Y0016995D01*
X0334957Y0017180D01*
X0334982Y0017365D01*
X0335012Y0017549D01*
X0335046Y0017733D01*
X0335085Y0017915D01*
X0335128Y0018097D01*
X0335175Y0018277D01*
X0335227Y0018456D01*
X0335284Y0018634D01*
X0335344Y0018810D01*
X0335409Y0018985D01*
X0335479Y0019158D01*
X0335552Y0019330D01*
X0335630Y0019499D01*
X0335711Y0019667D01*
X0335797Y0019833D01*
X0335887Y0019996D01*
X0335981Y0020157D01*
X0336079Y0020316D01*
X0336181Y0020472D01*
X0336286Y0020626D01*
X0336396Y0020777D01*
X0336509Y0020926D01*
X0336625Y0021071D01*
X0336745Y0021214D01*
X0336869Y0021354D01*
X0336996Y0021491D01*
X0337126Y0021624D01*
X0337259Y0021754D01*
X0337396Y0021881D01*
X0337536Y0022005D01*
X0337679Y0022125D01*
X0337824Y0022241D01*
X0337973Y0022354D01*
X0338124Y0022464D01*
X0338278Y0022569D01*
X0338434Y0022671D01*
X0338593Y0022769D01*
X0338754Y0022863D01*
X0338917Y0022953D01*
X0339083Y0023039D01*
X0339251Y0023120D01*
X0339420Y0023198D01*
X0339592Y0023271D01*
X0339765Y0023341D01*
X0339940Y0023406D01*
X0340116Y0023466D01*
X0340294Y0023523D01*
X0340473Y0023575D01*
X0340653Y0023622D01*
X0340835Y0023665D01*
X0341017Y0023704D01*
X0341201Y0023738D01*
X0341385Y0023768D01*
X0341570Y0023793D01*
X0341755Y0023813D01*
X0341941Y0023829D01*
X0342127Y0023841D01*
X0342313Y0023848D01*
X0342500Y0023850D01*
X0342687Y0023848D01*
X0342873Y0023841D01*
X0343059Y0023829D01*
X0343245Y0023813D01*
X0343430Y0023793D01*
X0343615Y0023768D01*
X0343799Y0023738D01*
X0343983Y0023704D01*
X0344165Y0023665D01*
X0344347Y0023622D01*
X0344527Y0023575D01*
X0344706Y0023523D01*
X0344884Y0023466D01*
X0345060Y0023406D01*
X0345235Y0023341D01*
X0345408Y0023271D01*
X0345580Y0023198D01*
X0345749Y0023120D01*
X0345917Y0023039D01*
X0346083Y0022953D01*
X0346246Y0022863D01*
X0346407Y0022769D01*
X0346566Y0022671D01*
X0346722Y0022569D01*
X0346876Y0022464D01*
X0347027Y0022354D01*
X0347176Y0022241D01*
X0347321Y0022125D01*
X0347464Y0022005D01*
X0347604Y0021881D01*
X0347741Y0021754D01*
X0347874Y0021624D01*
X0348004Y0021491D01*
X0348131Y0021354D01*
X0348255Y0021214D01*
X0348375Y0021071D01*
X0348491Y0020926D01*
X0348604Y0020777D01*
X0348714Y0020626D01*
X0348819Y0020472D01*
X0348921Y0020316D01*
X0349019Y0020157D01*
X0349113Y0019996D01*
X0349203Y0019833D01*
X0349289Y0019667D01*
X0349370Y0019499D01*
X0349448Y0019330D01*
X0349521Y0019158D01*
X0349591Y0018985D01*
X0349656Y0018810D01*
X0349716Y0018634D01*
X0349773Y0018456D01*
X0349825Y0018277D01*
X0349872Y0018097D01*
X0349915Y0017915D01*
X0349954Y0017733D01*
X0349988Y0017549D01*
X0350018Y0017365D01*
X0350043Y0017180D01*
X0350063Y0016995D01*
X0350079Y0016809D01*
X0350091Y0016623D01*
X0350098Y0016437D01*
X0350100Y0016250D01*
X0350098Y0016063D01*
X0350091Y0015877D01*
X0350079Y0015691D01*
X0350063Y0015505D01*
X0350043Y0015320D01*
X0350018Y0015135D01*
X0349988Y0014951D01*
X0349954Y0014767D01*
X0349915Y0014585D01*
X0349872Y0014403D01*
X0349825Y0014223D01*
X0349773Y0014044D01*
X0349716Y0013866D01*
X0349656Y0013690D01*
X0349591Y0013515D01*
X0349521Y0013342D01*
X0349448Y0013170D01*
X0349370Y0013001D01*
X0349289Y0012833D01*
X0349203Y0012667D01*
X0349113Y0012504D01*
X0349019Y0012343D01*
X0348921Y0012184D01*
X0348819Y0012028D01*
X0348714Y0011874D01*
X0348604Y0011723D01*
X0348491Y0011574D01*
X0348375Y0011429D01*
X0348255Y0011286D01*
X0348131Y0011146D01*
X0348004Y0011009D01*
X0347874Y0010876D01*
X0347741Y0010746D01*
X0347604Y0010619D01*
X0347464Y0010495D01*
X0347321Y0010375D01*
X0347176Y0010259D01*
X0347027Y0010146D01*
X0346876Y0010036D01*
X0346722Y0009931D01*
X0346566Y0009829D01*
X0346407Y0009731D01*
X0346246Y0009637D01*
X0346083Y0009547D01*
X0345917Y0009461D01*
X0345749Y0009380D01*
X0345580Y0009302D01*
X0345408Y0009229D01*
X0345235Y0009159D01*
X0345060Y0009094D01*
X0344884Y0009034D01*
X0344706Y0008977D01*
X0344527Y0008925D01*
X0344347Y0008878D01*
X0344165Y0008835D01*
X0343983Y0008796D01*
X0343799Y0008762D01*
X0343615Y0008732D01*
X0343430Y0008707D01*
X0343245Y0008687D01*
X0343059Y0008671D01*
X0342873Y0008659D01*
X0342687Y0008652D01*
X0342500Y0008650D01*
X0342313Y0008652D01*
X0342127Y0008659D01*
X0341941Y0008671D01*
X0341755Y0008687D01*
X0341570Y0008707D01*
X0341385Y0008732D01*
X0341201Y0008762D01*
X0341017Y0008796D01*
X0340835Y0008835D01*
X0340653Y0008878D01*
X0340473Y0008925D01*
X0340294Y0008977D01*
X0340116Y0009034D01*
X0339940Y0009094D01*
X0339765Y0009159D01*
X0339592Y0009229D01*
X0339420Y0009302D01*
X0339251Y0009380D01*
X0339083Y0009461D01*
X0338917Y0009547D01*
X0338754Y0009637D01*
X0338593Y0009731D01*
X0338434Y0009829D01*
X0338278Y0009931D01*
X0338124Y0010036D01*
X0337973Y0010146D01*
X0337824Y0010259D01*
X0337679Y0010375D01*
X0337536Y0010495D01*
X0337396Y0010619D01*
X0337259Y0010746D01*
X0337126Y0010876D01*
X0336996Y0011009D01*
X0336869Y0011146D01*
X0336745Y0011286D01*
X0336625Y0011429D01*
X0336509Y0011574D01*
X0336396Y0011723D01*
X0336286Y0011874D01*
X0336181Y0012028D01*
X0336079Y0012184D01*
X0335981Y0012343D01*
X0335887Y0012504D01*
X0335797Y0012667D01*
X0335711Y0012833D01*
X0335630Y0013001D01*
X0335552Y0013170D01*
X0335479Y0013342D01*
X0335409Y0013515D01*
X0335344Y0013690D01*
X0335284Y0013866D01*
X0335227Y0014044D01*
X0335175Y0014223D01*
X0335128Y0014403D01*
X0335085Y0014585D01*
X0335046Y0014767D01*
X0335012Y0014951D01*
X0334982Y0015135D01*
X0334957Y0015320D01*
X0334937Y0015505D01*
X0334921Y0015691D01*
X0334909Y0015877D01*
X0334902Y0016063D01*
X0334900Y0016250D01*
D11*
X0052875Y0092875D02*
X0022875Y0092875D01*
X0022875Y0132875D01*
X0052875Y0132875D01*
X0052875Y0092875D01*
D12*
X0000000Y0035500D02*
X0000000Y0197500D01*
X0012500Y0197500D01*
X0012500Y0229500D01*
X0182500Y0292500D01*
X0273140Y0292500D01*
X0335000Y0230640D01*
X0335000Y0079220D01*
X0360000Y0079220D01*
X0360000Y0000000D01*
X0047500Y0000000D01*
X0000000Y0035500D01*
M02*
