G75*
%MOIN*%
%OFA0B0*%
%FSLAX25Y25*%
%IPPOS*%
%LPD*%
%AMOC8*
5,1,8,0,0,1.08239X$1,22.5*
%
%ADD10C,0.15800*%
%ADD11OC8,0.06702*%
%ADD12C,0.08600*%
%ADD13C,0.04600*%
%ADD14R,0.04537X0.04537*%
%ADD15R,0.04537X0.04931*%
%ADD16C,0.10000*%
%ADD17C,0.01346*%
%ADD18C,0.01897*%
%ADD19C,0.04537*%
%ADD20R,0.04559X0.04559*%
%ADD21R,0.10443X0.06210*%
%ADD22C,0.03356*%
%ADD23R,0.10246X0.05718*%
%ADD24R,0.03356X0.07785*%
%ADD25R,0.06348X0.08474*%
%ADD26C,0.03159*%
%ADD27R,0.07490X0.02175*%
%ADD28R,0.21600X0.08200*%
%ADD29R,0.04537X0.01584*%
%ADD30R,0.04143X0.10836*%
%ADD31R,0.05324X0.03750*%
%ADD32R,0.04931X0.04537*%
%ADD33R,0.08474X0.05324*%
%ADD34R,0.01584X0.04537*%
%ADD35R,0.10836X0.04143*%
%ADD36R,0.03750X0.05324*%
%ADD37R,0.05324X0.08474*%
%ADD38R,0.04537X0.18710*%
%ADD39R,0.06899X0.13986*%
%ADD40R,0.07096X0.07096*%
%ADD41R,0.06624X0.06624*%
%ADD42R,0.05324X0.02765*%
%ADD43R,0.12411X0.05324*%
%ADD44R,0.04537X0.04537*%
%ADD45R,0.04537X0.05324*%
%ADD46R,0.05324X0.04537*%
%ADD47R,0.04537X0.06112*%
%ADD48R,0.11506X0.10639*%
%ADD49R,0.05324X0.07293*%
%ADD50R,0.02569X0.04537*%
%ADD51R,0.05915X0.05915*%
%ADD52R,0.08572X0.08572*%
%ADD53R,0.06112X0.01466*%
%ADD54R,0.07096X0.10443*%
%ADD55R,0.06899X0.07687*%
%ADD56R,0.04143X0.03356*%
%ADD57R,0.07687X0.07687*%
%ADD58R,0.06506X0.03750*%
%ADD59R,0.03750X0.06506*%
%ADD60R,0.04362X0.04362*%
%ADD61R,0.03969X0.03969*%
%ADD62C,0.04362*%
D10*
X0047500Y0020000D03*
X0037402Y0157480D03*
X0097500Y0240000D03*
X0205000Y0279500D03*
X0342500Y0016250D03*
D11*
X0173898Y0053780D03*
X0173898Y0063780D03*
X0173898Y0073780D03*
X0163898Y0073780D03*
X0163898Y0063780D03*
X0163898Y0053780D03*
D12*
X0009527Y0149685D02*
X0009529Y0149773D01*
X0009535Y0149861D01*
X0009545Y0149949D01*
X0009559Y0150037D01*
X0009576Y0150123D01*
X0009598Y0150209D01*
X0009623Y0150293D01*
X0009653Y0150377D01*
X0009685Y0150459D01*
X0009722Y0150539D01*
X0009762Y0150618D01*
X0009806Y0150695D01*
X0009853Y0150770D01*
X0009903Y0150842D01*
X0009957Y0150913D01*
X0010013Y0150980D01*
X0010073Y0151046D01*
X0010135Y0151108D01*
X0010201Y0151168D01*
X0010268Y0151224D01*
X0010339Y0151278D01*
X0010411Y0151328D01*
X0010486Y0151375D01*
X0010563Y0151419D01*
X0010642Y0151459D01*
X0010722Y0151496D01*
X0010804Y0151528D01*
X0010888Y0151558D01*
X0010972Y0151583D01*
X0011058Y0151605D01*
X0011144Y0151622D01*
X0011232Y0151636D01*
X0011320Y0151646D01*
X0011408Y0151652D01*
X0011496Y0151654D01*
X0011584Y0151652D01*
X0011672Y0151646D01*
X0011760Y0151636D01*
X0011848Y0151622D01*
X0011934Y0151605D01*
X0012020Y0151583D01*
X0012104Y0151558D01*
X0012188Y0151528D01*
X0012270Y0151496D01*
X0012350Y0151459D01*
X0012429Y0151419D01*
X0012506Y0151375D01*
X0012581Y0151328D01*
X0012653Y0151278D01*
X0012724Y0151224D01*
X0012791Y0151168D01*
X0012857Y0151108D01*
X0012919Y0151046D01*
X0012979Y0150980D01*
X0013035Y0150913D01*
X0013089Y0150842D01*
X0013139Y0150770D01*
X0013186Y0150695D01*
X0013230Y0150618D01*
X0013270Y0150539D01*
X0013307Y0150459D01*
X0013339Y0150377D01*
X0013369Y0150293D01*
X0013394Y0150209D01*
X0013416Y0150123D01*
X0013433Y0150037D01*
X0013447Y0149949D01*
X0013457Y0149861D01*
X0013463Y0149773D01*
X0013465Y0149685D01*
X0013463Y0149597D01*
X0013457Y0149509D01*
X0013447Y0149421D01*
X0013433Y0149333D01*
X0013416Y0149247D01*
X0013394Y0149161D01*
X0013369Y0149077D01*
X0013339Y0148993D01*
X0013307Y0148911D01*
X0013270Y0148831D01*
X0013230Y0148752D01*
X0013186Y0148675D01*
X0013139Y0148600D01*
X0013089Y0148528D01*
X0013035Y0148457D01*
X0012979Y0148390D01*
X0012919Y0148324D01*
X0012857Y0148262D01*
X0012791Y0148202D01*
X0012724Y0148146D01*
X0012653Y0148092D01*
X0012581Y0148042D01*
X0012506Y0147995D01*
X0012429Y0147951D01*
X0012350Y0147911D01*
X0012270Y0147874D01*
X0012188Y0147842D01*
X0012104Y0147812D01*
X0012020Y0147787D01*
X0011934Y0147765D01*
X0011848Y0147748D01*
X0011760Y0147734D01*
X0011672Y0147724D01*
X0011584Y0147718D01*
X0011496Y0147716D01*
X0011408Y0147718D01*
X0011320Y0147724D01*
X0011232Y0147734D01*
X0011144Y0147748D01*
X0011058Y0147765D01*
X0010972Y0147787D01*
X0010888Y0147812D01*
X0010804Y0147842D01*
X0010722Y0147874D01*
X0010642Y0147911D01*
X0010563Y0147951D01*
X0010486Y0147995D01*
X0010411Y0148042D01*
X0010339Y0148092D01*
X0010268Y0148146D01*
X0010201Y0148202D01*
X0010135Y0148262D01*
X0010073Y0148324D01*
X0010013Y0148390D01*
X0009957Y0148457D01*
X0009903Y0148528D01*
X0009853Y0148600D01*
X0009806Y0148675D01*
X0009762Y0148752D01*
X0009722Y0148831D01*
X0009685Y0148911D01*
X0009653Y0148993D01*
X0009623Y0149077D01*
X0009598Y0149161D01*
X0009576Y0149247D01*
X0009559Y0149333D01*
X0009545Y0149421D01*
X0009535Y0149509D01*
X0009529Y0149597D01*
X0009527Y0149685D01*
X0279133Y0254488D02*
X0279135Y0254576D01*
X0279141Y0254664D01*
X0279151Y0254752D01*
X0279165Y0254840D01*
X0279182Y0254926D01*
X0279204Y0255012D01*
X0279229Y0255096D01*
X0279259Y0255180D01*
X0279291Y0255262D01*
X0279328Y0255342D01*
X0279368Y0255421D01*
X0279412Y0255498D01*
X0279459Y0255573D01*
X0279509Y0255645D01*
X0279563Y0255716D01*
X0279619Y0255783D01*
X0279679Y0255849D01*
X0279741Y0255911D01*
X0279807Y0255971D01*
X0279874Y0256027D01*
X0279945Y0256081D01*
X0280017Y0256131D01*
X0280092Y0256178D01*
X0280169Y0256222D01*
X0280248Y0256262D01*
X0280328Y0256299D01*
X0280410Y0256331D01*
X0280494Y0256361D01*
X0280578Y0256386D01*
X0280664Y0256408D01*
X0280750Y0256425D01*
X0280838Y0256439D01*
X0280926Y0256449D01*
X0281014Y0256455D01*
X0281102Y0256457D01*
X0281190Y0256455D01*
X0281278Y0256449D01*
X0281366Y0256439D01*
X0281454Y0256425D01*
X0281540Y0256408D01*
X0281626Y0256386D01*
X0281710Y0256361D01*
X0281794Y0256331D01*
X0281876Y0256299D01*
X0281956Y0256262D01*
X0282035Y0256222D01*
X0282112Y0256178D01*
X0282187Y0256131D01*
X0282259Y0256081D01*
X0282330Y0256027D01*
X0282397Y0255971D01*
X0282463Y0255911D01*
X0282525Y0255849D01*
X0282585Y0255783D01*
X0282641Y0255716D01*
X0282695Y0255645D01*
X0282745Y0255573D01*
X0282792Y0255498D01*
X0282836Y0255421D01*
X0282876Y0255342D01*
X0282913Y0255262D01*
X0282945Y0255180D01*
X0282975Y0255096D01*
X0283000Y0255012D01*
X0283022Y0254926D01*
X0283039Y0254840D01*
X0283053Y0254752D01*
X0283063Y0254664D01*
X0283069Y0254576D01*
X0283071Y0254488D01*
X0283069Y0254400D01*
X0283063Y0254312D01*
X0283053Y0254224D01*
X0283039Y0254136D01*
X0283022Y0254050D01*
X0283000Y0253964D01*
X0282975Y0253880D01*
X0282945Y0253796D01*
X0282913Y0253714D01*
X0282876Y0253634D01*
X0282836Y0253555D01*
X0282792Y0253478D01*
X0282745Y0253403D01*
X0282695Y0253331D01*
X0282641Y0253260D01*
X0282585Y0253193D01*
X0282525Y0253127D01*
X0282463Y0253065D01*
X0282397Y0253005D01*
X0282330Y0252949D01*
X0282259Y0252895D01*
X0282187Y0252845D01*
X0282112Y0252798D01*
X0282035Y0252754D01*
X0281956Y0252714D01*
X0281876Y0252677D01*
X0281794Y0252645D01*
X0281710Y0252615D01*
X0281626Y0252590D01*
X0281540Y0252568D01*
X0281454Y0252551D01*
X0281366Y0252537D01*
X0281278Y0252527D01*
X0281190Y0252521D01*
X0281102Y0252519D01*
X0281014Y0252521D01*
X0280926Y0252527D01*
X0280838Y0252537D01*
X0280750Y0252551D01*
X0280664Y0252568D01*
X0280578Y0252590D01*
X0280494Y0252615D01*
X0280410Y0252645D01*
X0280328Y0252677D01*
X0280248Y0252714D01*
X0280169Y0252754D01*
X0280092Y0252798D01*
X0280017Y0252845D01*
X0279945Y0252895D01*
X0279874Y0252949D01*
X0279807Y0253005D01*
X0279741Y0253065D01*
X0279679Y0253127D01*
X0279619Y0253193D01*
X0279563Y0253260D01*
X0279509Y0253331D01*
X0279459Y0253403D01*
X0279412Y0253478D01*
X0279368Y0253555D01*
X0279328Y0253634D01*
X0279291Y0253714D01*
X0279259Y0253796D01*
X0279229Y0253880D01*
X0279204Y0253964D01*
X0279182Y0254050D01*
X0279165Y0254136D01*
X0279151Y0254224D01*
X0279141Y0254312D01*
X0279135Y0254400D01*
X0279133Y0254488D01*
X0341574Y0057953D02*
X0341576Y0058041D01*
X0341582Y0058129D01*
X0341592Y0058217D01*
X0341606Y0058305D01*
X0341623Y0058391D01*
X0341645Y0058477D01*
X0341670Y0058561D01*
X0341700Y0058645D01*
X0341732Y0058727D01*
X0341769Y0058807D01*
X0341809Y0058886D01*
X0341853Y0058963D01*
X0341900Y0059038D01*
X0341950Y0059110D01*
X0342004Y0059181D01*
X0342060Y0059248D01*
X0342120Y0059314D01*
X0342182Y0059376D01*
X0342248Y0059436D01*
X0342315Y0059492D01*
X0342386Y0059546D01*
X0342458Y0059596D01*
X0342533Y0059643D01*
X0342610Y0059687D01*
X0342689Y0059727D01*
X0342769Y0059764D01*
X0342851Y0059796D01*
X0342935Y0059826D01*
X0343019Y0059851D01*
X0343105Y0059873D01*
X0343191Y0059890D01*
X0343279Y0059904D01*
X0343367Y0059914D01*
X0343455Y0059920D01*
X0343543Y0059922D01*
X0343631Y0059920D01*
X0343719Y0059914D01*
X0343807Y0059904D01*
X0343895Y0059890D01*
X0343981Y0059873D01*
X0344067Y0059851D01*
X0344151Y0059826D01*
X0344235Y0059796D01*
X0344317Y0059764D01*
X0344397Y0059727D01*
X0344476Y0059687D01*
X0344553Y0059643D01*
X0344628Y0059596D01*
X0344700Y0059546D01*
X0344771Y0059492D01*
X0344838Y0059436D01*
X0344904Y0059376D01*
X0344966Y0059314D01*
X0345026Y0059248D01*
X0345082Y0059181D01*
X0345136Y0059110D01*
X0345186Y0059038D01*
X0345233Y0058963D01*
X0345277Y0058886D01*
X0345317Y0058807D01*
X0345354Y0058727D01*
X0345386Y0058645D01*
X0345416Y0058561D01*
X0345441Y0058477D01*
X0345463Y0058391D01*
X0345480Y0058305D01*
X0345494Y0058217D01*
X0345504Y0058129D01*
X0345510Y0058041D01*
X0345512Y0057953D01*
X0345510Y0057865D01*
X0345504Y0057777D01*
X0345494Y0057689D01*
X0345480Y0057601D01*
X0345463Y0057515D01*
X0345441Y0057429D01*
X0345416Y0057345D01*
X0345386Y0057261D01*
X0345354Y0057179D01*
X0345317Y0057099D01*
X0345277Y0057020D01*
X0345233Y0056943D01*
X0345186Y0056868D01*
X0345136Y0056796D01*
X0345082Y0056725D01*
X0345026Y0056658D01*
X0344966Y0056592D01*
X0344904Y0056530D01*
X0344838Y0056470D01*
X0344771Y0056414D01*
X0344700Y0056360D01*
X0344628Y0056310D01*
X0344553Y0056263D01*
X0344476Y0056219D01*
X0344397Y0056179D01*
X0344317Y0056142D01*
X0344235Y0056110D01*
X0344151Y0056080D01*
X0344067Y0056055D01*
X0343981Y0056033D01*
X0343895Y0056016D01*
X0343807Y0056002D01*
X0343719Y0055992D01*
X0343631Y0055986D01*
X0343543Y0055984D01*
X0343455Y0055986D01*
X0343367Y0055992D01*
X0343279Y0056002D01*
X0343191Y0056016D01*
X0343105Y0056033D01*
X0343019Y0056055D01*
X0342935Y0056080D01*
X0342851Y0056110D01*
X0342769Y0056142D01*
X0342689Y0056179D01*
X0342610Y0056219D01*
X0342533Y0056263D01*
X0342458Y0056310D01*
X0342386Y0056360D01*
X0342315Y0056414D01*
X0342248Y0056470D01*
X0342182Y0056530D01*
X0342120Y0056592D01*
X0342060Y0056658D01*
X0342004Y0056725D01*
X0341950Y0056796D01*
X0341900Y0056868D01*
X0341853Y0056943D01*
X0341809Y0057020D01*
X0341769Y0057099D01*
X0341732Y0057179D01*
X0341700Y0057261D01*
X0341670Y0057345D01*
X0341645Y0057429D01*
X0341623Y0057515D01*
X0341606Y0057601D01*
X0341592Y0057689D01*
X0341582Y0057777D01*
X0341576Y0057865D01*
X0341574Y0057953D01*
D13*
X0343543Y0057953D03*
X0281102Y0254488D03*
X0011496Y0149685D03*
D14*
X0118110Y0147638D03*
X0118110Y0155512D03*
X0118110Y0163386D03*
X0118110Y0139764D03*
X0047244Y0059055D03*
X0039370Y0059055D03*
X0039370Y0051181D03*
X0039370Y0043307D03*
X0047244Y0043307D03*
X0047244Y0051181D03*
D15*
X0059055Y0073425D03*
X0059055Y0080118D03*
X0110236Y0044685D03*
X0110236Y0037992D03*
X0122047Y0043898D03*
X0122047Y0050591D03*
X0112205Y0063583D03*
X0112205Y0070276D03*
X0107795Y0014843D03*
X0107795Y0008150D03*
X0198031Y0047835D03*
X0198031Y0054528D03*
X0216142Y0056496D03*
X0216142Y0049803D03*
X0277559Y0071457D03*
X0277559Y0078150D03*
X0259843Y0112795D03*
X0259843Y0119488D03*
X0273622Y0118701D03*
X0273622Y0125394D03*
X0209449Y0125394D03*
X0209449Y0118701D03*
X0185039Y0109646D03*
X0185039Y0102953D03*
X0125984Y0140354D03*
X0125984Y0147047D03*
X0125984Y0156102D03*
X0125984Y0162795D03*
X0114173Y0183661D03*
X0114173Y0190354D03*
X0124016Y0187598D03*
X0124016Y0194291D03*
X0120079Y0223031D03*
X0120079Y0229724D03*
X0064961Y0217913D03*
X0064961Y0211220D03*
X0049213Y0223031D03*
X0049213Y0229724D03*
X0204724Y0219882D03*
X0204724Y0213189D03*
X0212598Y0196260D03*
X0212598Y0189567D03*
X0232283Y0236811D03*
X0232283Y0243504D03*
X0238189Y0272244D03*
X0238189Y0278937D03*
D16*
X0233760Y0090512D02*
X0233762Y0090611D01*
X0233768Y0090711D01*
X0233778Y0090810D01*
X0233792Y0090908D01*
X0233809Y0091006D01*
X0233831Y0091103D01*
X0233856Y0091199D01*
X0233885Y0091294D01*
X0233918Y0091388D01*
X0233955Y0091480D01*
X0233995Y0091571D01*
X0234039Y0091660D01*
X0234087Y0091748D01*
X0234138Y0091833D01*
X0234192Y0091916D01*
X0234249Y0091998D01*
X0234310Y0092076D01*
X0234374Y0092153D01*
X0234440Y0092226D01*
X0234510Y0092297D01*
X0234582Y0092365D01*
X0234657Y0092431D01*
X0234735Y0092493D01*
X0234815Y0092552D01*
X0234897Y0092608D01*
X0234981Y0092660D01*
X0235068Y0092709D01*
X0235156Y0092755D01*
X0235246Y0092797D01*
X0235338Y0092836D01*
X0235431Y0092871D01*
X0235525Y0092902D01*
X0235621Y0092929D01*
X0235718Y0092952D01*
X0235815Y0092972D01*
X0235913Y0092988D01*
X0236012Y0093000D01*
X0236111Y0093008D01*
X0236210Y0093012D01*
X0236310Y0093012D01*
X0236409Y0093008D01*
X0236508Y0093000D01*
X0236607Y0092988D01*
X0236705Y0092972D01*
X0236802Y0092952D01*
X0236899Y0092929D01*
X0236995Y0092902D01*
X0237089Y0092871D01*
X0237182Y0092836D01*
X0237274Y0092797D01*
X0237364Y0092755D01*
X0237452Y0092709D01*
X0237539Y0092660D01*
X0237623Y0092608D01*
X0237705Y0092552D01*
X0237785Y0092493D01*
X0237863Y0092431D01*
X0237938Y0092365D01*
X0238010Y0092297D01*
X0238080Y0092226D01*
X0238146Y0092153D01*
X0238210Y0092076D01*
X0238271Y0091998D01*
X0238328Y0091916D01*
X0238382Y0091833D01*
X0238433Y0091748D01*
X0238481Y0091660D01*
X0238525Y0091571D01*
X0238565Y0091480D01*
X0238602Y0091388D01*
X0238635Y0091294D01*
X0238664Y0091199D01*
X0238689Y0091103D01*
X0238711Y0091006D01*
X0238728Y0090908D01*
X0238742Y0090810D01*
X0238752Y0090711D01*
X0238758Y0090611D01*
X0238760Y0090512D01*
X0238758Y0090413D01*
X0238752Y0090313D01*
X0238742Y0090214D01*
X0238728Y0090116D01*
X0238711Y0090018D01*
X0238689Y0089921D01*
X0238664Y0089825D01*
X0238635Y0089730D01*
X0238602Y0089636D01*
X0238565Y0089544D01*
X0238525Y0089453D01*
X0238481Y0089364D01*
X0238433Y0089276D01*
X0238382Y0089191D01*
X0238328Y0089108D01*
X0238271Y0089026D01*
X0238210Y0088948D01*
X0238146Y0088871D01*
X0238080Y0088798D01*
X0238010Y0088727D01*
X0237938Y0088659D01*
X0237863Y0088593D01*
X0237785Y0088531D01*
X0237705Y0088472D01*
X0237623Y0088416D01*
X0237539Y0088364D01*
X0237452Y0088315D01*
X0237364Y0088269D01*
X0237274Y0088227D01*
X0237182Y0088188D01*
X0237089Y0088153D01*
X0236995Y0088122D01*
X0236899Y0088095D01*
X0236802Y0088072D01*
X0236705Y0088052D01*
X0236607Y0088036D01*
X0236508Y0088024D01*
X0236409Y0088016D01*
X0236310Y0088012D01*
X0236210Y0088012D01*
X0236111Y0088016D01*
X0236012Y0088024D01*
X0235913Y0088036D01*
X0235815Y0088052D01*
X0235718Y0088072D01*
X0235621Y0088095D01*
X0235525Y0088122D01*
X0235431Y0088153D01*
X0235338Y0088188D01*
X0235246Y0088227D01*
X0235156Y0088269D01*
X0235068Y0088315D01*
X0234981Y0088364D01*
X0234897Y0088416D01*
X0234815Y0088472D01*
X0234735Y0088531D01*
X0234657Y0088593D01*
X0234582Y0088659D01*
X0234510Y0088727D01*
X0234440Y0088798D01*
X0234374Y0088871D01*
X0234310Y0088948D01*
X0234249Y0089026D01*
X0234192Y0089108D01*
X0234138Y0089191D01*
X0234087Y0089276D01*
X0234039Y0089364D01*
X0233995Y0089453D01*
X0233955Y0089544D01*
X0233918Y0089636D01*
X0233885Y0089730D01*
X0233856Y0089825D01*
X0233831Y0089921D01*
X0233809Y0090018D01*
X0233792Y0090116D01*
X0233778Y0090214D01*
X0233768Y0090313D01*
X0233762Y0090413D01*
X0233760Y0090512D01*
D17*
X0224469Y0090344D02*
X0222263Y0090344D01*
X0222263Y0090680D01*
X0224469Y0090680D01*
X0224469Y0090344D01*
X0224469Y0088375D02*
X0222263Y0088375D01*
X0222263Y0088711D01*
X0224469Y0088711D01*
X0224469Y0088375D01*
X0224469Y0086407D02*
X0222263Y0086407D01*
X0222263Y0086743D01*
X0224469Y0086743D01*
X0224469Y0086407D01*
X0224469Y0084438D02*
X0222263Y0084438D01*
X0222263Y0084774D01*
X0224469Y0084774D01*
X0224469Y0084438D01*
X0224469Y0082470D02*
X0222263Y0082470D01*
X0222263Y0082806D01*
X0224469Y0082806D01*
X0224469Y0082470D01*
X0224469Y0080501D02*
X0222263Y0080501D01*
X0222263Y0080837D01*
X0224469Y0080837D01*
X0224469Y0080501D01*
X0226585Y0078721D02*
X0226585Y0076515D01*
X0226249Y0076515D01*
X0226249Y0078721D01*
X0226585Y0078721D01*
X0226585Y0077860D02*
X0226249Y0077860D01*
X0228554Y0078721D02*
X0228554Y0076515D01*
X0228218Y0076515D01*
X0228218Y0078721D01*
X0228554Y0078721D01*
X0228554Y0077860D02*
X0228218Y0077860D01*
X0230522Y0078721D02*
X0230522Y0076515D01*
X0230186Y0076515D01*
X0230186Y0078721D01*
X0230522Y0078721D01*
X0230522Y0077860D02*
X0230186Y0077860D01*
X0232491Y0078721D02*
X0232491Y0076515D01*
X0232155Y0076515D01*
X0232155Y0078721D01*
X0232491Y0078721D01*
X0232491Y0077860D02*
X0232155Y0077860D01*
X0234459Y0078721D02*
X0234459Y0076515D01*
X0234123Y0076515D01*
X0234123Y0078721D01*
X0234459Y0078721D01*
X0234459Y0077860D02*
X0234123Y0077860D01*
X0236428Y0078721D02*
X0236428Y0076515D01*
X0236092Y0076515D01*
X0236092Y0078721D01*
X0236428Y0078721D01*
X0236428Y0077860D02*
X0236092Y0077860D01*
X0238396Y0078721D02*
X0238396Y0076515D01*
X0238060Y0076515D01*
X0238060Y0078721D01*
X0238396Y0078721D01*
X0238396Y0077860D02*
X0238060Y0077860D01*
X0240365Y0078721D02*
X0240365Y0076515D01*
X0240029Y0076515D01*
X0240029Y0078721D01*
X0240365Y0078721D01*
X0240365Y0077860D02*
X0240029Y0077860D01*
X0242333Y0078721D02*
X0242333Y0076515D01*
X0241997Y0076515D01*
X0241997Y0078721D01*
X0242333Y0078721D01*
X0242333Y0077860D02*
X0241997Y0077860D01*
X0244302Y0078721D02*
X0244302Y0076515D01*
X0243966Y0076515D01*
X0243966Y0078721D01*
X0244302Y0078721D01*
X0244302Y0077860D02*
X0243966Y0077860D01*
X0246270Y0078721D02*
X0246270Y0076515D01*
X0245934Y0076515D01*
X0245934Y0078721D01*
X0246270Y0078721D01*
X0246270Y0077860D02*
X0245934Y0077860D01*
X0248051Y0080837D02*
X0250257Y0080837D01*
X0250257Y0080501D01*
X0248051Y0080501D01*
X0248051Y0080837D01*
X0248051Y0082806D02*
X0250257Y0082806D01*
X0250257Y0082470D01*
X0248051Y0082470D01*
X0248051Y0082806D01*
X0248051Y0084774D02*
X0250257Y0084774D01*
X0250257Y0084438D01*
X0248051Y0084438D01*
X0248051Y0084774D01*
X0248051Y0086743D02*
X0250257Y0086743D01*
X0250257Y0086407D01*
X0248051Y0086407D01*
X0248051Y0086743D01*
X0248051Y0088711D02*
X0250257Y0088711D01*
X0250257Y0088375D01*
X0248051Y0088375D01*
X0248051Y0088711D01*
X0248051Y0090680D02*
X0250257Y0090680D01*
X0250257Y0090344D01*
X0248051Y0090344D01*
X0248051Y0090680D01*
X0248051Y0092648D02*
X0250257Y0092648D01*
X0250257Y0092312D01*
X0248051Y0092312D01*
X0248051Y0092648D01*
X0248051Y0094617D02*
X0250257Y0094617D01*
X0250257Y0094281D01*
X0248051Y0094281D01*
X0248051Y0094617D01*
X0248051Y0096585D02*
X0250257Y0096585D01*
X0250257Y0096249D01*
X0248051Y0096249D01*
X0248051Y0096585D01*
X0248051Y0098554D02*
X0250257Y0098554D01*
X0250257Y0098218D01*
X0248051Y0098218D01*
X0248051Y0098554D01*
X0248051Y0100522D02*
X0250257Y0100522D01*
X0250257Y0100186D01*
X0248051Y0100186D01*
X0248051Y0100522D01*
X0245934Y0102303D02*
X0245934Y0104509D01*
X0246270Y0104509D01*
X0246270Y0102303D01*
X0245934Y0102303D01*
X0245934Y0103648D02*
X0246270Y0103648D01*
X0243966Y0104509D02*
X0243966Y0102303D01*
X0243966Y0104509D02*
X0244302Y0104509D01*
X0244302Y0102303D01*
X0243966Y0102303D01*
X0243966Y0103648D02*
X0244302Y0103648D01*
X0241997Y0104509D02*
X0241997Y0102303D01*
X0241997Y0104509D02*
X0242333Y0104509D01*
X0242333Y0102303D01*
X0241997Y0102303D01*
X0241997Y0103648D02*
X0242333Y0103648D01*
X0240029Y0104509D02*
X0240029Y0102303D01*
X0240029Y0104509D02*
X0240365Y0104509D01*
X0240365Y0102303D01*
X0240029Y0102303D01*
X0240029Y0103648D02*
X0240365Y0103648D01*
X0238060Y0104509D02*
X0238060Y0102303D01*
X0238060Y0104509D02*
X0238396Y0104509D01*
X0238396Y0102303D01*
X0238060Y0102303D01*
X0238060Y0103648D02*
X0238396Y0103648D01*
X0236092Y0104509D02*
X0236092Y0102303D01*
X0236092Y0104509D02*
X0236428Y0104509D01*
X0236428Y0102303D01*
X0236092Y0102303D01*
X0236092Y0103648D02*
X0236428Y0103648D01*
X0234123Y0104509D02*
X0234123Y0102303D01*
X0234123Y0104509D02*
X0234459Y0104509D01*
X0234459Y0102303D01*
X0234123Y0102303D01*
X0234123Y0103648D02*
X0234459Y0103648D01*
X0232155Y0104509D02*
X0232155Y0102303D01*
X0232155Y0104509D02*
X0232491Y0104509D01*
X0232491Y0102303D01*
X0232155Y0102303D01*
X0232155Y0103648D02*
X0232491Y0103648D01*
X0230186Y0104509D02*
X0230186Y0102303D01*
X0230186Y0104509D02*
X0230522Y0104509D01*
X0230522Y0102303D01*
X0230186Y0102303D01*
X0230186Y0103648D02*
X0230522Y0103648D01*
X0228218Y0104509D02*
X0228218Y0102303D01*
X0228218Y0104509D02*
X0228554Y0104509D01*
X0228554Y0102303D01*
X0228218Y0102303D01*
X0228218Y0103648D02*
X0228554Y0103648D01*
X0226249Y0104509D02*
X0226249Y0102303D01*
X0226249Y0104509D02*
X0226585Y0104509D01*
X0226585Y0102303D01*
X0226249Y0102303D01*
X0226249Y0103648D02*
X0226585Y0103648D01*
X0224469Y0100186D02*
X0222263Y0100186D01*
X0222263Y0100522D01*
X0224469Y0100522D01*
X0224469Y0100186D01*
X0224469Y0098218D02*
X0222263Y0098218D01*
X0222263Y0098554D01*
X0224469Y0098554D01*
X0224469Y0098218D01*
X0224469Y0096249D02*
X0222263Y0096249D01*
X0222263Y0096585D01*
X0224469Y0096585D01*
X0224469Y0096249D01*
X0224469Y0094281D02*
X0222263Y0094281D01*
X0222263Y0094617D01*
X0224469Y0094617D01*
X0224469Y0094281D01*
X0224469Y0092312D02*
X0222263Y0092312D01*
X0222263Y0092648D01*
X0224469Y0092648D01*
X0224469Y0092312D01*
D18*
X0215533Y0093423D02*
X0211317Y0093423D01*
X0211317Y0093899D01*
X0215533Y0093899D01*
X0215533Y0093423D01*
X0215533Y0090274D02*
X0211317Y0090274D01*
X0211317Y0090750D01*
X0215533Y0090750D01*
X0215533Y0090274D01*
X0215533Y0087124D02*
X0211317Y0087124D01*
X0211317Y0087600D01*
X0215533Y0087600D01*
X0215533Y0087124D01*
X0215533Y0083975D02*
X0211317Y0083975D01*
X0211317Y0084451D01*
X0215533Y0084451D01*
X0215533Y0083975D01*
X0215533Y0080825D02*
X0211317Y0080825D01*
X0211317Y0081301D01*
X0215533Y0081301D01*
X0215533Y0080825D01*
X0215533Y0077675D02*
X0211317Y0077675D01*
X0211317Y0078151D01*
X0215533Y0078151D01*
X0215533Y0077675D01*
X0215533Y0074526D02*
X0211317Y0074526D01*
X0211317Y0075002D01*
X0215533Y0075002D01*
X0215533Y0074526D01*
X0220274Y0065569D02*
X0220750Y0065569D01*
X0220274Y0065569D02*
X0220274Y0069785D01*
X0220750Y0069785D01*
X0220750Y0065569D01*
X0220750Y0067465D02*
X0220274Y0067465D01*
X0220274Y0069361D02*
X0220750Y0069361D01*
X0223423Y0065569D02*
X0223899Y0065569D01*
X0223423Y0065569D02*
X0223423Y0069785D01*
X0223899Y0069785D01*
X0223899Y0065569D01*
X0223899Y0067465D02*
X0223423Y0067465D01*
X0223423Y0069361D02*
X0223899Y0069361D01*
X0226573Y0065569D02*
X0227049Y0065569D01*
X0226573Y0065569D02*
X0226573Y0069785D01*
X0227049Y0069785D01*
X0227049Y0065569D01*
X0227049Y0067465D02*
X0226573Y0067465D01*
X0226573Y0069361D02*
X0227049Y0069361D01*
X0229723Y0065569D02*
X0230199Y0065569D01*
X0229723Y0065569D02*
X0229723Y0069785D01*
X0230199Y0069785D01*
X0230199Y0065569D01*
X0230199Y0067465D02*
X0229723Y0067465D01*
X0229723Y0069361D02*
X0230199Y0069361D01*
X0232872Y0065569D02*
X0233348Y0065569D01*
X0232872Y0065569D02*
X0232872Y0069785D01*
X0233348Y0069785D01*
X0233348Y0065569D01*
X0233348Y0067465D02*
X0232872Y0067465D01*
X0232872Y0069361D02*
X0233348Y0069361D01*
X0236022Y0065569D02*
X0236498Y0065569D01*
X0236022Y0065569D02*
X0236022Y0069785D01*
X0236498Y0069785D01*
X0236498Y0065569D01*
X0236498Y0067465D02*
X0236022Y0067465D01*
X0236022Y0069361D02*
X0236498Y0069361D01*
X0239171Y0065569D02*
X0239647Y0065569D01*
X0239171Y0065569D02*
X0239171Y0069785D01*
X0239647Y0069785D01*
X0239647Y0065569D01*
X0239647Y0067465D02*
X0239171Y0067465D01*
X0239171Y0069361D02*
X0239647Y0069361D01*
X0242321Y0065569D02*
X0242797Y0065569D01*
X0242321Y0065569D02*
X0242321Y0069785D01*
X0242797Y0069785D01*
X0242797Y0065569D01*
X0242797Y0067465D02*
X0242321Y0067465D01*
X0242321Y0069361D02*
X0242797Y0069361D01*
X0245471Y0065569D02*
X0245947Y0065569D01*
X0245471Y0065569D02*
X0245471Y0069785D01*
X0245947Y0069785D01*
X0245947Y0065569D01*
X0245947Y0067465D02*
X0245471Y0067465D01*
X0245471Y0069361D02*
X0245947Y0069361D01*
X0248620Y0065569D02*
X0249096Y0065569D01*
X0248620Y0065569D02*
X0248620Y0069785D01*
X0249096Y0069785D01*
X0249096Y0065569D01*
X0249096Y0067465D02*
X0248620Y0067465D01*
X0248620Y0069361D02*
X0249096Y0069361D01*
X0251770Y0065569D02*
X0252246Y0065569D01*
X0251770Y0065569D02*
X0251770Y0069785D01*
X0252246Y0069785D01*
X0252246Y0065569D01*
X0252246Y0067465D02*
X0251770Y0067465D01*
X0251770Y0069361D02*
X0252246Y0069361D01*
X0256986Y0074526D02*
X0261202Y0074526D01*
X0256986Y0074526D02*
X0256986Y0075002D01*
X0261202Y0075002D01*
X0261202Y0074526D01*
X0261202Y0077675D02*
X0256986Y0077675D01*
X0256986Y0078151D01*
X0261202Y0078151D01*
X0261202Y0077675D01*
X0261202Y0080825D02*
X0256986Y0080825D01*
X0256986Y0081301D01*
X0261202Y0081301D01*
X0261202Y0080825D01*
X0261202Y0083975D02*
X0256986Y0083975D01*
X0256986Y0084451D01*
X0261202Y0084451D01*
X0261202Y0083975D01*
X0261202Y0087124D02*
X0256986Y0087124D01*
X0256986Y0087600D01*
X0261202Y0087600D01*
X0261202Y0087124D01*
X0261202Y0090274D02*
X0256986Y0090274D01*
X0256986Y0090750D01*
X0261202Y0090750D01*
X0261202Y0090274D01*
X0261202Y0093423D02*
X0256986Y0093423D01*
X0256986Y0093899D01*
X0261202Y0093899D01*
X0261202Y0093423D01*
X0261202Y0096573D02*
X0256986Y0096573D01*
X0256986Y0097049D01*
X0261202Y0097049D01*
X0261202Y0096573D01*
X0261202Y0099723D02*
X0256986Y0099723D01*
X0256986Y0100199D01*
X0261202Y0100199D01*
X0261202Y0099723D01*
X0261202Y0102872D02*
X0256986Y0102872D01*
X0256986Y0103348D01*
X0261202Y0103348D01*
X0261202Y0102872D01*
X0261202Y0106022D02*
X0256986Y0106022D01*
X0256986Y0106498D01*
X0261202Y0106498D01*
X0261202Y0106022D01*
X0252246Y0111238D02*
X0251770Y0111238D01*
X0251770Y0115454D01*
X0252246Y0115454D01*
X0252246Y0111238D01*
X0252246Y0113134D02*
X0251770Y0113134D01*
X0251770Y0115030D02*
X0252246Y0115030D01*
X0249096Y0111238D02*
X0248620Y0111238D01*
X0248620Y0115454D01*
X0249096Y0115454D01*
X0249096Y0111238D01*
X0249096Y0113134D02*
X0248620Y0113134D01*
X0248620Y0115030D02*
X0249096Y0115030D01*
X0245947Y0111238D02*
X0245471Y0111238D01*
X0245471Y0115454D01*
X0245947Y0115454D01*
X0245947Y0111238D01*
X0245947Y0113134D02*
X0245471Y0113134D01*
X0245471Y0115030D02*
X0245947Y0115030D01*
X0242797Y0111238D02*
X0242321Y0111238D01*
X0242321Y0115454D01*
X0242797Y0115454D01*
X0242797Y0111238D01*
X0242797Y0113134D02*
X0242321Y0113134D01*
X0242321Y0115030D02*
X0242797Y0115030D01*
X0239647Y0111238D02*
X0239171Y0111238D01*
X0239171Y0115454D01*
X0239647Y0115454D01*
X0239647Y0111238D01*
X0239647Y0113134D02*
X0239171Y0113134D01*
X0239171Y0115030D02*
X0239647Y0115030D01*
X0236498Y0111238D02*
X0236022Y0111238D01*
X0236022Y0115454D01*
X0236498Y0115454D01*
X0236498Y0111238D01*
X0236498Y0113134D02*
X0236022Y0113134D01*
X0236022Y0115030D02*
X0236498Y0115030D01*
X0233348Y0111238D02*
X0232872Y0111238D01*
X0232872Y0115454D01*
X0233348Y0115454D01*
X0233348Y0111238D01*
X0233348Y0113134D02*
X0232872Y0113134D01*
X0232872Y0115030D02*
X0233348Y0115030D01*
X0230199Y0111238D02*
X0229723Y0111238D01*
X0229723Y0115454D01*
X0230199Y0115454D01*
X0230199Y0111238D01*
X0230199Y0113134D02*
X0229723Y0113134D01*
X0229723Y0115030D02*
X0230199Y0115030D01*
X0227049Y0111238D02*
X0226573Y0111238D01*
X0226573Y0115454D01*
X0227049Y0115454D01*
X0227049Y0111238D01*
X0227049Y0113134D02*
X0226573Y0113134D01*
X0226573Y0115030D02*
X0227049Y0115030D01*
X0223899Y0111238D02*
X0223423Y0111238D01*
X0223423Y0115454D01*
X0223899Y0115454D01*
X0223899Y0111238D01*
X0223899Y0113134D02*
X0223423Y0113134D01*
X0223423Y0115030D02*
X0223899Y0115030D01*
X0220750Y0111238D02*
X0220274Y0111238D01*
X0220274Y0115454D01*
X0220750Y0115454D01*
X0220750Y0111238D01*
X0220750Y0113134D02*
X0220274Y0113134D01*
X0220274Y0115030D02*
X0220750Y0115030D01*
X0215533Y0106022D02*
X0211317Y0106022D01*
X0211317Y0106498D01*
X0215533Y0106498D01*
X0215533Y0106022D01*
X0215533Y0102872D02*
X0211317Y0102872D01*
X0211317Y0103348D01*
X0215533Y0103348D01*
X0215533Y0102872D01*
X0215533Y0099723D02*
X0211317Y0099723D01*
X0211317Y0100199D01*
X0215533Y0100199D01*
X0215533Y0099723D01*
X0215533Y0096573D02*
X0211317Y0096573D01*
X0211317Y0097049D01*
X0215533Y0097049D01*
X0215533Y0096573D01*
D19*
X0236260Y0090512D03*
D20*
X0212264Y0246450D03*
X0202421Y0246450D03*
X0192579Y0246450D03*
X0182736Y0246450D03*
D21*
X0006811Y0184789D03*
X0006811Y0177211D03*
D22*
X0006811Y0170272D03*
X0008780Y0170272D03*
X0008780Y0191728D03*
X0006811Y0191728D03*
D23*
X0008287Y0191728D03*
X0008287Y0170272D03*
D24*
X0014488Y0169238D03*
X0014488Y0192762D03*
D25*
X0019724Y0192417D03*
X0019724Y0169583D03*
D26*
X0018937Y0171453D03*
X0020512Y0171453D03*
X0020512Y0190547D03*
X0018937Y0190547D03*
D27*
X0018917Y0186118D03*
X0018917Y0183559D03*
X0018917Y0181000D03*
X0018917Y0178441D03*
X0018917Y0175882D03*
D28*
X0215252Y0035433D03*
X0253252Y0035433D03*
D29*
X0091929Y0076772D03*
X0091929Y0078740D03*
X0091929Y0080709D03*
X0091929Y0082677D03*
X0091929Y0084646D03*
X0081299Y0084646D03*
X0081299Y0082677D03*
X0081299Y0080709D03*
X0081299Y0078740D03*
X0081299Y0076772D03*
D30*
X0086614Y0080709D03*
D31*
X0080709Y0070472D03*
X0080709Y0063386D03*
X0080709Y0029134D03*
X0080709Y0022047D03*
X0072835Y0022047D03*
X0072835Y0029134D03*
X0102362Y0203150D03*
X0102362Y0210236D03*
X0116142Y0209055D03*
X0116142Y0216142D03*
D32*
X0064370Y0230315D03*
X0057677Y0230315D03*
X0197441Y0159449D03*
X0204134Y0159449D03*
X0226969Y0124016D03*
X0233661Y0124016D03*
X0200197Y0090551D03*
X0193504Y0090551D03*
X0230906Y0059843D03*
X0237598Y0059843D03*
X0238780Y0051181D03*
X0245472Y0051181D03*
X0229724Y0051181D03*
X0223031Y0051181D03*
X0311614Y0043307D03*
X0318307Y0043307D03*
X0129331Y0074409D03*
X0122638Y0074409D03*
X0122638Y0082677D03*
X0129331Y0082677D03*
X0105709Y0106299D03*
X0099016Y0106299D03*
X0112795Y0118110D03*
X0119488Y0118110D03*
X0070276Y0064961D03*
X0063583Y0064961D03*
G36*
X0061619Y0050259D02*
X0065104Y0053744D01*
X0068311Y0050537D01*
X0064826Y0047052D01*
X0061619Y0050259D01*
G37*
G36*
X0056886Y0045526D02*
X0060371Y0049011D01*
X0063578Y0045804D01*
X0060093Y0042319D01*
X0056886Y0045526D01*
G37*
X0081299Y0047244D03*
X0087992Y0047244D03*
D33*
X0070866Y0074409D03*
X0070866Y0087008D03*
D34*
X0088583Y0034843D03*
X0090551Y0034843D03*
X0092520Y0034843D03*
X0094488Y0034843D03*
X0096457Y0034843D03*
X0096457Y0024213D03*
X0094488Y0024213D03*
X0092520Y0024213D03*
X0090551Y0024213D03*
X0088583Y0024213D03*
D35*
X0092520Y0029528D03*
D36*
X0100787Y0023622D03*
X0107874Y0023622D03*
X0088189Y0090551D03*
X0081102Y0090551D03*
X0081102Y0096457D03*
X0088189Y0096457D03*
D37*
X0086220Y0013780D03*
X0098819Y0013780D03*
D38*
X0090551Y0119291D03*
X0082677Y0119291D03*
D39*
X0073228Y0139764D03*
X0100000Y0139764D03*
D40*
X0280591Y0026378D03*
X0290433Y0026378D03*
X0300276Y0026378D03*
X0310118Y0026378D03*
D41*
X0030000Y0212500D03*
X0030000Y0222500D03*
X0252500Y0278750D03*
X0262500Y0278750D03*
D42*
X0220020Y0181604D03*
X0209783Y0181604D03*
X0209783Y0177864D03*
X0209783Y0174124D03*
X0220020Y0174124D03*
X0216988Y0156585D03*
X0216988Y0149104D03*
X0227225Y0149104D03*
X0227225Y0152844D03*
X0227225Y0156585D03*
D43*
X0188484Y0036811D03*
X0188484Y0022244D03*
X0169783Y0022244D03*
X0169783Y0036811D03*
D44*
G36*
X0057057Y0055933D02*
X0060264Y0059140D01*
X0063471Y0055933D01*
X0060264Y0052726D01*
X0057057Y0055933D01*
G37*
G36*
X0051489Y0050366D02*
X0054696Y0053573D01*
X0057903Y0050366D01*
X0054696Y0047159D01*
X0051489Y0050366D01*
G37*
D45*
X0062992Y0149213D03*
X0062992Y0157874D03*
X0031496Y0188583D03*
X0031496Y0197244D03*
D46*
X0040945Y0078740D03*
X0049606Y0078740D03*
X0287008Y0078740D03*
X0295669Y0078740D03*
D47*
X0137598Y0051575D03*
X0130118Y0051575D03*
X0133858Y0042913D03*
D48*
X0144803Y0185039D03*
X0170157Y0185039D03*
D49*
X0132283Y0021654D03*
X0123622Y0021654D03*
D50*
X0126378Y0029331D03*
X0129528Y0029331D03*
D51*
X0137579Y0219037D03*
X0147421Y0219037D03*
X0147421Y0228880D03*
X0147421Y0238723D03*
X0137579Y0238723D03*
X0137579Y0228880D03*
D52*
X0134232Y0251321D03*
X0150768Y0206439D03*
D53*
X0087402Y0207087D03*
X0087402Y0208661D03*
X0087402Y0210236D03*
X0087402Y0211811D03*
X0087402Y0213386D03*
X0087402Y0205512D03*
X0087402Y0203937D03*
X0074016Y0203937D03*
X0074016Y0205512D03*
X0074016Y0207087D03*
X0074016Y0208661D03*
X0074016Y0210236D03*
X0074016Y0211811D03*
X0074016Y0213386D03*
D54*
X0080709Y0208661D03*
D55*
X0052756Y0192913D03*
X0041732Y0192913D03*
D56*
X0124016Y0202165D03*
X0124016Y0207283D03*
D57*
X0030709Y0077756D03*
X0030709Y0067913D03*
X0030709Y0058071D03*
X0030709Y0048228D03*
X0030709Y0038386D03*
X0011024Y0038386D03*
X0011024Y0048228D03*
X0011024Y0058071D03*
X0011024Y0067913D03*
X0011024Y0077756D03*
D58*
X0250984Y0193898D03*
X0250984Y0198622D03*
X0250984Y0203346D03*
X0250984Y0208071D03*
X0250984Y0212795D03*
X0250984Y0217520D03*
D59*
X0259843Y0227362D03*
X0264567Y0227362D03*
X0269291Y0227362D03*
X0274016Y0227362D03*
X0278740Y0227362D03*
X0283465Y0227362D03*
X0288189Y0227362D03*
X0292913Y0227362D03*
X0292913Y0184055D03*
X0288189Y0184055D03*
X0283465Y0184055D03*
X0278740Y0184055D03*
X0274016Y0184055D03*
X0269291Y0184055D03*
X0264567Y0184055D03*
X0259843Y0184055D03*
D60*
X0263000Y0169000D03*
X0253937Y0161417D03*
X0242126Y0161417D03*
X0231000Y0174000D03*
X0218504Y0167323D03*
X0202756Y0177165D03*
X0190945Y0169291D03*
X0171260Y0159449D03*
X0165354Y0143701D03*
X0153543Y0141732D03*
X0159449Y0118110D03*
X0175197Y0112205D03*
X0196850Y0124016D03*
X0208661Y0112205D03*
X0218504Y0124016D03*
X0233701Y0129528D03*
X0250000Y0129921D03*
X0251969Y0149606D03*
X0261811Y0151575D03*
X0273622Y0161417D03*
X0285433Y0141732D03*
X0299213Y0135827D03*
X0293307Y0110236D03*
X0285433Y0096457D03*
X0279528Y0090551D03*
X0273622Y0096457D03*
X0267717Y0108268D03*
X0267717Y0072835D03*
X0287402Y0057087D03*
X0279528Y0045276D03*
X0263780Y0053150D03*
X0224409Y0045276D03*
X0222441Y0057087D03*
X0212598Y0064961D03*
X0187008Y0057087D03*
X0188976Y0043307D03*
X0212598Y0019685D03*
X0222441Y0019685D03*
X0151575Y0045276D03*
X0147638Y0027559D03*
X0116142Y0041339D03*
X0110236Y0031496D03*
X0100394Y0035433D03*
X0096457Y0029528D03*
X0088583Y0029528D03*
X0080709Y0035433D03*
X0076772Y0041339D03*
X0088583Y0041339D03*
X0094488Y0055118D03*
X0104331Y0057087D03*
X0120079Y0066929D03*
X0104331Y0070866D03*
X0096457Y0068898D03*
X0086614Y0062992D03*
X0080709Y0055118D03*
X0061024Y0039370D03*
X0053150Y0041339D03*
X0086614Y0076772D03*
X0086614Y0084646D03*
X0098425Y0082677D03*
X0108268Y0082677D03*
X0116142Y0082677D03*
X0112205Y0090551D03*
X0104331Y0094488D03*
X0096457Y0094488D03*
X0096457Y0100394D03*
X0112205Y0106299D03*
X0122047Y0090551D03*
X0133858Y0090551D03*
X0159449Y0086614D03*
X0171260Y0088583D03*
X0187008Y0084646D03*
X0120079Y0125984D03*
X0118110Y0133858D03*
X0108268Y0139764D03*
X0100394Y0153543D03*
X0112205Y0159449D03*
X0127953Y0169291D03*
X0106299Y0183071D03*
X0098425Y0183071D03*
X0108268Y0190945D03*
X0118110Y0196850D03*
X0110236Y0202756D03*
X0108268Y0210630D03*
X0080709Y0218504D03*
X0078740Y0226378D03*
X0064961Y0224409D03*
X0057087Y0224409D03*
X0062992Y0238189D03*
X0045276Y0210630D03*
X0064961Y0204724D03*
X0072835Y0190945D03*
X0080709Y0190945D03*
X0080709Y0183071D03*
X0064961Y0169291D03*
X0064961Y0163386D03*
X0090551Y0133858D03*
X0067992Y0125953D03*
X0068898Y0094488D03*
X0074803Y0094488D03*
X0009843Y0088583D03*
X0009843Y0100394D03*
X0009843Y0114173D03*
X0009843Y0125984D03*
X0080709Y0198819D03*
X0175197Y0250000D03*
X0220472Y0248031D03*
X0236220Y0250000D03*
X0248031Y0246063D03*
X0268000Y0247000D03*
X0280000Y0242000D03*
X0287528Y0236535D03*
X0265748Y0202756D03*
X0238189Y0185039D03*
X0208661Y0204724D03*
X0187008Y0187008D03*
X0196850Y0151575D03*
X0208661Y0149606D03*
D61*
X0053000Y0073000D03*
D62*
X0096457Y0192913D03*
X0096457Y0198819D03*
X0096457Y0204724D03*
M02*
