G75*
%MOIN*%
%OFA0B0*%
%FSLAX25Y25*%
%IPPOS*%
%LPD*%
%AMOC8*
5,1,8,0,0,1.08239X$1,22.5*
%
%ADD10OC8,0.06102*%
%ADD11R,0.03959X0.03959*%
%ADD12R,0.06496X0.06496*%
%ADD13R,0.06024X0.06024*%
%ADD14R,0.05315X0.05315*%
%ADD15R,0.07972X0.07972*%
%ADD16R,0.07087X0.07087*%
%ADD17R,0.03762X0.03762*%
%ADD18C,0.01575*%
%ADD19C,0.03150*%
%ADD20C,0.01600*%
%ADD21C,0.01181*%
%ADD22R,0.03369X0.03369*%
%ADD23C,0.02400*%
%ADD24C,0.01200*%
%ADD25C,0.03762*%
%ADD26C,0.00787*%
D10*
X0163898Y0053780D03*
X0163898Y0063780D03*
X0163898Y0073780D03*
X0173898Y0073780D03*
X0173898Y0063780D03*
X0173898Y0053780D03*
D11*
X0182736Y0246450D03*
X0192579Y0246450D03*
X0202421Y0246450D03*
X0212264Y0246450D03*
D12*
X0280591Y0026378D03*
X0290433Y0026378D03*
X0300276Y0026378D03*
X0310118Y0026378D03*
D13*
X0030000Y0212500D03*
X0030000Y0222500D03*
X0252500Y0278750D03*
X0262500Y0278750D03*
D14*
X0147421Y0238723D03*
X0147421Y0228880D03*
X0137579Y0228880D03*
X0137579Y0238723D03*
X0137579Y0219037D03*
X0147421Y0219037D03*
D15*
X0150768Y0206439D03*
X0134232Y0251321D03*
D16*
X0030709Y0077756D03*
X0030709Y0067913D03*
X0030709Y0058071D03*
X0030709Y0048228D03*
X0030709Y0038386D03*
X0011024Y0038386D03*
X0011024Y0048228D03*
X0011024Y0058071D03*
X0011024Y0067913D03*
X0011024Y0077756D03*
D17*
X0009843Y0088583D03*
X0009843Y0100394D03*
X0009843Y0114173D03*
X0009843Y0125984D03*
X0064961Y0163386D03*
X0064961Y0169291D03*
X0080709Y0183071D03*
X0080709Y0190945D03*
X0072835Y0190945D03*
X0080709Y0198819D03*
X0064961Y0204724D03*
X0045276Y0210630D03*
X0057087Y0224409D03*
X0064961Y0224409D03*
X0078740Y0226378D03*
X0080709Y0218504D03*
X0062992Y0238189D03*
X0108268Y0210630D03*
X0110236Y0202756D03*
X0118110Y0196850D03*
X0108268Y0190945D03*
X0106299Y0183071D03*
X0098425Y0183071D03*
X0127953Y0169291D03*
X0112205Y0159449D03*
X0100394Y0153543D03*
X0108268Y0139764D03*
X0118110Y0133858D03*
X0120079Y0125984D03*
X0112205Y0106299D03*
X0104331Y0094488D03*
X0096457Y0094488D03*
X0096457Y0100394D03*
X0112205Y0090551D03*
X0116142Y0082677D03*
X0108268Y0082677D03*
X0098425Y0082677D03*
X0086614Y0084646D03*
X0086614Y0076772D03*
X0096457Y0068898D03*
X0104331Y0070866D03*
X0120079Y0066929D03*
X0104331Y0057087D03*
X0094488Y0055118D03*
X0086614Y0062992D03*
X0080709Y0055118D03*
X0076772Y0041339D03*
X0080709Y0035433D03*
X0088583Y0041339D03*
X0088583Y0029528D03*
X0096457Y0029528D03*
X0100394Y0035433D03*
X0110236Y0031496D03*
X0116142Y0041339D03*
X0147638Y0027559D03*
X0151575Y0045276D03*
X0187008Y0057087D03*
X0188976Y0043307D03*
X0212598Y0064961D03*
X0222441Y0057087D03*
X0224409Y0045276D03*
X0222441Y0019685D03*
X0212598Y0019685D03*
X0263780Y0053150D03*
X0279528Y0045276D03*
X0287402Y0057087D03*
X0267717Y0072835D03*
X0279528Y0090551D03*
X0285433Y0096457D03*
X0273622Y0096457D03*
X0267717Y0108268D03*
X0293307Y0110236D03*
X0299213Y0135827D03*
X0285433Y0141732D03*
X0273622Y0161417D03*
X0263000Y0169000D03*
X0253937Y0161417D03*
X0242126Y0161417D03*
X0231000Y0174000D03*
X0218504Y0167323D03*
X0202756Y0177165D03*
X0190945Y0169291D03*
X0171260Y0159449D03*
X0165354Y0143701D03*
X0153543Y0141732D03*
X0159449Y0118110D03*
X0175197Y0112205D03*
X0196850Y0124016D03*
X0208661Y0112205D03*
X0218504Y0124016D03*
X0233701Y0129528D03*
X0250000Y0129921D03*
X0251969Y0149606D03*
X0261811Y0151575D03*
X0238189Y0185039D03*
X0265748Y0202756D03*
X0287528Y0236535D03*
X0280000Y0242000D03*
X0268000Y0247000D03*
X0248031Y0246063D03*
X0236220Y0250000D03*
X0220472Y0248031D03*
X0175197Y0250000D03*
X0208661Y0204724D03*
X0187008Y0187008D03*
X0196850Y0151575D03*
X0208661Y0149606D03*
X0133858Y0090551D03*
X0122047Y0090551D03*
X0159449Y0086614D03*
X0171260Y0088583D03*
X0187008Y0084646D03*
X0090551Y0133858D03*
X0067992Y0125953D03*
X0068898Y0094488D03*
X0074803Y0094488D03*
X0061024Y0039370D03*
X0053150Y0041339D03*
D18*
X0043307Y0047244D02*
X0034449Y0038386D01*
X0030709Y0038386D01*
X0043307Y0047244D02*
X0125984Y0047244D01*
X0153543Y0074803D01*
X0153543Y0141732D01*
X0165354Y0143701D02*
X0165354Y0092520D01*
X0159449Y0086614D01*
X0173898Y0073780D02*
X0174843Y0072835D01*
X0183071Y0072835D01*
X0187008Y0068898D01*
X0187008Y0057087D01*
X0188976Y0055118D01*
X0188976Y0043307D01*
X0208661Y0044053D02*
X0220472Y0044053D01*
X0220472Y0045626D02*
X0208661Y0045626D01*
X0208661Y0047199D02*
X0220472Y0047199D01*
X0220472Y0048773D02*
X0208661Y0048773D01*
X0208661Y0050346D02*
X0226378Y0050346D01*
X0226378Y0049213D02*
X0220472Y0049213D01*
X0220472Y0041339D01*
X0226378Y0041339D01*
X0226378Y0015748D01*
X0208661Y0015748D01*
X0208661Y0059055D01*
X0226378Y0059055D01*
X0226378Y0049213D01*
X0226378Y0051919D02*
X0208661Y0051919D01*
X0208661Y0053493D02*
X0226378Y0053493D01*
X0226378Y0055066D02*
X0208661Y0055066D01*
X0208661Y0056639D02*
X0226378Y0056639D01*
X0226378Y0058213D02*
X0208661Y0058213D01*
X0212598Y0064961D02*
X0202756Y0074803D01*
X0202756Y0177165D01*
X0187008Y0187008D02*
X0187008Y0084646D01*
X0220472Y0102362D02*
X0220472Y0122047D01*
X0218504Y0124016D01*
X0208661Y0112205D02*
X0208661Y0149606D01*
X0208661Y0194882D01*
X0208661Y0204724D02*
X0208661Y0242848D01*
X0212264Y0246450D01*
X0159449Y0224409D02*
X0154978Y0228880D01*
X0147421Y0228880D01*
X0137579Y0228880D01*
X0159449Y0224409D02*
X0159449Y0118110D01*
X0127953Y0118110D02*
X0127953Y0098425D01*
X0116142Y0098425D01*
X0116142Y0102362D01*
X0115067Y0103437D01*
X0115473Y0103843D01*
X0115473Y0108755D01*
X0114661Y0109568D01*
X0109749Y0109568D01*
X0108936Y0108755D01*
X0108936Y0106299D01*
X0090551Y0106299D01*
X0074803Y0090551D01*
X0066929Y0090551D01*
X0066929Y0118110D01*
X0127953Y0118110D01*
X0127953Y0117999D02*
X0066929Y0117999D01*
X0066929Y0116425D02*
X0127953Y0116425D01*
X0127953Y0114852D02*
X0066929Y0114852D01*
X0066929Y0113279D02*
X0127953Y0113279D01*
X0127953Y0114173D02*
X0122047Y0108268D01*
X0122047Y0102362D01*
X0133858Y0090551D01*
X0127953Y0099119D02*
X0116142Y0099119D01*
X0116142Y0100692D02*
X0127953Y0100692D01*
X0127953Y0102265D02*
X0116142Y0102265D01*
X0115469Y0103839D02*
X0127953Y0103839D01*
X0127953Y0105412D02*
X0115473Y0105412D01*
X0115473Y0106985D02*
X0127953Y0106985D01*
X0127953Y0108559D02*
X0115473Y0108559D01*
X0112205Y0106299D02*
X0112205Y0090551D01*
X0108936Y0106985D02*
X0066929Y0106985D01*
X0066929Y0105412D02*
X0089664Y0105412D01*
X0088091Y0103839D02*
X0066929Y0103839D01*
X0066929Y0102265D02*
X0086517Y0102265D01*
X0084944Y0100692D02*
X0066929Y0100692D01*
X0066929Y0099119D02*
X0083371Y0099119D01*
X0081797Y0097545D02*
X0066929Y0097545D01*
X0066929Y0095972D02*
X0080224Y0095972D01*
X0078651Y0094399D02*
X0066929Y0094399D01*
X0066929Y0092826D02*
X0077078Y0092826D01*
X0075504Y0091252D02*
X0066929Y0091252D01*
X0066929Y0108559D02*
X0108936Y0108559D01*
X0127953Y0110132D02*
X0066929Y0110132D01*
X0066929Y0111705D02*
X0127953Y0111705D01*
X0120079Y0125984D02*
X0076772Y0125984D01*
X0070866Y0131890D01*
X0070866Y0157480D01*
X0064961Y0163386D01*
X0064961Y0204724D02*
X0051181Y0204724D01*
X0045276Y0210630D01*
X0196850Y0151575D02*
X0196850Y0124016D01*
X0220472Y0102362D02*
X0250000Y0072835D01*
X0267717Y0072835D01*
X0273622Y0096457D02*
X0273622Y0161417D01*
X0253937Y0161417D02*
X0242126Y0161417D01*
X0285433Y0141732D02*
X0285433Y0096457D01*
X0293307Y0110236D02*
X0293307Y0247943D01*
X0262500Y0278750D01*
X0299213Y0135827D02*
X0299213Y0029528D01*
X0300276Y0028465D01*
X0300276Y0026378D01*
X0226378Y0026746D02*
X0208661Y0026746D01*
X0208661Y0025173D02*
X0226378Y0025173D01*
X0226378Y0023600D02*
X0208661Y0023600D01*
X0208661Y0022026D02*
X0226378Y0022026D01*
X0226378Y0020453D02*
X0208661Y0020453D01*
X0208661Y0018880D02*
X0226378Y0018880D01*
X0226378Y0017306D02*
X0208661Y0017306D01*
X0208661Y0028320D02*
X0226378Y0028320D01*
X0226378Y0029893D02*
X0208661Y0029893D01*
X0208661Y0031466D02*
X0226378Y0031466D01*
X0226378Y0033040D02*
X0208661Y0033040D01*
X0208661Y0034613D02*
X0226378Y0034613D01*
X0226378Y0036186D02*
X0208661Y0036186D01*
X0208661Y0037760D02*
X0226378Y0037760D01*
X0226378Y0039333D02*
X0208661Y0039333D01*
X0208661Y0040906D02*
X0226378Y0040906D01*
X0220472Y0042479D02*
X0208661Y0042479D01*
X0116142Y0041339D02*
X0088583Y0041339D01*
X0094488Y0055118D02*
X0080709Y0055118D01*
D19*
X0094488Y0059755D02*
X0094488Y0084646D01*
X0100984Y0084646D01*
X0100984Y0075123D01*
X0100889Y0075084D01*
X0100113Y0074308D01*
X0099694Y0073295D01*
X0099694Y0068437D01*
X0100113Y0067424D01*
X0100889Y0066649D01*
X0101901Y0066229D01*
X0102362Y0066229D01*
X0102362Y0061024D01*
X0122047Y0061024D01*
X0133858Y0072835D01*
X0133858Y0085914D01*
X0136288Y0085914D01*
X0137300Y0086334D01*
X0138076Y0087109D01*
X0138495Y0088122D01*
X0138495Y0092980D01*
X0138076Y0093993D01*
X0137300Y0094769D01*
X0136288Y0095188D01*
X0134232Y0095188D01*
X0133858Y0095562D01*
X0133858Y0214033D01*
X0134170Y0213904D01*
X0134668Y0213805D01*
X0137579Y0213805D01*
X0140490Y0213805D01*
X0140987Y0213904D01*
X0141456Y0214098D01*
X0141878Y0214380D01*
X0142236Y0214739D01*
X0142500Y0215133D01*
X0142764Y0214739D01*
X0143122Y0214380D01*
X0143544Y0214098D01*
X0144013Y0213904D01*
X0144510Y0213805D01*
X0147421Y0213805D01*
X0147421Y0219037D01*
X0147421Y0219037D01*
X0142189Y0219037D01*
X0137579Y0219037D01*
X0137579Y0213805D01*
X0137579Y0219037D01*
X0137579Y0219037D01*
X0137579Y0219038D01*
X0147421Y0219038D01*
X0147421Y0219037D01*
X0147421Y0213805D01*
X0147638Y0213805D01*
X0147638Y0213181D01*
X0146233Y0213181D01*
X0145220Y0212762D01*
X0144445Y0211986D01*
X0144026Y0210973D01*
X0144026Y0201905D01*
X0144445Y0200892D01*
X0145220Y0200116D01*
X0146233Y0199697D01*
X0147638Y0199697D01*
X0147638Y0074803D01*
X0124016Y0051181D01*
X0098211Y0051181D01*
X0098706Y0051676D01*
X0099125Y0052689D01*
X0099125Y0057547D01*
X0098706Y0058560D01*
X0097930Y0059336D01*
X0096917Y0059755D01*
X0094488Y0059755D01*
X0094488Y0059814D02*
X0132649Y0059814D01*
X0129501Y0056666D02*
X0099125Y0056666D01*
X0099125Y0053518D02*
X0126353Y0053518D01*
X0123986Y0062962D02*
X0135797Y0062962D01*
X0138945Y0066110D02*
X0127134Y0066110D01*
X0130282Y0069259D02*
X0142093Y0069259D01*
X0145241Y0072407D02*
X0133430Y0072407D01*
X0133858Y0075555D02*
X0147638Y0075555D01*
X0147638Y0078703D02*
X0133858Y0078703D01*
X0133858Y0081851D02*
X0147638Y0081851D01*
X0147638Y0084999D02*
X0133858Y0084999D01*
X0138495Y0088147D02*
X0147638Y0088147D01*
X0147638Y0091295D02*
X0138495Y0091295D01*
X0137626Y0094444D02*
X0147638Y0094444D01*
X0147638Y0097592D02*
X0133858Y0097592D01*
X0133858Y0100740D02*
X0147638Y0100740D01*
X0147638Y0103888D02*
X0133858Y0103888D01*
X0133858Y0107036D02*
X0147638Y0107036D01*
X0147638Y0110184D02*
X0133858Y0110184D01*
X0133858Y0113332D02*
X0147638Y0113332D01*
X0147638Y0116480D02*
X0133858Y0116480D01*
X0133858Y0119628D02*
X0147638Y0119628D01*
X0147638Y0122777D02*
X0133858Y0122777D01*
X0133858Y0125925D02*
X0147638Y0125925D01*
X0147638Y0129073D02*
X0133858Y0129073D01*
X0133858Y0132221D02*
X0147638Y0132221D01*
X0147638Y0135369D02*
X0133858Y0135369D01*
X0133858Y0138517D02*
X0147638Y0138517D01*
X0147638Y0141665D02*
X0133858Y0141665D01*
X0133858Y0144813D02*
X0147638Y0144813D01*
X0147638Y0147962D02*
X0133858Y0147962D01*
X0133858Y0151110D02*
X0147638Y0151110D01*
X0147638Y0154258D02*
X0133858Y0154258D01*
X0133858Y0157406D02*
X0147638Y0157406D01*
X0147638Y0160554D02*
X0133858Y0160554D01*
X0133858Y0163702D02*
X0147638Y0163702D01*
X0147638Y0166850D02*
X0133858Y0166850D01*
X0133858Y0169998D02*
X0147638Y0169998D01*
X0147638Y0173146D02*
X0133858Y0173146D01*
X0133858Y0176295D02*
X0147638Y0176295D01*
X0147638Y0179443D02*
X0133858Y0179443D01*
X0133858Y0182591D02*
X0147638Y0182591D01*
X0147638Y0185739D02*
X0133858Y0185739D01*
X0133858Y0188887D02*
X0147638Y0188887D01*
X0147638Y0192035D02*
X0133858Y0192035D01*
X0133858Y0195183D02*
X0147638Y0195183D01*
X0147638Y0198331D02*
X0133858Y0198331D01*
X0133858Y0201480D02*
X0144202Y0201480D01*
X0144026Y0204628D02*
X0133858Y0204628D01*
X0133858Y0207776D02*
X0144026Y0207776D01*
X0144026Y0210924D02*
X0133858Y0210924D01*
X0137579Y0214072D02*
X0137579Y0214072D01*
X0137579Y0217220D02*
X0137579Y0217220D01*
X0141393Y0214072D02*
X0143607Y0214072D01*
X0147421Y0214072D02*
X0147421Y0214072D01*
X0147421Y0217220D02*
X0147421Y0217220D01*
X0108268Y0210630D02*
X0107874Y0210236D01*
X0090551Y0210236D01*
X0086614Y0206299D01*
X0086614Y0196850D01*
X0090551Y0192913D01*
X0096457Y0192913D01*
X0090551Y0192913D02*
X0090551Y0133858D01*
X0127953Y0114173D02*
X0127953Y0169291D01*
X0208661Y0112205D02*
X0214567Y0106299D01*
X0214567Y0070866D01*
X0222441Y0062992D01*
X0222441Y0057087D01*
X0102362Y0062962D02*
X0094488Y0062962D01*
X0094488Y0066110D02*
X0102362Y0066110D01*
X0099694Y0069259D02*
X0094488Y0069259D01*
X0094488Y0072407D02*
X0099694Y0072407D01*
X0100984Y0075555D02*
X0094488Y0075555D01*
X0094488Y0078703D02*
X0100984Y0078703D01*
X0100984Y0081851D02*
X0094488Y0081851D01*
X0068898Y0094488D02*
X0068898Y0068898D01*
X0058071Y0058071D01*
X0030709Y0058071D01*
D20*
X0208661Y0194882D02*
X0208661Y0204724D01*
X0279528Y0228535D02*
X0287528Y0236535D01*
X0279528Y0228535D02*
X0279528Y0090551D01*
D21*
X0027306Y0021233D02*
X0023446Y0021233D01*
X0021868Y0022413D02*
X0027306Y0022413D01*
X0027306Y0022776D02*
X0027306Y0018349D01*
X0008661Y0032283D01*
X0015076Y0032283D01*
X0016017Y0032673D01*
X0016736Y0033393D01*
X0017126Y0034333D01*
X0017126Y0042438D01*
X0016766Y0043307D01*
X0017126Y0044176D01*
X0017126Y0052281D01*
X0016766Y0053150D01*
X0017126Y0054019D01*
X0017126Y0062123D01*
X0016766Y0062992D01*
X0017126Y0063861D01*
X0017126Y0071966D01*
X0016766Y0072835D01*
X0017126Y0073704D01*
X0017126Y0081808D01*
X0016736Y0082749D01*
X0016017Y0083469D01*
X0015076Y0083858D01*
X0006971Y0083858D01*
X0006031Y0083469D01*
X0005311Y0082749D01*
X0004921Y0081808D01*
X0004921Y0073704D01*
X0005281Y0072835D01*
X0004921Y0071966D01*
X0004921Y0063861D01*
X0005281Y0062992D01*
X0004921Y0062123D01*
X0004921Y0054019D01*
X0005281Y0053150D01*
X0004921Y0052281D01*
X0004921Y0044176D01*
X0005281Y0043307D01*
X0004921Y0042438D01*
X0004921Y0035078D01*
X0002608Y0036807D01*
X0002608Y0194892D01*
X0004407Y0194892D01*
X0003473Y0193958D01*
X0002874Y0192511D01*
X0002874Y0190945D01*
X0003473Y0189498D01*
X0004581Y0188391D01*
X0006028Y0187791D01*
X0007594Y0187791D01*
X0007795Y0187875D01*
X0007996Y0187791D01*
X0009563Y0187791D01*
X0011010Y0188391D01*
X0012117Y0189498D01*
X0012717Y0190945D01*
X0012717Y0192511D01*
X0012117Y0193958D01*
X0011184Y0194892D01*
X0013019Y0194892D01*
X0013977Y0195289D01*
X0014711Y0196023D01*
X0015108Y0196981D01*
X0015108Y0227685D01*
X0081291Y0252212D01*
X0078804Y0248121D01*
X0077306Y0242776D01*
X0077306Y0237224D01*
X0078804Y0231879D01*
X0081688Y0227136D01*
X0085745Y0223347D01*
X0085745Y0223347D01*
X0090674Y0220793D01*
X0096109Y0219664D01*
X0101647Y0220042D01*
X0106878Y0221901D01*
X0111413Y0225103D01*
X0114916Y0229409D01*
X0117128Y0234500D01*
X0117128Y0234501D01*
X0117884Y0240000D01*
X0117128Y0245499D01*
X0117128Y0245499D01*
X0114916Y0250591D01*
X0111413Y0254897D01*
X0106878Y0258099D01*
X0101926Y0259859D01*
X0182968Y0289892D01*
X0187685Y0289892D01*
X0186304Y0287621D01*
X0184806Y0282276D01*
X0184806Y0276724D01*
X0186304Y0271379D01*
X0189188Y0266636D01*
X0189188Y0266636D01*
X0193245Y0262847D01*
X0193245Y0262847D01*
X0198174Y0260293D01*
X0203609Y0259164D01*
X0209147Y0259542D01*
X0214378Y0261401D01*
X0218913Y0264603D01*
X0222416Y0268909D01*
X0224628Y0274000D01*
X0224628Y0274001D01*
X0225384Y0279500D01*
X0225384Y0279500D01*
X0224628Y0284999D01*
X0222503Y0289892D01*
X0272060Y0289892D01*
X0300984Y0260967D01*
X0300984Y0223622D01*
X0300475Y0223622D01*
X0299535Y0223232D01*
X0298815Y0222513D01*
X0298425Y0221572D01*
X0298425Y0211893D01*
X0298815Y0210952D01*
X0299535Y0210232D01*
X0300475Y0209843D01*
X0300984Y0209843D01*
X0300984Y0140267D01*
X0296822Y0140267D01*
X0296654Y0140197D01*
X0296654Y0248609D01*
X0296144Y0249839D01*
X0268071Y0277912D01*
X0268071Y0282271D01*
X0267681Y0283211D01*
X0266961Y0283931D01*
X0266021Y0284321D01*
X0258979Y0284321D01*
X0258039Y0283931D01*
X0257500Y0283393D01*
X0256961Y0283931D01*
X0256021Y0284321D01*
X0248979Y0284321D01*
X0248039Y0283931D01*
X0247319Y0283211D01*
X0246929Y0282271D01*
X0246929Y0275229D01*
X0247319Y0274289D01*
X0248039Y0273569D01*
X0248979Y0273179D01*
X0256021Y0273179D01*
X0256961Y0273569D01*
X0257500Y0274107D01*
X0258039Y0273569D01*
X0258979Y0273179D01*
X0263338Y0273179D01*
X0289961Y0246557D01*
X0289961Y0240958D01*
X0289918Y0240976D01*
X0285137Y0240976D01*
X0284440Y0240687D01*
X0284440Y0244390D01*
X0284051Y0245331D01*
X0283331Y0246051D01*
X0282390Y0246440D01*
X0277610Y0246440D01*
X0276669Y0246051D01*
X0275949Y0245331D01*
X0275878Y0245159D01*
X0272440Y0245159D01*
X0272440Y0249390D01*
X0272051Y0250331D01*
X0271331Y0251051D01*
X0270390Y0251440D01*
X0265610Y0251440D01*
X0264669Y0251051D01*
X0263949Y0250331D01*
X0263878Y0250159D01*
X0261372Y0250159D01*
X0260211Y0249678D01*
X0259322Y0248789D01*
X0248322Y0237789D01*
X0247841Y0236628D01*
X0247841Y0180309D01*
X0244691Y0177159D01*
X0235122Y0177159D01*
X0235051Y0177331D01*
X0234331Y0178051D01*
X0233390Y0178440D01*
X0228610Y0178440D01*
X0227669Y0178051D01*
X0226949Y0177331D01*
X0226560Y0176390D01*
X0226560Y0171610D01*
X0226949Y0170669D01*
X0227669Y0169949D01*
X0228610Y0169560D01*
X0233390Y0169560D01*
X0234331Y0169949D01*
X0235051Y0170669D01*
X0235122Y0170841D01*
X0246628Y0170841D01*
X0247789Y0171322D01*
X0253678Y0177211D01*
X0254159Y0178372D01*
X0254159Y0189373D01*
X0254211Y0189322D01*
X0259841Y0183691D01*
X0259841Y0173122D01*
X0259669Y0173051D01*
X0258949Y0172331D01*
X0258560Y0171390D01*
X0258560Y0166610D01*
X0258949Y0165669D01*
X0259669Y0164949D01*
X0260610Y0164560D01*
X0265390Y0164560D01*
X0266331Y0164949D01*
X0267051Y0165669D01*
X0267440Y0166610D01*
X0267440Y0171390D01*
X0267051Y0172331D01*
X0266331Y0173051D01*
X0266159Y0173122D01*
X0266159Y0185628D01*
X0265678Y0186789D01*
X0259159Y0193309D01*
X0259159Y0230691D01*
X0267309Y0238841D01*
X0275878Y0238841D01*
X0275949Y0238669D01*
X0276669Y0237949D01*
X0277610Y0237560D01*
X0282390Y0237560D01*
X0283087Y0237849D01*
X0283087Y0236846D01*
X0276680Y0230438D01*
X0276169Y0229204D01*
X0276169Y0165793D01*
X0276012Y0165857D01*
X0271232Y0165857D01*
X0270291Y0165468D01*
X0269571Y0164748D01*
X0269182Y0163807D01*
X0269182Y0159027D01*
X0269571Y0158087D01*
X0270276Y0157383D01*
X0270276Y0100491D01*
X0269571Y0099787D01*
X0269182Y0098847D01*
X0269182Y0094067D01*
X0269571Y0093126D01*
X0270291Y0092406D01*
X0271232Y0092017D01*
X0275087Y0092017D01*
X0275087Y0088161D01*
X0275477Y0087220D01*
X0276197Y0086501D01*
X0277137Y0086111D01*
X0281918Y0086111D01*
X0282858Y0086501D01*
X0283578Y0087220D01*
X0283968Y0088161D01*
X0283968Y0092017D01*
X0287823Y0092017D01*
X0288764Y0092406D01*
X0289484Y0093126D01*
X0289873Y0094067D01*
X0289873Y0098847D01*
X0289484Y0099787D01*
X0288780Y0100491D01*
X0288780Y0137697D01*
X0289484Y0138402D01*
X0289873Y0139342D01*
X0289873Y0144122D01*
X0289484Y0145063D01*
X0288764Y0145783D01*
X0287823Y0146172D01*
X0283043Y0146172D01*
X0282887Y0146108D01*
X0282887Y0227144D01*
X0287838Y0232095D01*
X0289918Y0232095D01*
X0289961Y0232113D01*
X0289961Y0114271D01*
X0289257Y0113567D01*
X0288867Y0112626D01*
X0288867Y0107846D01*
X0289257Y0106906D01*
X0289976Y0106186D01*
X0290917Y0105796D01*
X0295697Y0105796D01*
X0295866Y0105866D01*
X0295866Y0031915D01*
X0295578Y0031795D01*
X0295354Y0031572D01*
X0295131Y0031795D01*
X0294190Y0032185D01*
X0286676Y0032185D01*
X0285735Y0031795D01*
X0285512Y0031572D01*
X0285288Y0031795D01*
X0284348Y0032185D01*
X0276833Y0032185D01*
X0275893Y0031795D01*
X0275173Y0031076D01*
X0274783Y0030135D01*
X0274783Y0022621D01*
X0275173Y0021680D01*
X0275893Y0020960D01*
X0276833Y0020571D01*
X0284348Y0020571D01*
X0285288Y0020960D01*
X0285512Y0021184D01*
X0285735Y0020960D01*
X0286676Y0020571D01*
X0294190Y0020571D01*
X0295131Y0020960D01*
X0295354Y0021184D01*
X0295578Y0020960D01*
X0296519Y0020571D01*
X0304033Y0020571D01*
X0304973Y0020960D01*
X0305693Y0021680D01*
X0305804Y0021947D01*
X0305893Y0021857D01*
X0306256Y0021648D01*
X0306661Y0021539D01*
X0309626Y0021539D01*
X0309626Y0025886D01*
X0310610Y0025886D01*
X0310610Y0021539D01*
X0313576Y0021539D01*
X0313980Y0021648D01*
X0314343Y0021857D01*
X0314639Y0022153D01*
X0314848Y0022516D01*
X0314957Y0022921D01*
X0314957Y0025886D01*
X0310610Y0025886D01*
X0310610Y0026870D01*
X0309626Y0026870D01*
X0309626Y0031217D01*
X0306661Y0031217D01*
X0306256Y0031108D01*
X0305893Y0030899D01*
X0305804Y0030809D01*
X0305693Y0031076D01*
X0304973Y0031795D01*
X0304033Y0032185D01*
X0302559Y0032185D01*
X0302559Y0126634D01*
X0302776Y0126417D01*
X0304296Y0125787D01*
X0332392Y0125787D01*
X0332392Y0078701D01*
X0332789Y0077743D01*
X0333523Y0077009D01*
X0334481Y0076612D01*
X0357392Y0076612D01*
X0357392Y0029944D01*
X0356413Y0031147D01*
X0356413Y0031147D01*
X0351878Y0034349D01*
X0346647Y0036208D01*
X0341109Y0036586D01*
X0335674Y0035457D01*
X0335674Y0035457D01*
X0330745Y0032903D01*
X0326688Y0029114D01*
X0326688Y0029114D01*
X0323804Y0024371D01*
X0322306Y0019026D01*
X0322306Y0013474D01*
X0323804Y0008129D01*
X0326688Y0003386D01*
X0326688Y0003386D01*
X0327521Y0002608D01*
X0057879Y0002608D01*
X0061413Y0005103D01*
X0064916Y0009409D01*
X0067128Y0014500D01*
X0067128Y0014501D01*
X0067884Y0020000D01*
X0067128Y0025499D01*
X0067128Y0025499D01*
X0064916Y0030591D01*
X0061413Y0034897D01*
X0056878Y0038099D01*
X0051647Y0039958D01*
X0046109Y0040336D01*
X0040674Y0039207D01*
X0040674Y0039207D01*
X0039280Y0038485D01*
X0044693Y0043898D01*
X0084213Y0043898D01*
X0084143Y0043729D01*
X0084143Y0038948D01*
X0084532Y0038008D01*
X0085252Y0037288D01*
X0086193Y0036898D01*
X0090973Y0036898D01*
X0091913Y0037288D01*
X0092617Y0037992D01*
X0112107Y0037992D01*
X0112811Y0037288D01*
X0113752Y0036898D01*
X0118532Y0036898D01*
X0119472Y0037288D01*
X0120192Y0038008D01*
X0120582Y0038948D01*
X0120582Y0043729D01*
X0120512Y0043898D01*
X0126650Y0043898D01*
X0127880Y0044407D01*
X0155439Y0071966D01*
X0156380Y0072908D01*
X0156890Y0074137D01*
X0156890Y0082244D01*
X0157059Y0082174D01*
X0161839Y0082174D01*
X0162780Y0082564D01*
X0163499Y0083283D01*
X0163889Y0084224D01*
X0163889Y0086322D01*
X0168191Y0090624D01*
X0168701Y0091854D01*
X0168701Y0139666D01*
X0169405Y0140370D01*
X0169794Y0141311D01*
X0169794Y0146091D01*
X0169405Y0147031D01*
X0168685Y0147751D01*
X0167744Y0148141D01*
X0162964Y0148141D01*
X0162795Y0148071D01*
X0162795Y0225075D01*
X0162286Y0226305D01*
X0157815Y0230776D01*
X0156874Y0231717D01*
X0155644Y0232226D01*
X0152563Y0232226D01*
X0152248Y0232987D01*
X0151528Y0233707D01*
X0151301Y0233801D01*
X0151528Y0233896D01*
X0152248Y0234615D01*
X0152638Y0235556D01*
X0152638Y0241889D01*
X0152248Y0242830D01*
X0151528Y0243549D01*
X0150588Y0243939D01*
X0144255Y0243939D01*
X0143314Y0243549D01*
X0142594Y0242830D01*
X0142500Y0242602D01*
X0142406Y0242830D01*
X0141686Y0243549D01*
X0140745Y0243939D01*
X0134412Y0243939D01*
X0133472Y0243549D01*
X0132752Y0242830D01*
X0132362Y0241889D01*
X0132362Y0235556D01*
X0132752Y0234615D01*
X0133472Y0233896D01*
X0133699Y0233801D01*
X0133472Y0233707D01*
X0132752Y0232987D01*
X0132362Y0232047D01*
X0132362Y0226296D01*
X0131517Y0225945D01*
X0130354Y0224783D01*
X0129724Y0223263D01*
X0129724Y0173731D01*
X0125563Y0173731D01*
X0124622Y0173342D01*
X0123902Y0172622D01*
X0123513Y0171681D01*
X0123513Y0166901D01*
X0123819Y0166162D01*
X0123819Y0129625D01*
X0123409Y0130035D01*
X0122469Y0130424D01*
X0117689Y0130424D01*
X0116748Y0130035D01*
X0116044Y0129331D01*
X0078158Y0129331D01*
X0074213Y0133276D01*
X0074213Y0158146D01*
X0073703Y0159376D01*
X0072762Y0160317D01*
X0069401Y0163678D01*
X0069401Y0165776D01*
X0069168Y0166339D01*
X0069401Y0166901D01*
X0069401Y0171681D01*
X0069011Y0172622D01*
X0068291Y0173342D01*
X0067351Y0173731D01*
X0062759Y0173731D01*
X0062759Y0185748D01*
X0062187Y0187129D01*
X0043126Y0206190D01*
X0044983Y0206190D01*
X0049285Y0201887D01*
X0050515Y0201378D01*
X0060926Y0201378D01*
X0061630Y0200674D01*
X0062570Y0200284D01*
X0067351Y0200284D01*
X0068291Y0200674D01*
X0069011Y0201394D01*
X0069401Y0202334D01*
X0069401Y0207115D01*
X0069011Y0208055D01*
X0068291Y0208775D01*
X0067351Y0209165D01*
X0062570Y0209165D01*
X0061630Y0208775D01*
X0060926Y0208071D01*
X0052567Y0208071D01*
X0049716Y0210922D01*
X0049716Y0213020D01*
X0049326Y0213961D01*
X0048606Y0214680D01*
X0047666Y0215070D01*
X0042885Y0215070D01*
X0041945Y0214680D01*
X0041759Y0214495D01*
X0041759Y0223748D01*
X0041187Y0225129D01*
X0040129Y0226187D01*
X0038748Y0226759D01*
X0035265Y0226759D01*
X0035181Y0226961D01*
X0034461Y0227681D01*
X0033521Y0228071D01*
X0026479Y0228071D01*
X0025539Y0227681D01*
X0024819Y0226961D01*
X0024429Y0226021D01*
X0024429Y0218979D01*
X0024819Y0218039D01*
X0025357Y0217500D01*
X0024819Y0216961D01*
X0024429Y0216021D01*
X0024429Y0208979D01*
X0024819Y0208039D01*
X0025539Y0207319D01*
X0026479Y0206929D01*
X0033521Y0206929D01*
X0034241Y0207227D01*
X0034241Y0205252D01*
X0034813Y0203871D01*
X0035871Y0202813D01*
X0055241Y0183443D01*
X0055241Y0167098D01*
X0054818Y0168071D01*
X0054818Y0168071D01*
X0051315Y0172378D01*
X0051315Y0172378D01*
X0051315Y0172378D01*
X0046779Y0175579D01*
X0041549Y0177438D01*
X0041549Y0177438D01*
X0036011Y0177817D01*
X0036011Y0177817D01*
X0030575Y0176687D01*
X0025647Y0174133D01*
X0025647Y0174133D01*
X0024139Y0172726D01*
X0023766Y0173627D01*
X0022686Y0174707D01*
X0021275Y0175291D01*
X0019748Y0175291D01*
X0019724Y0175281D01*
X0019701Y0175291D01*
X0018173Y0175291D01*
X0016763Y0174707D01*
X0015683Y0173627D01*
X0015098Y0172216D01*
X0015098Y0170689D01*
X0015683Y0169278D01*
X0016763Y0168199D01*
X0018173Y0167614D01*
X0019701Y0167614D01*
X0019724Y0167624D01*
X0019748Y0167614D01*
X0019929Y0167614D01*
X0018705Y0165601D01*
X0017208Y0160256D01*
X0017208Y0154705D01*
X0018705Y0149359D01*
X0021590Y0144616D01*
X0025647Y0140827D01*
X0026406Y0140434D01*
X0021371Y0140434D01*
X0018593Y0139283D01*
X0016467Y0137157D01*
X0015316Y0134379D01*
X0015316Y0091371D01*
X0016467Y0088593D01*
X0018593Y0086467D01*
X0021109Y0085425D01*
X0018813Y0083129D01*
X0018241Y0081748D01*
X0018241Y0051252D01*
X0018813Y0049871D01*
X0019871Y0048813D01*
X0023642Y0045042D01*
X0024606Y0044642D01*
X0024606Y0044176D01*
X0024966Y0043307D01*
X0024606Y0042438D01*
X0024606Y0034333D01*
X0024996Y0033393D01*
X0025716Y0032673D01*
X0026656Y0032283D01*
X0031335Y0032283D01*
X0028804Y0028121D01*
X0027306Y0022776D01*
X0027306Y0022776D01*
X0027535Y0023592D02*
X0020290Y0023592D01*
X0018711Y0024772D02*
X0027865Y0024772D01*
X0028196Y0025952D02*
X0017133Y0025952D01*
X0015555Y0027131D02*
X0028526Y0027131D01*
X0028919Y0028311D02*
X0013976Y0028311D01*
X0012398Y0029490D02*
X0029636Y0029490D01*
X0030354Y0030670D02*
X0010820Y0030670D01*
X0009241Y0031850D02*
X0031071Y0031850D01*
X0025360Y0033029D02*
X0016373Y0033029D01*
X0017074Y0034209D02*
X0024658Y0034209D01*
X0024606Y0035388D02*
X0017126Y0035388D01*
X0017126Y0036568D02*
X0024606Y0036568D01*
X0024606Y0037748D02*
X0017126Y0037748D01*
X0017126Y0038927D02*
X0024606Y0038927D01*
X0024606Y0040107D02*
X0017126Y0040107D01*
X0017126Y0041286D02*
X0024606Y0041286D01*
X0024618Y0042466D02*
X0017114Y0042466D01*
X0016906Y0043646D02*
X0024826Y0043646D01*
X0024164Y0044825D02*
X0017126Y0044825D01*
X0017126Y0046005D02*
X0022679Y0046005D01*
X0021499Y0047185D02*
X0017126Y0047185D01*
X0017126Y0048364D02*
X0020320Y0048364D01*
X0019140Y0049544D02*
X0017126Y0049544D01*
X0017126Y0050723D02*
X0018460Y0050723D01*
X0018241Y0051903D02*
X0017126Y0051903D01*
X0016794Y0053083D02*
X0018241Y0053083D01*
X0018241Y0054262D02*
X0017126Y0054262D01*
X0017126Y0055442D02*
X0018241Y0055442D01*
X0018241Y0056621D02*
X0017126Y0056621D01*
X0017126Y0057801D02*
X0018241Y0057801D01*
X0018241Y0058981D02*
X0017126Y0058981D01*
X0017126Y0060160D02*
X0018241Y0060160D01*
X0018241Y0061340D02*
X0017126Y0061340D01*
X0016962Y0062520D02*
X0018241Y0062520D01*
X0018241Y0063699D02*
X0017059Y0063699D01*
X0017126Y0064879D02*
X0018241Y0064879D01*
X0018241Y0066058D02*
X0017126Y0066058D01*
X0017126Y0067238D02*
X0018241Y0067238D01*
X0018241Y0068418D02*
X0017126Y0068418D01*
X0017126Y0069597D02*
X0018241Y0069597D01*
X0018241Y0070777D02*
X0017126Y0070777D01*
X0017126Y0071956D02*
X0018241Y0071956D01*
X0018241Y0073136D02*
X0016891Y0073136D01*
X0017126Y0074316D02*
X0018241Y0074316D01*
X0018241Y0075495D02*
X0017126Y0075495D01*
X0017126Y0076675D02*
X0018241Y0076675D01*
X0018241Y0077855D02*
X0017126Y0077855D01*
X0017126Y0079034D02*
X0018241Y0079034D01*
X0018241Y0080214D02*
X0017126Y0080214D01*
X0017126Y0081393D02*
X0018241Y0081393D01*
X0018583Y0082573D02*
X0016809Y0082573D01*
X0015331Y0083753D02*
X0019436Y0083753D01*
X0020616Y0084932D02*
X0002608Y0084932D01*
X0002608Y0083753D02*
X0006716Y0083753D01*
X0005238Y0082573D02*
X0002608Y0082573D01*
X0002608Y0081393D02*
X0004921Y0081393D01*
X0004921Y0080214D02*
X0002608Y0080214D01*
X0002608Y0079034D02*
X0004921Y0079034D01*
X0004921Y0077855D02*
X0002608Y0077855D01*
X0002608Y0076675D02*
X0004921Y0076675D01*
X0004921Y0075495D02*
X0002608Y0075495D01*
X0002608Y0074316D02*
X0004921Y0074316D01*
X0005156Y0073136D02*
X0002608Y0073136D01*
X0002608Y0071956D02*
X0004921Y0071956D01*
X0004921Y0070777D02*
X0002608Y0070777D01*
X0002608Y0069597D02*
X0004921Y0069597D01*
X0004921Y0068418D02*
X0002608Y0068418D01*
X0002608Y0067238D02*
X0004921Y0067238D01*
X0004921Y0066058D02*
X0002608Y0066058D01*
X0002608Y0064879D02*
X0004921Y0064879D01*
X0004988Y0063699D02*
X0002608Y0063699D01*
X0002608Y0062520D02*
X0005085Y0062520D01*
X0004921Y0061340D02*
X0002608Y0061340D01*
X0002608Y0060160D02*
X0004921Y0060160D01*
X0004921Y0058981D02*
X0002608Y0058981D01*
X0002608Y0057801D02*
X0004921Y0057801D01*
X0004921Y0056621D02*
X0002608Y0056621D01*
X0002608Y0055442D02*
X0004921Y0055442D01*
X0004921Y0054262D02*
X0002608Y0054262D01*
X0002608Y0053083D02*
X0005253Y0053083D01*
X0004921Y0051903D02*
X0002608Y0051903D01*
X0002608Y0050723D02*
X0004921Y0050723D01*
X0004921Y0049544D02*
X0002608Y0049544D01*
X0002608Y0048364D02*
X0004921Y0048364D01*
X0004921Y0047185D02*
X0002608Y0047185D01*
X0002608Y0046005D02*
X0004921Y0046005D01*
X0004921Y0044825D02*
X0002608Y0044825D01*
X0002608Y0043646D02*
X0005141Y0043646D01*
X0004933Y0042466D02*
X0002608Y0042466D01*
X0002608Y0041286D02*
X0004921Y0041286D01*
X0004921Y0040107D02*
X0002608Y0040107D01*
X0002608Y0038927D02*
X0004921Y0038927D01*
X0004921Y0037748D02*
X0002608Y0037748D01*
X0002928Y0036568D02*
X0004921Y0036568D01*
X0004921Y0035388D02*
X0004506Y0035388D01*
X0025025Y0020053D02*
X0027306Y0020053D01*
X0027306Y0018874D02*
X0026603Y0018874D01*
X0039723Y0038927D02*
X0040134Y0038927D01*
X0040902Y0040107D02*
X0045005Y0040107D01*
X0046109Y0040336D02*
X0046109Y0040336D01*
X0049464Y0040107D02*
X0084143Y0040107D01*
X0084143Y0041286D02*
X0042082Y0041286D01*
X0043262Y0042466D02*
X0084143Y0042466D01*
X0084143Y0043646D02*
X0044441Y0043646D01*
X0039695Y0048364D02*
X0036811Y0048364D01*
X0036811Y0047185D02*
X0038515Y0047185D01*
X0037335Y0046005D02*
X0036811Y0046005D01*
X0036811Y0045481D02*
X0036811Y0052281D01*
X0036451Y0053150D01*
X0036777Y0053937D01*
X0058893Y0053937D01*
X0060412Y0054566D01*
X0061575Y0055729D01*
X0071239Y0065393D01*
X0072402Y0066556D01*
X0073031Y0068075D01*
X0073031Y0087205D01*
X0075469Y0087205D01*
X0076699Y0087714D01*
X0091937Y0102953D01*
X0108170Y0102953D01*
X0108858Y0102264D01*
X0108858Y0094586D01*
X0108771Y0094499D01*
X0108771Y0096878D01*
X0108381Y0097819D01*
X0107661Y0098539D01*
X0106721Y0098928D01*
X0101941Y0098928D01*
X0101000Y0098539D01*
X0100280Y0097819D01*
X0099891Y0096878D01*
X0099891Y0092098D01*
X0100280Y0091157D01*
X0101000Y0090438D01*
X0101181Y0090363D01*
X0101181Y0088780D01*
X0093666Y0088780D01*
X0092147Y0088150D01*
X0090984Y0086987D01*
X0090354Y0085468D01*
X0090354Y0058465D01*
X0084743Y0058465D01*
X0084039Y0059169D01*
X0083099Y0059558D01*
X0078319Y0059558D01*
X0077378Y0059169D01*
X0076658Y0058449D01*
X0076269Y0057508D01*
X0076269Y0052728D01*
X0076658Y0051787D01*
X0077378Y0051068D01*
X0078319Y0050678D01*
X0083099Y0050678D01*
X0084039Y0051068D01*
X0084743Y0051772D01*
X0090354Y0051772D01*
X0090354Y0050591D01*
X0042641Y0050591D01*
X0041411Y0050081D01*
X0036811Y0045481D01*
X0036811Y0049544D02*
X0040874Y0049544D01*
X0036811Y0050723D02*
X0078209Y0050723D01*
X0076610Y0051903D02*
X0036811Y0051903D01*
X0036479Y0053083D02*
X0076269Y0053083D01*
X0076269Y0054262D02*
X0059678Y0054262D01*
X0061288Y0055442D02*
X0076269Y0055442D01*
X0076269Y0056621D02*
X0062468Y0056621D01*
X0063647Y0057801D02*
X0076390Y0057801D01*
X0077190Y0058981D02*
X0064827Y0058981D01*
X0066006Y0060160D02*
X0090354Y0060160D01*
X0090354Y0058981D02*
X0084227Y0058981D01*
X0090354Y0061340D02*
X0067186Y0061340D01*
X0068366Y0062520D02*
X0090354Y0062520D01*
X0090354Y0063699D02*
X0069545Y0063699D01*
X0070725Y0064879D02*
X0090354Y0064879D01*
X0090354Y0066058D02*
X0071905Y0066058D01*
X0072685Y0067238D02*
X0090354Y0067238D01*
X0090354Y0068418D02*
X0073031Y0068418D01*
X0073031Y0069597D02*
X0090354Y0069597D01*
X0090354Y0070777D02*
X0073031Y0070777D01*
X0073031Y0071956D02*
X0090354Y0071956D01*
X0090354Y0073136D02*
X0073031Y0073136D01*
X0073031Y0074316D02*
X0090354Y0074316D01*
X0090354Y0075495D02*
X0073031Y0075495D01*
X0073031Y0076675D02*
X0090354Y0076675D01*
X0090354Y0077855D02*
X0073031Y0077855D01*
X0073031Y0079034D02*
X0090354Y0079034D01*
X0090354Y0080214D02*
X0073031Y0080214D01*
X0073031Y0081393D02*
X0090354Y0081393D01*
X0090354Y0082573D02*
X0073031Y0082573D01*
X0073031Y0083753D02*
X0090354Y0083753D01*
X0090354Y0084932D02*
X0073031Y0084932D01*
X0073031Y0086112D02*
X0090621Y0086112D01*
X0091288Y0087291D02*
X0075678Y0087291D01*
X0077456Y0088471D02*
X0092921Y0088471D01*
X0099927Y0092010D02*
X0080994Y0092010D01*
X0079815Y0090830D02*
X0100607Y0090830D01*
X0101181Y0089651D02*
X0078635Y0089651D01*
X0082174Y0093189D02*
X0099891Y0093189D01*
X0099891Y0094369D02*
X0083354Y0094369D01*
X0084533Y0095549D02*
X0099891Y0095549D01*
X0099891Y0096728D02*
X0085713Y0096728D01*
X0086893Y0097908D02*
X0100369Y0097908D01*
X0104331Y0094488D02*
X0104331Y0070866D01*
X0108771Y0070777D02*
X0125954Y0070777D01*
X0124775Y0069597D02*
X0108771Y0069597D01*
X0108771Y0068476D02*
X0108771Y0073256D01*
X0108381Y0074197D01*
X0107661Y0074917D01*
X0107480Y0074992D01*
X0107480Y0078237D01*
X0110658Y0078237D01*
X0111598Y0078627D01*
X0112205Y0079233D01*
X0112811Y0078627D01*
X0113752Y0078237D01*
X0118532Y0078237D01*
X0119472Y0078627D01*
X0120192Y0079346D01*
X0120582Y0080287D01*
X0120582Y0085067D01*
X0120192Y0086008D01*
X0119472Y0086728D01*
X0118532Y0087117D01*
X0116152Y0087117D01*
X0116255Y0087220D01*
X0116645Y0088161D01*
X0116645Y0092941D01*
X0116255Y0093882D01*
X0115551Y0094586D01*
X0115551Y0095079D01*
X0124598Y0095079D01*
X0129418Y0090259D01*
X0129418Y0088161D01*
X0129724Y0087422D01*
X0129724Y0074547D01*
X0120335Y0065157D01*
X0106496Y0065157D01*
X0106496Y0066426D01*
X0106721Y0066426D01*
X0107661Y0066816D01*
X0108381Y0067535D01*
X0108771Y0068476D01*
X0108747Y0068418D02*
X0123595Y0068418D01*
X0122415Y0067238D02*
X0108084Y0067238D01*
X0106496Y0066058D02*
X0121236Y0066058D01*
X0127134Y0071956D02*
X0108771Y0071956D01*
X0108771Y0073136D02*
X0128314Y0073136D01*
X0129493Y0074316D02*
X0108262Y0074316D01*
X0107480Y0075495D02*
X0129724Y0075495D01*
X0129724Y0076675D02*
X0107480Y0076675D01*
X0107480Y0077855D02*
X0129724Y0077855D01*
X0129724Y0079034D02*
X0119880Y0079034D01*
X0120552Y0080214D02*
X0129724Y0080214D01*
X0129724Y0081393D02*
X0120582Y0081393D01*
X0120582Y0082573D02*
X0129724Y0082573D01*
X0129724Y0083753D02*
X0120582Y0083753D01*
X0120582Y0084932D02*
X0129724Y0084932D01*
X0129724Y0086112D02*
X0120088Y0086112D01*
X0116285Y0087291D02*
X0129724Y0087291D01*
X0129418Y0088471D02*
X0116645Y0088471D01*
X0116645Y0089651D02*
X0129418Y0089651D01*
X0128847Y0090830D02*
X0116645Y0090830D01*
X0116645Y0092010D02*
X0127667Y0092010D01*
X0126487Y0093189D02*
X0116542Y0093189D01*
X0115768Y0094369D02*
X0125308Y0094369D01*
X0116142Y0082677D02*
X0108268Y0082677D01*
X0112006Y0079034D02*
X0112404Y0079034D01*
X0108858Y0095549D02*
X0108771Y0095549D01*
X0108771Y0096728D02*
X0108858Y0096728D01*
X0108858Y0097908D02*
X0108292Y0097908D01*
X0108858Y0099088D02*
X0088072Y0099088D01*
X0089252Y0100267D02*
X0108858Y0100267D01*
X0108858Y0101447D02*
X0090431Y0101447D01*
X0091611Y0102626D02*
X0108496Y0102626D01*
X0116748Y0121934D02*
X0117689Y0121544D01*
X0122469Y0121544D01*
X0123409Y0121934D01*
X0123819Y0122343D01*
X0123819Y0121457D01*
X0066759Y0121457D01*
X0066759Y0156252D01*
X0066759Y0156855D01*
X0067520Y0156094D01*
X0067520Y0131224D01*
X0068029Y0129994D01*
X0073935Y0124089D01*
X0074876Y0123147D01*
X0076106Y0122638D01*
X0116044Y0122638D01*
X0116748Y0121934D01*
X0123819Y0121500D02*
X0066759Y0121500D01*
X0066759Y0122680D02*
X0076005Y0122680D01*
X0074164Y0123859D02*
X0066759Y0123859D01*
X0066759Y0125039D02*
X0072984Y0125039D01*
X0071805Y0126219D02*
X0066759Y0126219D01*
X0066759Y0127398D02*
X0070625Y0127398D01*
X0069445Y0128578D02*
X0066759Y0128578D01*
X0066759Y0129758D02*
X0068266Y0129758D01*
X0067639Y0130937D02*
X0066759Y0130937D01*
X0066759Y0132117D02*
X0067520Y0132117D01*
X0067520Y0133296D02*
X0066759Y0133296D01*
X0066759Y0134476D02*
X0067520Y0134476D01*
X0067520Y0135656D02*
X0066759Y0135656D01*
X0066759Y0136835D02*
X0067520Y0136835D01*
X0067520Y0138015D02*
X0066759Y0138015D01*
X0066759Y0139194D02*
X0067520Y0139194D01*
X0067520Y0140374D02*
X0066759Y0140374D01*
X0066759Y0141554D02*
X0067520Y0141554D01*
X0067520Y0142733D02*
X0066759Y0142733D01*
X0066759Y0143913D02*
X0067520Y0143913D01*
X0067520Y0145092D02*
X0066759Y0145092D01*
X0066759Y0146272D02*
X0067520Y0146272D01*
X0067520Y0147452D02*
X0066759Y0147452D01*
X0066759Y0148631D02*
X0067520Y0148631D01*
X0067520Y0149811D02*
X0066759Y0149811D01*
X0066759Y0150991D02*
X0067520Y0150991D01*
X0067520Y0152170D02*
X0066759Y0152170D01*
X0066759Y0153350D02*
X0067520Y0153350D01*
X0067520Y0154529D02*
X0066759Y0154529D01*
X0066759Y0155709D02*
X0067520Y0155709D01*
X0074213Y0155709D02*
X0086417Y0155709D01*
X0086417Y0156889D02*
X0074213Y0156889D01*
X0074213Y0158068D02*
X0086417Y0158068D01*
X0086417Y0159248D02*
X0073756Y0159248D01*
X0072652Y0160427D02*
X0086417Y0160427D01*
X0086417Y0161607D02*
X0071472Y0161607D01*
X0070292Y0162787D02*
X0086417Y0162787D01*
X0086417Y0163966D02*
X0069401Y0163966D01*
X0069401Y0165146D02*
X0086417Y0165146D01*
X0086417Y0166326D02*
X0069173Y0166326D01*
X0069401Y0167505D02*
X0086417Y0167505D01*
X0086417Y0168685D02*
X0069401Y0168685D01*
X0069401Y0169864D02*
X0086417Y0169864D01*
X0086417Y0171044D02*
X0069401Y0171044D01*
X0069176Y0172224D02*
X0086417Y0172224D01*
X0086417Y0173403D02*
X0068143Y0173403D01*
X0062759Y0174583D02*
X0086417Y0174583D01*
X0086417Y0175762D02*
X0062759Y0175762D01*
X0062759Y0176942D02*
X0086417Y0176942D01*
X0086417Y0178122D02*
X0062759Y0178122D01*
X0062759Y0179301D02*
X0086417Y0179301D01*
X0086417Y0180481D02*
X0062759Y0180481D01*
X0062759Y0181661D02*
X0086417Y0181661D01*
X0086417Y0182840D02*
X0062759Y0182840D01*
X0062759Y0184020D02*
X0086417Y0184020D01*
X0086417Y0185199D02*
X0062759Y0185199D01*
X0062498Y0186379D02*
X0086417Y0186379D01*
X0086417Y0187559D02*
X0061758Y0187559D01*
X0060578Y0188738D02*
X0086417Y0188738D01*
X0086417Y0189918D02*
X0059398Y0189918D01*
X0058219Y0191097D02*
X0086417Y0191097D01*
X0086417Y0191201D02*
X0086417Y0136988D01*
X0086111Y0136248D01*
X0086111Y0131468D01*
X0086501Y0130528D01*
X0087220Y0129808D01*
X0088161Y0129418D01*
X0092941Y0129418D01*
X0093882Y0129808D01*
X0094602Y0130528D01*
X0094991Y0131468D01*
X0094991Y0136248D01*
X0094685Y0136988D01*
X0094685Y0188780D01*
X0094834Y0188780D01*
X0095573Y0188473D01*
X0097340Y0188473D01*
X0098972Y0189149D01*
X0100221Y0190398D01*
X0100362Y0190738D01*
X0101827Y0189272D01*
X0102658Y0188442D01*
X0103743Y0187992D01*
X0104061Y0187992D01*
X0104217Y0187614D01*
X0104937Y0186894D01*
X0105878Y0186505D01*
X0110658Y0186505D01*
X0111598Y0186894D01*
X0112318Y0187614D01*
X0112708Y0188555D01*
X0112708Y0193335D01*
X0112475Y0193898D01*
X0113903Y0193898D01*
X0114060Y0193520D01*
X0114780Y0192800D01*
X0115720Y0192410D01*
X0120500Y0192410D01*
X0121441Y0192800D01*
X0122161Y0193520D01*
X0122550Y0194460D01*
X0122550Y0199241D01*
X0122161Y0200181D01*
X0121441Y0200901D01*
X0120500Y0201291D01*
X0115720Y0201291D01*
X0114780Y0200901D01*
X0114060Y0200181D01*
X0113903Y0199803D01*
X0105554Y0199803D01*
X0100897Y0204460D01*
X0100897Y0205608D01*
X0100692Y0206102D01*
X0108696Y0206102D01*
X0108907Y0206190D01*
X0110658Y0206190D01*
X0111598Y0206579D01*
X0112318Y0207299D01*
X0112708Y0208240D01*
X0112708Y0213020D01*
X0112318Y0213961D01*
X0111598Y0214680D01*
X0110658Y0215070D01*
X0105878Y0215070D01*
X0104937Y0214680D01*
X0104627Y0214370D01*
X0089729Y0214370D01*
X0088210Y0213741D01*
X0087047Y0212578D01*
X0083110Y0208641D01*
X0082480Y0207121D01*
X0082480Y0196028D01*
X0083110Y0194509D01*
X0084273Y0193346D01*
X0086417Y0191201D01*
X0085341Y0192277D02*
X0057039Y0192277D01*
X0055859Y0193457D02*
X0084162Y0193457D01*
X0083057Y0194636D02*
X0054680Y0194636D01*
X0053500Y0195816D02*
X0082568Y0195816D01*
X0082480Y0196995D02*
X0052321Y0196995D01*
X0051141Y0198175D02*
X0082480Y0198175D01*
X0082480Y0199355D02*
X0049961Y0199355D01*
X0048782Y0200534D02*
X0061967Y0200534D01*
X0067954Y0200534D02*
X0082480Y0200534D01*
X0082480Y0201714D02*
X0069144Y0201714D01*
X0069401Y0202894D02*
X0082480Y0202894D01*
X0082480Y0204073D02*
X0069401Y0204073D01*
X0069401Y0205253D02*
X0082480Y0205253D01*
X0082480Y0206432D02*
X0069401Y0206432D01*
X0069195Y0207612D02*
X0082684Y0207612D01*
X0083260Y0208792D02*
X0068251Y0208792D01*
X0061670Y0208792D02*
X0051846Y0208792D01*
X0050667Y0209971D02*
X0084440Y0209971D01*
X0085620Y0211151D02*
X0049716Y0211151D01*
X0049716Y0212330D02*
X0086799Y0212330D01*
X0087979Y0213510D02*
X0049513Y0213510D01*
X0048584Y0214690D02*
X0104959Y0214690D01*
X0103181Y0220588D02*
X0129724Y0220588D01*
X0129724Y0221767D02*
X0106501Y0221767D01*
X0106878Y0221901D02*
X0106878Y0221901D01*
X0108359Y0222947D02*
X0129724Y0222947D01*
X0130082Y0224127D02*
X0110030Y0224127D01*
X0111413Y0225103D02*
X0111413Y0225103D01*
X0111413Y0225103D01*
X0111579Y0225306D02*
X0130877Y0225306D01*
X0132362Y0226486D02*
X0112538Y0226486D01*
X0113498Y0227665D02*
X0132362Y0227665D01*
X0132362Y0228845D02*
X0114458Y0228845D01*
X0114916Y0229409D02*
X0114916Y0229409D01*
X0115184Y0230025D02*
X0132362Y0230025D01*
X0132362Y0231204D02*
X0115696Y0231204D01*
X0116209Y0232384D02*
X0132502Y0232384D01*
X0133328Y0233564D02*
X0116721Y0233564D01*
X0117161Y0234743D02*
X0132699Y0234743D01*
X0132362Y0235923D02*
X0117323Y0235923D01*
X0117486Y0237102D02*
X0132362Y0237102D01*
X0132362Y0238282D02*
X0117648Y0238282D01*
X0117810Y0239462D02*
X0132362Y0239462D01*
X0132362Y0240641D02*
X0117796Y0240641D01*
X0117634Y0241821D02*
X0132362Y0241821D01*
X0132923Y0243000D02*
X0117471Y0243000D01*
X0117309Y0244180D02*
X0179188Y0244180D01*
X0179166Y0244261D02*
X0179275Y0243857D01*
X0179484Y0243494D01*
X0179780Y0243198D01*
X0180143Y0242988D01*
X0180547Y0242880D01*
X0182687Y0242880D01*
X0182687Y0246401D01*
X0179166Y0246401D01*
X0179166Y0244261D01*
X0179166Y0245360D02*
X0139862Y0245360D01*
X0139668Y0245165D02*
X0140388Y0245885D01*
X0140778Y0246826D01*
X0140778Y0255816D01*
X0140388Y0256757D01*
X0139668Y0257477D01*
X0138728Y0257866D01*
X0129737Y0257866D01*
X0128796Y0257477D01*
X0128077Y0256757D01*
X0127687Y0255816D01*
X0127687Y0246826D01*
X0128077Y0245885D01*
X0128796Y0245165D01*
X0129737Y0244776D01*
X0138728Y0244776D01*
X0139668Y0245165D01*
X0140659Y0246539D02*
X0179166Y0246539D01*
X0179166Y0246499D02*
X0182687Y0246499D01*
X0182687Y0246401D01*
X0182785Y0246401D01*
X0182785Y0242880D01*
X0184925Y0242880D01*
X0185330Y0242988D01*
X0185692Y0243198D01*
X0185988Y0243494D01*
X0186198Y0243857D01*
X0186306Y0244261D01*
X0186306Y0246401D01*
X0182786Y0246401D01*
X0182786Y0246499D01*
X0186306Y0246499D01*
X0186306Y0248639D01*
X0186198Y0249043D01*
X0185988Y0249406D01*
X0185692Y0249702D01*
X0185330Y0249912D01*
X0184925Y0250020D01*
X0182785Y0250020D01*
X0182785Y0246499D01*
X0182687Y0246499D01*
X0182687Y0250020D01*
X0180547Y0250020D01*
X0180143Y0249912D01*
X0179780Y0249702D01*
X0179484Y0249406D01*
X0179275Y0249043D01*
X0179166Y0248639D01*
X0179166Y0246499D01*
X0179166Y0247719D02*
X0140778Y0247719D01*
X0140778Y0248898D02*
X0179236Y0248898D01*
X0182687Y0248898D02*
X0182785Y0248898D01*
X0182785Y0247719D02*
X0182687Y0247719D01*
X0182687Y0246539D02*
X0182785Y0246539D01*
X0182785Y0245360D02*
X0182687Y0245360D01*
X0182687Y0244180D02*
X0182785Y0244180D01*
X0182785Y0243000D02*
X0182687Y0243000D01*
X0180122Y0243000D02*
X0152077Y0243000D01*
X0152638Y0241821D02*
X0205315Y0241821D01*
X0205315Y0242079D02*
X0205315Y0208759D01*
X0204611Y0208055D01*
X0204221Y0207115D01*
X0204221Y0202334D01*
X0204611Y0201394D01*
X0205302Y0200702D01*
X0205302Y0194214D01*
X0205315Y0194183D01*
X0205315Y0181536D01*
X0205146Y0181605D01*
X0200366Y0181605D01*
X0199425Y0181216D01*
X0198705Y0180496D01*
X0198316Y0179555D01*
X0198316Y0174775D01*
X0198705Y0173835D01*
X0199409Y0173131D01*
X0199409Y0155945D01*
X0199241Y0156015D01*
X0194460Y0156015D01*
X0193520Y0155625D01*
X0192800Y0154905D01*
X0192410Y0153965D01*
X0192410Y0149185D01*
X0192800Y0148244D01*
X0193504Y0147540D01*
X0193504Y0128051D01*
X0192800Y0127346D01*
X0192410Y0126406D01*
X0192410Y0121626D01*
X0192800Y0120685D01*
X0193520Y0119965D01*
X0194460Y0119576D01*
X0199241Y0119576D01*
X0199409Y0119646D01*
X0199409Y0074137D01*
X0199919Y0072908D01*
X0200860Y0071966D01*
X0200860Y0071966D01*
X0208158Y0064668D01*
X0208158Y0062570D01*
X0208228Y0062402D01*
X0207996Y0062402D01*
X0206766Y0061892D01*
X0205824Y0060951D01*
X0205315Y0059721D01*
X0205315Y0015082D01*
X0205824Y0013852D01*
X0206766Y0012911D01*
X0207996Y0012402D01*
X0227044Y0012402D01*
X0228274Y0012911D01*
X0229215Y0013852D01*
X0229724Y0015082D01*
X0229724Y0042004D01*
X0229215Y0043234D01*
X0228274Y0044176D01*
X0227044Y0044685D01*
X0223819Y0044685D01*
X0223819Y0045866D01*
X0227044Y0045866D01*
X0228274Y0046376D01*
X0229215Y0047317D01*
X0229724Y0048547D01*
X0229724Y0059721D01*
X0229215Y0060951D01*
X0228274Y0061892D01*
X0227044Y0062402D01*
X0226575Y0062402D01*
X0226575Y0063814D01*
X0225945Y0065334D01*
X0224783Y0066497D01*
X0218701Y0072578D01*
X0218701Y0099401D01*
X0247163Y0070939D01*
X0248104Y0069998D01*
X0249334Y0069488D01*
X0263682Y0069488D01*
X0264386Y0068784D01*
X0265326Y0068394D01*
X0270107Y0068394D01*
X0271047Y0068784D01*
X0271767Y0069504D01*
X0272157Y0070445D01*
X0272157Y0075225D01*
X0271767Y0076165D01*
X0271047Y0076885D01*
X0270107Y0077275D01*
X0265326Y0077275D01*
X0264386Y0076885D01*
X0263682Y0076181D01*
X0251386Y0076181D01*
X0223819Y0103748D01*
X0223819Y0122713D01*
X0223309Y0123943D01*
X0222944Y0124308D01*
X0222944Y0126406D01*
X0222554Y0127346D01*
X0221835Y0128066D01*
X0220894Y0128456D01*
X0216114Y0128456D01*
X0215173Y0128066D01*
X0214453Y0127346D01*
X0214064Y0126406D01*
X0214064Y0121626D01*
X0214453Y0120685D01*
X0215173Y0119965D01*
X0216114Y0119576D01*
X0217126Y0119576D01*
X0217126Y0109586D01*
X0216909Y0109804D01*
X0213102Y0113611D01*
X0213102Y0114595D01*
X0212712Y0115535D01*
X0212008Y0116240D01*
X0212008Y0145571D01*
X0212712Y0146276D01*
X0213102Y0147216D01*
X0213102Y0151996D01*
X0212712Y0152937D01*
X0212008Y0153641D01*
X0212008Y0194183D01*
X0212020Y0194214D01*
X0212020Y0200702D01*
X0212712Y0201394D01*
X0213102Y0202334D01*
X0213102Y0207115D01*
X0212712Y0208055D01*
X0212008Y0208759D01*
X0212008Y0241461D01*
X0212458Y0241911D01*
X0214752Y0241911D01*
X0215693Y0242301D01*
X0216413Y0243021D01*
X0216802Y0243961D01*
X0216802Y0248939D01*
X0216413Y0249879D01*
X0215693Y0250599D01*
X0214752Y0250989D01*
X0209775Y0250989D01*
X0208835Y0250599D01*
X0208115Y0249879D01*
X0207725Y0248939D01*
X0207725Y0246644D01*
X0206960Y0245879D01*
X0206960Y0248939D01*
X0206570Y0249879D01*
X0205850Y0250599D01*
X0204910Y0250989D01*
X0199933Y0250989D01*
X0198992Y0250599D01*
X0198272Y0249879D01*
X0197883Y0248939D01*
X0197883Y0243961D01*
X0198272Y0243021D01*
X0198992Y0242301D01*
X0199933Y0241911D01*
X0204910Y0241911D01*
X0205315Y0242079D01*
X0205315Y0240641D02*
X0152638Y0240641D01*
X0152638Y0239462D02*
X0205315Y0239462D01*
X0205315Y0238282D02*
X0152638Y0238282D01*
X0152638Y0237102D02*
X0205315Y0237102D01*
X0205315Y0235923D02*
X0152638Y0235923D01*
X0152301Y0234743D02*
X0205315Y0234743D01*
X0205315Y0233564D02*
X0151672Y0233564D01*
X0152498Y0232384D02*
X0205315Y0232384D01*
X0205315Y0231204D02*
X0157387Y0231204D01*
X0158566Y0230025D02*
X0205315Y0230025D01*
X0205315Y0228845D02*
X0159746Y0228845D01*
X0160925Y0227665D02*
X0205315Y0227665D01*
X0205315Y0226486D02*
X0162105Y0226486D01*
X0162700Y0225306D02*
X0205315Y0225306D01*
X0205315Y0224127D02*
X0162795Y0224127D01*
X0162795Y0222947D02*
X0205315Y0222947D01*
X0205315Y0221767D02*
X0162795Y0221767D01*
X0162795Y0220588D02*
X0205315Y0220588D01*
X0205315Y0219408D02*
X0162795Y0219408D01*
X0162795Y0218229D02*
X0205315Y0218229D01*
X0205315Y0217049D02*
X0162795Y0217049D01*
X0162795Y0215869D02*
X0205315Y0215869D01*
X0205315Y0214690D02*
X0162795Y0214690D01*
X0162795Y0213510D02*
X0205315Y0213510D01*
X0205315Y0212330D02*
X0162795Y0212330D01*
X0162795Y0211151D02*
X0205315Y0211151D01*
X0205315Y0209971D02*
X0162795Y0209971D01*
X0162795Y0208792D02*
X0205315Y0208792D01*
X0204427Y0207612D02*
X0162795Y0207612D01*
X0162795Y0206432D02*
X0204221Y0206432D01*
X0204221Y0205253D02*
X0162795Y0205253D01*
X0162795Y0204073D02*
X0204221Y0204073D01*
X0204221Y0202894D02*
X0162795Y0202894D01*
X0162795Y0201714D02*
X0204478Y0201714D01*
X0205302Y0200534D02*
X0162795Y0200534D01*
X0162795Y0199355D02*
X0205302Y0199355D01*
X0205302Y0198175D02*
X0162795Y0198175D01*
X0162795Y0196995D02*
X0205302Y0196995D01*
X0205302Y0195816D02*
X0162795Y0195816D01*
X0162795Y0194636D02*
X0205302Y0194636D01*
X0205315Y0193457D02*
X0162795Y0193457D01*
X0162795Y0192277D02*
X0205315Y0192277D01*
X0205315Y0191097D02*
X0190244Y0191097D01*
X0190339Y0191058D02*
X0189398Y0191448D01*
X0184618Y0191448D01*
X0183677Y0191058D01*
X0182957Y0190339D01*
X0182568Y0189398D01*
X0182568Y0184618D01*
X0182957Y0183677D01*
X0183661Y0182973D01*
X0183661Y0088680D01*
X0182957Y0087976D01*
X0182568Y0087036D01*
X0182568Y0082256D01*
X0182957Y0081315D01*
X0183677Y0080595D01*
X0184618Y0080206D01*
X0189398Y0080206D01*
X0190339Y0080595D01*
X0191058Y0081315D01*
X0191448Y0082256D01*
X0191448Y0087036D01*
X0191058Y0087976D01*
X0190354Y0088680D01*
X0190354Y0182973D01*
X0191058Y0183677D01*
X0191448Y0184618D01*
X0191448Y0189398D01*
X0191058Y0190339D01*
X0190339Y0191058D01*
X0191233Y0189918D02*
X0205315Y0189918D01*
X0205315Y0188738D02*
X0191448Y0188738D01*
X0191448Y0187559D02*
X0205315Y0187559D01*
X0205315Y0186379D02*
X0191448Y0186379D01*
X0191448Y0185199D02*
X0205315Y0185199D01*
X0205315Y0184020D02*
X0191200Y0184020D01*
X0190354Y0182840D02*
X0205315Y0182840D01*
X0205315Y0181661D02*
X0190354Y0181661D01*
X0190354Y0180481D02*
X0198699Y0180481D01*
X0198316Y0179301D02*
X0190354Y0179301D01*
X0190354Y0178122D02*
X0198316Y0178122D01*
X0198316Y0176942D02*
X0190354Y0176942D01*
X0190354Y0175762D02*
X0198316Y0175762D01*
X0198395Y0174583D02*
X0190354Y0174583D01*
X0190354Y0173403D02*
X0199137Y0173403D01*
X0199409Y0172224D02*
X0190354Y0172224D01*
X0190354Y0171044D02*
X0199409Y0171044D01*
X0199409Y0169864D02*
X0190354Y0169864D01*
X0190354Y0168685D02*
X0199409Y0168685D01*
X0199409Y0167505D02*
X0190354Y0167505D01*
X0190354Y0166326D02*
X0199409Y0166326D01*
X0199409Y0165146D02*
X0190354Y0165146D01*
X0190354Y0163966D02*
X0199409Y0163966D01*
X0199409Y0162787D02*
X0190354Y0162787D01*
X0190354Y0161607D02*
X0199409Y0161607D01*
X0199409Y0160427D02*
X0190354Y0160427D01*
X0190354Y0159248D02*
X0199409Y0159248D01*
X0199409Y0158068D02*
X0190354Y0158068D01*
X0190354Y0156889D02*
X0199409Y0156889D01*
X0193722Y0155709D02*
X0190354Y0155709D01*
X0190354Y0154529D02*
X0192644Y0154529D01*
X0192410Y0153350D02*
X0190354Y0153350D01*
X0190354Y0152170D02*
X0192410Y0152170D01*
X0192410Y0150991D02*
X0190354Y0150991D01*
X0190354Y0149811D02*
X0192410Y0149811D01*
X0192639Y0148631D02*
X0190354Y0148631D01*
X0190354Y0147452D02*
X0193504Y0147452D01*
X0193504Y0146272D02*
X0190354Y0146272D01*
X0190354Y0145092D02*
X0193504Y0145092D01*
X0193504Y0143913D02*
X0190354Y0143913D01*
X0190354Y0142733D02*
X0193504Y0142733D01*
X0193504Y0141554D02*
X0190354Y0141554D01*
X0190354Y0140374D02*
X0193504Y0140374D01*
X0193504Y0139194D02*
X0190354Y0139194D01*
X0190354Y0138015D02*
X0193504Y0138015D01*
X0193504Y0136835D02*
X0190354Y0136835D01*
X0190354Y0135656D02*
X0193504Y0135656D01*
X0193504Y0134476D02*
X0190354Y0134476D01*
X0190354Y0133296D02*
X0193504Y0133296D01*
X0193504Y0132117D02*
X0190354Y0132117D01*
X0190354Y0130937D02*
X0193504Y0130937D01*
X0193504Y0129758D02*
X0190354Y0129758D01*
X0190354Y0128578D02*
X0193504Y0128578D01*
X0192852Y0127398D02*
X0190354Y0127398D01*
X0190354Y0126219D02*
X0192410Y0126219D01*
X0192410Y0125039D02*
X0190354Y0125039D01*
X0190354Y0123859D02*
X0192410Y0123859D01*
X0192410Y0122680D02*
X0190354Y0122680D01*
X0190354Y0121500D02*
X0192462Y0121500D01*
X0193164Y0120321D02*
X0190354Y0120321D01*
X0190354Y0119141D02*
X0199409Y0119141D01*
X0199409Y0117961D02*
X0190354Y0117961D01*
X0190354Y0116782D02*
X0199409Y0116782D01*
X0199409Y0115602D02*
X0190354Y0115602D01*
X0190354Y0114423D02*
X0199409Y0114423D01*
X0199409Y0113243D02*
X0190354Y0113243D01*
X0190354Y0112063D02*
X0199409Y0112063D01*
X0199409Y0110884D02*
X0190354Y0110884D01*
X0190354Y0109704D02*
X0199409Y0109704D01*
X0199409Y0108524D02*
X0190354Y0108524D01*
X0190354Y0107345D02*
X0199409Y0107345D01*
X0199409Y0106165D02*
X0190354Y0106165D01*
X0190354Y0104986D02*
X0199409Y0104986D01*
X0199409Y0103806D02*
X0190354Y0103806D01*
X0190354Y0102626D02*
X0199409Y0102626D01*
X0199409Y0101447D02*
X0190354Y0101447D01*
X0190354Y0100267D02*
X0199409Y0100267D01*
X0199409Y0099088D02*
X0190354Y0099088D01*
X0190354Y0097908D02*
X0199409Y0097908D01*
X0199409Y0096728D02*
X0190354Y0096728D01*
X0190354Y0095549D02*
X0199409Y0095549D01*
X0199409Y0094369D02*
X0190354Y0094369D01*
X0190354Y0093189D02*
X0199409Y0093189D01*
X0199409Y0092010D02*
X0190354Y0092010D01*
X0190354Y0090830D02*
X0199409Y0090830D01*
X0199409Y0089651D02*
X0190354Y0089651D01*
X0190564Y0088471D02*
X0199409Y0088471D01*
X0199409Y0087291D02*
X0191342Y0087291D01*
X0191448Y0086112D02*
X0199409Y0086112D01*
X0199409Y0084932D02*
X0191448Y0084932D01*
X0191448Y0083753D02*
X0199409Y0083753D01*
X0199409Y0082573D02*
X0191448Y0082573D01*
X0191091Y0081393D02*
X0199409Y0081393D01*
X0199409Y0080214D02*
X0189418Y0080214D01*
X0184598Y0080214D02*
X0156890Y0080214D01*
X0156890Y0081393D02*
X0182925Y0081393D01*
X0182568Y0082573D02*
X0162789Y0082573D01*
X0163694Y0083753D02*
X0182568Y0083753D01*
X0182568Y0084932D02*
X0163889Y0084932D01*
X0163889Y0086112D02*
X0182568Y0086112D01*
X0182674Y0087291D02*
X0164859Y0087291D01*
X0166038Y0088471D02*
X0183452Y0088471D01*
X0183661Y0089651D02*
X0167218Y0089651D01*
X0168277Y0090830D02*
X0183661Y0090830D01*
X0183661Y0092010D02*
X0168701Y0092010D01*
X0168701Y0093189D02*
X0183661Y0093189D01*
X0183661Y0094369D02*
X0168701Y0094369D01*
X0168701Y0095549D02*
X0183661Y0095549D01*
X0183661Y0096728D02*
X0168701Y0096728D01*
X0168701Y0097908D02*
X0183661Y0097908D01*
X0183661Y0099088D02*
X0168701Y0099088D01*
X0168701Y0100267D02*
X0183661Y0100267D01*
X0183661Y0101447D02*
X0168701Y0101447D01*
X0168701Y0102626D02*
X0183661Y0102626D01*
X0183661Y0103806D02*
X0168701Y0103806D01*
X0168701Y0104986D02*
X0183661Y0104986D01*
X0183661Y0106165D02*
X0168701Y0106165D01*
X0168701Y0107345D02*
X0183661Y0107345D01*
X0183661Y0108524D02*
X0168701Y0108524D01*
X0168701Y0109704D02*
X0183661Y0109704D01*
X0183661Y0110884D02*
X0168701Y0110884D01*
X0168701Y0112063D02*
X0183661Y0112063D01*
X0183661Y0113243D02*
X0168701Y0113243D01*
X0168701Y0114423D02*
X0183661Y0114423D01*
X0183661Y0115602D02*
X0168701Y0115602D01*
X0168701Y0116782D02*
X0183661Y0116782D01*
X0183661Y0117961D02*
X0168701Y0117961D01*
X0168701Y0119141D02*
X0183661Y0119141D01*
X0183661Y0120321D02*
X0168701Y0120321D01*
X0168701Y0121500D02*
X0183661Y0121500D01*
X0183661Y0122680D02*
X0168701Y0122680D01*
X0168701Y0123859D02*
X0183661Y0123859D01*
X0183661Y0125039D02*
X0168701Y0125039D01*
X0168701Y0126219D02*
X0183661Y0126219D01*
X0183661Y0127398D02*
X0168701Y0127398D01*
X0168701Y0128578D02*
X0183661Y0128578D01*
X0183661Y0129758D02*
X0168701Y0129758D01*
X0168701Y0130937D02*
X0183661Y0130937D01*
X0183661Y0132117D02*
X0168701Y0132117D01*
X0168701Y0133296D02*
X0183661Y0133296D01*
X0183661Y0134476D02*
X0168701Y0134476D01*
X0168701Y0135656D02*
X0183661Y0135656D01*
X0183661Y0136835D02*
X0168701Y0136835D01*
X0168701Y0138015D02*
X0183661Y0138015D01*
X0183661Y0139194D02*
X0168701Y0139194D01*
X0169407Y0140374D02*
X0183661Y0140374D01*
X0183661Y0141554D02*
X0169794Y0141554D01*
X0169794Y0142733D02*
X0183661Y0142733D01*
X0183661Y0143913D02*
X0169794Y0143913D01*
X0169794Y0145092D02*
X0183661Y0145092D01*
X0183661Y0146272D02*
X0169719Y0146272D01*
X0168985Y0147452D02*
X0183661Y0147452D01*
X0183661Y0148631D02*
X0162795Y0148631D01*
X0162795Y0149811D02*
X0183661Y0149811D01*
X0183661Y0150991D02*
X0162795Y0150991D01*
X0162795Y0152170D02*
X0183661Y0152170D01*
X0183661Y0153350D02*
X0162795Y0153350D01*
X0162795Y0154529D02*
X0183661Y0154529D01*
X0183661Y0155709D02*
X0162795Y0155709D01*
X0162795Y0156889D02*
X0183661Y0156889D01*
X0183661Y0158068D02*
X0162795Y0158068D01*
X0162795Y0159248D02*
X0183661Y0159248D01*
X0183661Y0160427D02*
X0162795Y0160427D01*
X0162795Y0161607D02*
X0183661Y0161607D01*
X0183661Y0162787D02*
X0162795Y0162787D01*
X0162795Y0163966D02*
X0183661Y0163966D01*
X0183661Y0165146D02*
X0162795Y0165146D01*
X0162795Y0166326D02*
X0183661Y0166326D01*
X0183661Y0167505D02*
X0162795Y0167505D01*
X0162795Y0168685D02*
X0183661Y0168685D01*
X0183661Y0169864D02*
X0162795Y0169864D01*
X0162795Y0171044D02*
X0183661Y0171044D01*
X0183661Y0172224D02*
X0162795Y0172224D01*
X0162795Y0173403D02*
X0183661Y0173403D01*
X0183661Y0174583D02*
X0162795Y0174583D01*
X0162795Y0175762D02*
X0183661Y0175762D01*
X0183661Y0176942D02*
X0162795Y0176942D01*
X0162795Y0178122D02*
X0183661Y0178122D01*
X0183661Y0179301D02*
X0162795Y0179301D01*
X0162795Y0180481D02*
X0183661Y0180481D01*
X0183661Y0181661D02*
X0162795Y0181661D01*
X0162795Y0182840D02*
X0183661Y0182840D01*
X0182815Y0184020D02*
X0162795Y0184020D01*
X0162795Y0185199D02*
X0182568Y0185199D01*
X0182568Y0186379D02*
X0162795Y0186379D01*
X0162795Y0187559D02*
X0182568Y0187559D01*
X0182568Y0188738D02*
X0162795Y0188738D01*
X0162795Y0189918D02*
X0182783Y0189918D01*
X0183771Y0191097D02*
X0162795Y0191097D01*
X0129724Y0191097D02*
X0112708Y0191097D01*
X0112708Y0189918D02*
X0129724Y0189918D01*
X0129724Y0188738D02*
X0112708Y0188738D01*
X0112263Y0187559D02*
X0129724Y0187559D01*
X0129724Y0186379D02*
X0094685Y0186379D01*
X0094685Y0187559D02*
X0104273Y0187559D01*
X0102362Y0188738D02*
X0097980Y0188738D01*
X0099740Y0189918D02*
X0101182Y0189918D01*
X0094934Y0188738D02*
X0094685Y0188738D01*
X0094685Y0185199D02*
X0129724Y0185199D01*
X0129724Y0184020D02*
X0094685Y0184020D01*
X0094685Y0182840D02*
X0129724Y0182840D01*
X0129724Y0181661D02*
X0094685Y0181661D01*
X0094685Y0180481D02*
X0129724Y0180481D01*
X0129724Y0179301D02*
X0094685Y0179301D01*
X0094685Y0178122D02*
X0129724Y0178122D01*
X0129724Y0176942D02*
X0094685Y0176942D01*
X0094685Y0175762D02*
X0129724Y0175762D01*
X0129724Y0174583D02*
X0094685Y0174583D01*
X0094685Y0173403D02*
X0124770Y0173403D01*
X0123737Y0172224D02*
X0094685Y0172224D01*
X0094685Y0171044D02*
X0123513Y0171044D01*
X0123513Y0169864D02*
X0094685Y0169864D01*
X0094685Y0168685D02*
X0123513Y0168685D01*
X0123513Y0167505D02*
X0094685Y0167505D01*
X0094685Y0166326D02*
X0123751Y0166326D01*
X0123819Y0165146D02*
X0094685Y0165146D01*
X0094685Y0163966D02*
X0123819Y0163966D01*
X0123819Y0162787D02*
X0094685Y0162787D01*
X0094685Y0161607D02*
X0123819Y0161607D01*
X0123819Y0160427D02*
X0094685Y0160427D01*
X0094685Y0159248D02*
X0123819Y0159248D01*
X0123819Y0158068D02*
X0094685Y0158068D01*
X0094685Y0156889D02*
X0123819Y0156889D01*
X0123819Y0155709D02*
X0094685Y0155709D01*
X0094685Y0154529D02*
X0123819Y0154529D01*
X0123819Y0153350D02*
X0094685Y0153350D01*
X0094685Y0152170D02*
X0123819Y0152170D01*
X0123819Y0150991D02*
X0094685Y0150991D01*
X0094685Y0149811D02*
X0123819Y0149811D01*
X0123819Y0148631D02*
X0094685Y0148631D01*
X0094685Y0147452D02*
X0123819Y0147452D01*
X0123819Y0146272D02*
X0094685Y0146272D01*
X0094685Y0145092D02*
X0123819Y0145092D01*
X0123819Y0143913D02*
X0094685Y0143913D01*
X0094685Y0142733D02*
X0123819Y0142733D01*
X0123819Y0141554D02*
X0094685Y0141554D01*
X0094685Y0140374D02*
X0123819Y0140374D01*
X0123819Y0139194D02*
X0094685Y0139194D01*
X0094685Y0138015D02*
X0123819Y0138015D01*
X0123819Y0136835D02*
X0094748Y0136835D01*
X0094991Y0135656D02*
X0123819Y0135656D01*
X0123819Y0134476D02*
X0094991Y0134476D01*
X0094991Y0133296D02*
X0123819Y0133296D01*
X0123819Y0132117D02*
X0094991Y0132117D01*
X0094771Y0130937D02*
X0123819Y0130937D01*
X0123819Y0129758D02*
X0123687Y0129758D01*
X0116471Y0129758D02*
X0093761Y0129758D01*
X0087342Y0129758D02*
X0077731Y0129758D01*
X0076551Y0130937D02*
X0086331Y0130937D01*
X0086111Y0132117D02*
X0075372Y0132117D01*
X0074213Y0133296D02*
X0086111Y0133296D01*
X0086111Y0134476D02*
X0074213Y0134476D01*
X0074213Y0135656D02*
X0086111Y0135656D01*
X0086354Y0136835D02*
X0074213Y0136835D01*
X0074213Y0138015D02*
X0086417Y0138015D01*
X0086417Y0139194D02*
X0074213Y0139194D01*
X0074213Y0140374D02*
X0086417Y0140374D01*
X0086417Y0141554D02*
X0074213Y0141554D01*
X0074213Y0142733D02*
X0086417Y0142733D01*
X0086417Y0143913D02*
X0074213Y0143913D01*
X0074213Y0145092D02*
X0086417Y0145092D01*
X0086417Y0146272D02*
X0074213Y0146272D01*
X0074213Y0147452D02*
X0086417Y0147452D01*
X0086417Y0148631D02*
X0074213Y0148631D01*
X0074213Y0149811D02*
X0086417Y0149811D01*
X0086417Y0150991D02*
X0074213Y0150991D01*
X0074213Y0152170D02*
X0086417Y0152170D01*
X0086417Y0153350D02*
X0074213Y0153350D01*
X0074213Y0154529D02*
X0086417Y0154529D01*
X0055241Y0167505D02*
X0055064Y0167505D01*
X0055241Y0168685D02*
X0054319Y0168685D01*
X0055241Y0169864D02*
X0053359Y0169864D01*
X0052400Y0171044D02*
X0055241Y0171044D01*
X0055241Y0172224D02*
X0051440Y0172224D01*
X0049862Y0173403D02*
X0055241Y0173403D01*
X0055241Y0174583D02*
X0048190Y0174583D01*
X0046779Y0175579D02*
X0046779Y0175579D01*
X0046263Y0175762D02*
X0055241Y0175762D01*
X0055241Y0176942D02*
X0042944Y0176942D01*
X0031802Y0176942D02*
X0002608Y0176942D01*
X0002608Y0175762D02*
X0028791Y0175762D01*
X0030575Y0176687D02*
X0030575Y0176687D01*
X0026514Y0174583D02*
X0022810Y0174583D01*
X0023859Y0173403D02*
X0024865Y0173403D01*
X0019863Y0167505D02*
X0011581Y0167505D01*
X0012117Y0168042D02*
X0012717Y0169489D01*
X0012717Y0171055D01*
X0012117Y0172502D01*
X0011010Y0173609D01*
X0009563Y0174209D01*
X0007996Y0174209D01*
X0007795Y0174125D01*
X0007594Y0174209D01*
X0006028Y0174209D01*
X0004581Y0173609D01*
X0003473Y0172502D01*
X0002874Y0171055D01*
X0002874Y0169489D01*
X0003473Y0168042D01*
X0004581Y0166934D01*
X0006028Y0166335D01*
X0007594Y0166335D01*
X0007795Y0166418D01*
X0007996Y0166335D01*
X0009563Y0166335D01*
X0011010Y0166934D01*
X0012117Y0168042D01*
X0012384Y0168685D02*
X0016276Y0168685D01*
X0015440Y0169864D02*
X0012717Y0169864D01*
X0012717Y0171044D02*
X0015098Y0171044D01*
X0015101Y0172224D02*
X0012232Y0172224D01*
X0011216Y0173403D02*
X0015590Y0173403D01*
X0016639Y0174583D02*
X0002608Y0174583D01*
X0002608Y0173403D02*
X0004375Y0173403D01*
X0003358Y0172224D02*
X0002608Y0172224D01*
X0002608Y0171044D02*
X0002874Y0171044D01*
X0002874Y0169864D02*
X0002608Y0169864D01*
X0002608Y0168685D02*
X0003207Y0168685D01*
X0002608Y0167505D02*
X0004010Y0167505D01*
X0002608Y0166326D02*
X0019146Y0166326D01*
X0018705Y0165601D02*
X0018705Y0165601D01*
X0018578Y0165146D02*
X0002608Y0165146D01*
X0002608Y0163966D02*
X0018247Y0163966D01*
X0017917Y0162787D02*
X0002608Y0162787D01*
X0002608Y0161607D02*
X0017586Y0161607D01*
X0017256Y0160427D02*
X0002608Y0160427D01*
X0002608Y0159248D02*
X0017208Y0159248D01*
X0017208Y0158068D02*
X0002608Y0158068D01*
X0002608Y0156889D02*
X0017208Y0156889D01*
X0017208Y0155709D02*
X0002608Y0155709D01*
X0002608Y0154529D02*
X0017257Y0154529D01*
X0017587Y0153350D02*
X0002608Y0153350D01*
X0002608Y0152170D02*
X0017918Y0152170D01*
X0018248Y0150991D02*
X0002608Y0150991D01*
X0002608Y0149811D02*
X0018579Y0149811D01*
X0018705Y0149359D02*
X0018705Y0149359D01*
X0019148Y0148631D02*
X0002608Y0148631D01*
X0002608Y0147452D02*
X0019865Y0147452D01*
X0020583Y0146272D02*
X0002608Y0146272D01*
X0002608Y0145092D02*
X0021300Y0145092D01*
X0021590Y0144616D02*
X0021590Y0144616D01*
X0021590Y0144616D01*
X0022343Y0143913D02*
X0002608Y0143913D01*
X0002608Y0142733D02*
X0023606Y0142733D01*
X0024869Y0141554D02*
X0002608Y0141554D01*
X0002608Y0140374D02*
X0021227Y0140374D01*
X0018504Y0139194D02*
X0002608Y0139194D01*
X0002608Y0138015D02*
X0017325Y0138015D01*
X0016334Y0136835D02*
X0002608Y0136835D01*
X0002608Y0135656D02*
X0015845Y0135656D01*
X0015356Y0134476D02*
X0002608Y0134476D01*
X0002608Y0133296D02*
X0015316Y0133296D01*
X0015316Y0132117D02*
X0002608Y0132117D01*
X0002608Y0130937D02*
X0015316Y0130937D01*
X0015316Y0129758D02*
X0002608Y0129758D01*
X0002608Y0128578D02*
X0015316Y0128578D01*
X0015316Y0127398D02*
X0002608Y0127398D01*
X0002608Y0126219D02*
X0015316Y0126219D01*
X0015316Y0125039D02*
X0002608Y0125039D01*
X0002608Y0123859D02*
X0015316Y0123859D01*
X0015316Y0122680D02*
X0002608Y0122680D01*
X0002608Y0121500D02*
X0015316Y0121500D01*
X0015316Y0120321D02*
X0002608Y0120321D01*
X0002608Y0119141D02*
X0015316Y0119141D01*
X0015316Y0117961D02*
X0002608Y0117961D01*
X0002608Y0116782D02*
X0015316Y0116782D01*
X0015316Y0115602D02*
X0002608Y0115602D01*
X0002608Y0114423D02*
X0015316Y0114423D01*
X0015316Y0113243D02*
X0002608Y0113243D01*
X0002608Y0112063D02*
X0015316Y0112063D01*
X0015316Y0110884D02*
X0002608Y0110884D01*
X0002608Y0109704D02*
X0015316Y0109704D01*
X0015316Y0108524D02*
X0002608Y0108524D01*
X0002608Y0107345D02*
X0015316Y0107345D01*
X0015316Y0106165D02*
X0002608Y0106165D01*
X0002608Y0104986D02*
X0015316Y0104986D01*
X0015316Y0103806D02*
X0002608Y0103806D01*
X0002608Y0102626D02*
X0015316Y0102626D01*
X0015316Y0101447D02*
X0002608Y0101447D01*
X0002608Y0100267D02*
X0015316Y0100267D01*
X0015316Y0099088D02*
X0002608Y0099088D01*
X0002608Y0097908D02*
X0015316Y0097908D01*
X0015316Y0096728D02*
X0002608Y0096728D01*
X0002608Y0095549D02*
X0015316Y0095549D01*
X0015316Y0094369D02*
X0002608Y0094369D01*
X0002608Y0093189D02*
X0015316Y0093189D01*
X0015316Y0092010D02*
X0002608Y0092010D01*
X0002608Y0090830D02*
X0015540Y0090830D01*
X0016029Y0089651D02*
X0002608Y0089651D01*
X0002608Y0088471D02*
X0016589Y0088471D01*
X0017768Y0087291D02*
X0002608Y0087291D01*
X0002608Y0086112D02*
X0019450Y0086112D01*
X0036811Y0080241D02*
X0036811Y0073704D01*
X0036451Y0072835D01*
X0036811Y0071966D01*
X0036811Y0063861D01*
X0036451Y0062992D01*
X0036777Y0062205D01*
X0056359Y0062205D01*
X0064764Y0070610D01*
X0064764Y0087448D01*
X0058129Y0080813D01*
X0056748Y0080241D01*
X0036811Y0080241D01*
X0036811Y0080214D02*
X0064764Y0080214D01*
X0064764Y0081393D02*
X0058709Y0081393D01*
X0059889Y0082573D02*
X0064764Y0082573D01*
X0064764Y0083753D02*
X0061069Y0083753D01*
X0062248Y0084932D02*
X0064764Y0084932D01*
X0064764Y0086112D02*
X0063428Y0086112D01*
X0064608Y0087291D02*
X0064764Y0087291D01*
X0064764Y0079034D02*
X0036811Y0079034D01*
X0036811Y0077855D02*
X0064764Y0077855D01*
X0064764Y0076675D02*
X0036811Y0076675D01*
X0036811Y0075495D02*
X0064764Y0075495D01*
X0064764Y0074316D02*
X0036811Y0074316D01*
X0036576Y0073136D02*
X0064764Y0073136D01*
X0064764Y0071956D02*
X0036811Y0071956D01*
X0036811Y0070777D02*
X0064764Y0070777D01*
X0063751Y0069597D02*
X0036811Y0069597D01*
X0036811Y0068418D02*
X0062571Y0068418D01*
X0061392Y0067238D02*
X0036811Y0067238D01*
X0036811Y0066058D02*
X0060212Y0066058D01*
X0059033Y0064879D02*
X0036811Y0064879D01*
X0036744Y0063699D02*
X0057853Y0063699D01*
X0056673Y0062520D02*
X0036647Y0062520D01*
X0051647Y0039958D02*
X0051647Y0039958D01*
X0054546Y0038927D02*
X0084151Y0038927D01*
X0084792Y0037748D02*
X0057375Y0037748D01*
X0056878Y0038099D02*
X0056878Y0038099D01*
X0059046Y0036568D02*
X0205315Y0036568D01*
X0205315Y0035388D02*
X0060717Y0035388D01*
X0061413Y0034897D02*
X0061413Y0034897D01*
X0061973Y0034209D02*
X0205315Y0034209D01*
X0205315Y0033029D02*
X0062933Y0033029D01*
X0063893Y0031850D02*
X0205315Y0031850D01*
X0205315Y0030670D02*
X0064852Y0030670D01*
X0064916Y0030591D02*
X0064916Y0030591D01*
X0065394Y0029490D02*
X0205315Y0029490D01*
X0205315Y0028311D02*
X0065907Y0028311D01*
X0066419Y0027131D02*
X0205315Y0027131D01*
X0205315Y0025952D02*
X0066932Y0025952D01*
X0067228Y0024772D02*
X0205315Y0024772D01*
X0205315Y0023592D02*
X0067390Y0023592D01*
X0067552Y0022413D02*
X0205315Y0022413D01*
X0205315Y0021233D02*
X0067714Y0021233D01*
X0067877Y0020053D02*
X0205315Y0020053D01*
X0205315Y0018874D02*
X0067729Y0018874D01*
X0067567Y0017694D02*
X0205315Y0017694D01*
X0205315Y0016515D02*
X0067405Y0016515D01*
X0067243Y0015335D02*
X0205315Y0015335D01*
X0205699Y0014155D02*
X0066978Y0014155D01*
X0066466Y0012976D02*
X0206701Y0012976D01*
X0228338Y0012976D02*
X0322446Y0012976D01*
X0322306Y0014155D02*
X0229340Y0014155D01*
X0229724Y0015335D02*
X0322306Y0015335D01*
X0322306Y0016515D02*
X0229724Y0016515D01*
X0229724Y0017694D02*
X0322306Y0017694D01*
X0322306Y0018874D02*
X0229724Y0018874D01*
X0229724Y0020053D02*
X0322594Y0020053D01*
X0322925Y0021233D02*
X0305246Y0021233D01*
X0309626Y0022413D02*
X0310610Y0022413D01*
X0310610Y0023592D02*
X0309626Y0023592D01*
X0309626Y0024772D02*
X0310610Y0024772D01*
X0310610Y0025952D02*
X0324765Y0025952D01*
X0325482Y0027131D02*
X0314957Y0027131D01*
X0314957Y0026870D02*
X0314957Y0029835D01*
X0314848Y0030240D01*
X0314639Y0030603D01*
X0314343Y0030899D01*
X0313980Y0031108D01*
X0313576Y0031217D01*
X0310610Y0031217D01*
X0310610Y0026870D01*
X0314957Y0026870D01*
X0314957Y0028311D02*
X0326200Y0028311D01*
X0327091Y0029490D02*
X0314957Y0029490D01*
X0314572Y0030670D02*
X0328354Y0030670D01*
X0329617Y0031850D02*
X0304843Y0031850D01*
X0302559Y0033029D02*
X0330989Y0033029D01*
X0330745Y0032903D02*
X0330745Y0032903D01*
X0333265Y0034209D02*
X0302559Y0034209D01*
X0302559Y0035388D02*
X0335542Y0035388D01*
X0341021Y0036568D02*
X0302559Y0036568D01*
X0302559Y0037748D02*
X0357392Y0037748D01*
X0357392Y0038927D02*
X0302559Y0038927D01*
X0302559Y0040107D02*
X0357392Y0040107D01*
X0357392Y0041286D02*
X0302559Y0041286D01*
X0302559Y0042466D02*
X0357392Y0042466D01*
X0357392Y0043646D02*
X0302559Y0043646D01*
X0302559Y0044825D02*
X0357392Y0044825D01*
X0357392Y0046005D02*
X0302559Y0046005D01*
X0302559Y0047185D02*
X0357392Y0047185D01*
X0357392Y0048364D02*
X0302559Y0048364D01*
X0302559Y0049544D02*
X0357392Y0049544D01*
X0357392Y0050723D02*
X0302559Y0050723D01*
X0302559Y0051903D02*
X0357392Y0051903D01*
X0357392Y0053083D02*
X0302559Y0053083D01*
X0302559Y0054262D02*
X0357392Y0054262D01*
X0357392Y0055442D02*
X0302559Y0055442D01*
X0302559Y0056621D02*
X0357392Y0056621D01*
X0357392Y0057801D02*
X0302559Y0057801D01*
X0302559Y0058981D02*
X0357392Y0058981D01*
X0357392Y0060160D02*
X0302559Y0060160D01*
X0302559Y0061340D02*
X0357392Y0061340D01*
X0357392Y0062520D02*
X0302559Y0062520D01*
X0302559Y0063699D02*
X0357392Y0063699D01*
X0357392Y0064879D02*
X0302559Y0064879D01*
X0302559Y0066058D02*
X0357392Y0066058D01*
X0357392Y0067238D02*
X0302559Y0067238D01*
X0302559Y0068418D02*
X0357392Y0068418D01*
X0357392Y0069597D02*
X0302559Y0069597D01*
X0302559Y0070777D02*
X0357392Y0070777D01*
X0357392Y0071956D02*
X0302559Y0071956D01*
X0302559Y0073136D02*
X0357392Y0073136D01*
X0357392Y0074316D02*
X0302559Y0074316D01*
X0302559Y0075495D02*
X0357392Y0075495D01*
X0334329Y0076675D02*
X0302559Y0076675D01*
X0302559Y0077855D02*
X0332743Y0077855D01*
X0332392Y0079034D02*
X0302559Y0079034D01*
X0302559Y0080214D02*
X0332392Y0080214D01*
X0332392Y0081393D02*
X0302559Y0081393D01*
X0302559Y0082573D02*
X0332392Y0082573D01*
X0332392Y0083753D02*
X0302559Y0083753D01*
X0302559Y0084932D02*
X0332392Y0084932D01*
X0332392Y0086112D02*
X0302559Y0086112D01*
X0302559Y0087291D02*
X0332392Y0087291D01*
X0332392Y0088471D02*
X0302559Y0088471D01*
X0302559Y0089651D02*
X0332392Y0089651D01*
X0332392Y0090830D02*
X0302559Y0090830D01*
X0302559Y0092010D02*
X0332392Y0092010D01*
X0332392Y0093189D02*
X0302559Y0093189D01*
X0302559Y0094369D02*
X0332392Y0094369D01*
X0332392Y0095549D02*
X0302559Y0095549D01*
X0302559Y0096728D02*
X0332392Y0096728D01*
X0332392Y0097908D02*
X0302559Y0097908D01*
X0302559Y0099088D02*
X0332392Y0099088D01*
X0332392Y0100267D02*
X0302559Y0100267D01*
X0302559Y0101447D02*
X0332392Y0101447D01*
X0332392Y0102626D02*
X0302559Y0102626D01*
X0302559Y0103806D02*
X0332392Y0103806D01*
X0332392Y0104986D02*
X0302559Y0104986D01*
X0302559Y0106165D02*
X0332392Y0106165D01*
X0332392Y0107345D02*
X0302559Y0107345D01*
X0302559Y0108524D02*
X0332392Y0108524D01*
X0332392Y0109704D02*
X0302559Y0109704D01*
X0302559Y0110884D02*
X0332392Y0110884D01*
X0332392Y0112063D02*
X0302559Y0112063D01*
X0302559Y0113243D02*
X0332392Y0113243D01*
X0332392Y0114423D02*
X0302559Y0114423D01*
X0302559Y0115602D02*
X0332392Y0115602D01*
X0332392Y0116782D02*
X0302559Y0116782D01*
X0302559Y0117961D02*
X0332392Y0117961D01*
X0332392Y0119141D02*
X0302559Y0119141D01*
X0302559Y0120321D02*
X0332392Y0120321D01*
X0332392Y0121500D02*
X0302559Y0121500D01*
X0302559Y0122680D02*
X0332392Y0122680D01*
X0332392Y0123859D02*
X0302559Y0123859D01*
X0302559Y0125039D02*
X0332392Y0125039D01*
X0303255Y0126219D02*
X0302559Y0126219D01*
X0289961Y0126219D02*
X0288780Y0126219D01*
X0288780Y0127398D02*
X0289961Y0127398D01*
X0289961Y0128578D02*
X0288780Y0128578D01*
X0288780Y0129758D02*
X0289961Y0129758D01*
X0289961Y0130937D02*
X0288780Y0130937D01*
X0288780Y0132117D02*
X0289961Y0132117D01*
X0289961Y0133296D02*
X0288780Y0133296D01*
X0288780Y0134476D02*
X0289961Y0134476D01*
X0289961Y0135656D02*
X0288780Y0135656D01*
X0288780Y0136835D02*
X0289961Y0136835D01*
X0289961Y0138015D02*
X0289097Y0138015D01*
X0289812Y0139194D02*
X0289961Y0139194D01*
X0289961Y0140374D02*
X0289873Y0140374D01*
X0289873Y0141554D02*
X0289961Y0141554D01*
X0289961Y0142733D02*
X0289873Y0142733D01*
X0289873Y0143913D02*
X0289961Y0143913D01*
X0289961Y0145092D02*
X0289454Y0145092D01*
X0289961Y0146272D02*
X0282887Y0146272D01*
X0282887Y0147452D02*
X0289961Y0147452D01*
X0289961Y0148631D02*
X0282887Y0148631D01*
X0282887Y0149811D02*
X0289961Y0149811D01*
X0289961Y0150991D02*
X0282887Y0150991D01*
X0282887Y0152170D02*
X0289961Y0152170D01*
X0289961Y0153350D02*
X0282887Y0153350D01*
X0282887Y0154529D02*
X0289961Y0154529D01*
X0289961Y0155709D02*
X0282887Y0155709D01*
X0282887Y0156889D02*
X0289961Y0156889D01*
X0289961Y0158068D02*
X0282887Y0158068D01*
X0282887Y0159248D02*
X0289961Y0159248D01*
X0289961Y0160427D02*
X0282887Y0160427D01*
X0282887Y0161607D02*
X0289961Y0161607D01*
X0289961Y0162787D02*
X0282887Y0162787D01*
X0282887Y0163966D02*
X0289961Y0163966D01*
X0289961Y0165146D02*
X0282887Y0165146D01*
X0282887Y0166326D02*
X0289961Y0166326D01*
X0289961Y0167505D02*
X0282887Y0167505D01*
X0282887Y0168685D02*
X0289961Y0168685D01*
X0289961Y0169864D02*
X0282887Y0169864D01*
X0282887Y0171044D02*
X0289961Y0171044D01*
X0289961Y0172224D02*
X0282887Y0172224D01*
X0282887Y0173403D02*
X0289961Y0173403D01*
X0289961Y0174583D02*
X0282887Y0174583D01*
X0282887Y0175762D02*
X0289961Y0175762D01*
X0289961Y0176942D02*
X0282887Y0176942D01*
X0282887Y0178122D02*
X0289961Y0178122D01*
X0289961Y0179301D02*
X0282887Y0179301D01*
X0282887Y0180481D02*
X0289961Y0180481D01*
X0289961Y0181661D02*
X0282887Y0181661D01*
X0282887Y0182840D02*
X0289961Y0182840D01*
X0289961Y0184020D02*
X0282887Y0184020D01*
X0282887Y0185199D02*
X0289961Y0185199D01*
X0289961Y0186379D02*
X0282887Y0186379D01*
X0282887Y0187559D02*
X0289961Y0187559D01*
X0289961Y0188738D02*
X0282887Y0188738D01*
X0282887Y0189918D02*
X0289961Y0189918D01*
X0289961Y0191097D02*
X0282887Y0191097D01*
X0282887Y0192277D02*
X0289961Y0192277D01*
X0289961Y0193457D02*
X0282887Y0193457D01*
X0282887Y0194636D02*
X0289961Y0194636D01*
X0289961Y0195816D02*
X0282887Y0195816D01*
X0282887Y0196995D02*
X0289961Y0196995D01*
X0289961Y0198175D02*
X0282887Y0198175D01*
X0282887Y0199355D02*
X0289961Y0199355D01*
X0289961Y0200534D02*
X0282887Y0200534D01*
X0282887Y0201714D02*
X0289961Y0201714D01*
X0289961Y0202894D02*
X0282887Y0202894D01*
X0282887Y0204073D02*
X0289961Y0204073D01*
X0289961Y0205253D02*
X0282887Y0205253D01*
X0282887Y0206432D02*
X0289961Y0206432D01*
X0289961Y0207612D02*
X0282887Y0207612D01*
X0282887Y0208792D02*
X0289961Y0208792D01*
X0289961Y0209971D02*
X0282887Y0209971D01*
X0282887Y0211151D02*
X0289961Y0211151D01*
X0289961Y0212330D02*
X0282887Y0212330D01*
X0282887Y0213510D02*
X0289961Y0213510D01*
X0289961Y0214690D02*
X0282887Y0214690D01*
X0282887Y0215869D02*
X0289961Y0215869D01*
X0289961Y0217049D02*
X0282887Y0217049D01*
X0282887Y0218229D02*
X0289961Y0218229D01*
X0289961Y0219408D02*
X0282887Y0219408D01*
X0282887Y0220588D02*
X0289961Y0220588D01*
X0289961Y0221767D02*
X0282887Y0221767D01*
X0282887Y0222947D02*
X0289961Y0222947D01*
X0289961Y0224127D02*
X0282887Y0224127D01*
X0282887Y0225306D02*
X0289961Y0225306D01*
X0289961Y0226486D02*
X0282887Y0226486D01*
X0283408Y0227665D02*
X0289961Y0227665D01*
X0289961Y0228845D02*
X0284588Y0228845D01*
X0285767Y0230025D02*
X0289961Y0230025D01*
X0289961Y0231204D02*
X0286947Y0231204D01*
X0280985Y0234743D02*
X0263211Y0234743D01*
X0264390Y0235923D02*
X0282164Y0235923D01*
X0283087Y0237102D02*
X0265570Y0237102D01*
X0266750Y0238282D02*
X0276337Y0238282D01*
X0279805Y0233564D02*
X0262031Y0233564D01*
X0260851Y0232384D02*
X0278626Y0232384D01*
X0277446Y0231204D02*
X0259672Y0231204D01*
X0259159Y0230025D02*
X0276509Y0230025D01*
X0276169Y0228845D02*
X0259159Y0228845D01*
X0259159Y0227665D02*
X0276169Y0227665D01*
X0276169Y0226486D02*
X0259159Y0226486D01*
X0259159Y0225306D02*
X0276169Y0225306D01*
X0276169Y0224127D02*
X0259159Y0224127D01*
X0259159Y0222947D02*
X0276169Y0222947D01*
X0276169Y0221767D02*
X0259159Y0221767D01*
X0259159Y0220588D02*
X0276169Y0220588D01*
X0276169Y0219408D02*
X0259159Y0219408D01*
X0259159Y0218229D02*
X0276169Y0218229D01*
X0276169Y0217049D02*
X0259159Y0217049D01*
X0259159Y0215869D02*
X0276169Y0215869D01*
X0276169Y0214690D02*
X0259159Y0214690D01*
X0259159Y0213510D02*
X0276169Y0213510D01*
X0276169Y0212330D02*
X0259159Y0212330D01*
X0259159Y0211151D02*
X0276169Y0211151D01*
X0276169Y0209971D02*
X0259159Y0209971D01*
X0259159Y0208792D02*
X0276169Y0208792D01*
X0276169Y0207612D02*
X0259159Y0207612D01*
X0259159Y0206432D02*
X0276169Y0206432D01*
X0276169Y0205253D02*
X0259159Y0205253D01*
X0259159Y0204073D02*
X0276169Y0204073D01*
X0276169Y0202894D02*
X0259159Y0202894D01*
X0259159Y0201714D02*
X0276169Y0201714D01*
X0276169Y0200534D02*
X0259159Y0200534D01*
X0259159Y0199355D02*
X0276169Y0199355D01*
X0276169Y0198175D02*
X0259159Y0198175D01*
X0259159Y0196995D02*
X0276169Y0196995D01*
X0276169Y0195816D02*
X0259159Y0195816D01*
X0259159Y0194636D02*
X0276169Y0194636D01*
X0276169Y0193457D02*
X0259159Y0193457D01*
X0260191Y0192277D02*
X0276169Y0192277D01*
X0276169Y0191097D02*
X0261370Y0191097D01*
X0262550Y0189918D02*
X0276169Y0189918D01*
X0276169Y0188738D02*
X0263729Y0188738D01*
X0264909Y0187559D02*
X0276169Y0187559D01*
X0276169Y0186379D02*
X0265848Y0186379D01*
X0266159Y0185199D02*
X0276169Y0185199D01*
X0276169Y0184020D02*
X0266159Y0184020D01*
X0266159Y0182840D02*
X0276169Y0182840D01*
X0276169Y0181661D02*
X0266159Y0181661D01*
X0266159Y0180481D02*
X0276169Y0180481D01*
X0276169Y0179301D02*
X0266159Y0179301D01*
X0266159Y0178122D02*
X0276169Y0178122D01*
X0276169Y0176942D02*
X0266159Y0176942D01*
X0266159Y0175762D02*
X0276169Y0175762D01*
X0276169Y0174583D02*
X0266159Y0174583D01*
X0266159Y0173403D02*
X0276169Y0173403D01*
X0276169Y0172224D02*
X0267095Y0172224D01*
X0267440Y0171044D02*
X0276169Y0171044D01*
X0276169Y0169864D02*
X0267440Y0169864D01*
X0267440Y0168685D02*
X0276169Y0168685D01*
X0276169Y0167505D02*
X0267440Y0167505D01*
X0267322Y0166326D02*
X0276169Y0166326D01*
X0269969Y0165146D02*
X0266527Y0165146D01*
X0269248Y0163966D02*
X0258311Y0163966D01*
X0258377Y0163807D02*
X0257988Y0164748D01*
X0257268Y0165468D01*
X0256327Y0165857D01*
X0251547Y0165857D01*
X0250606Y0165468D01*
X0249902Y0164764D01*
X0246161Y0164764D01*
X0245457Y0165468D01*
X0244516Y0165857D01*
X0239736Y0165857D01*
X0238795Y0165468D01*
X0238075Y0164748D01*
X0237686Y0163807D01*
X0237686Y0159027D01*
X0238075Y0158087D01*
X0238795Y0157367D01*
X0239736Y0156977D01*
X0244516Y0156977D01*
X0245457Y0157367D01*
X0246161Y0158071D01*
X0249902Y0158071D01*
X0250606Y0157367D01*
X0251547Y0156977D01*
X0256327Y0156977D01*
X0257268Y0157367D01*
X0257988Y0158087D01*
X0258377Y0159027D01*
X0258377Y0163807D01*
X0258377Y0162787D02*
X0269182Y0162787D01*
X0269182Y0161607D02*
X0258377Y0161607D01*
X0258377Y0160427D02*
X0269182Y0160427D01*
X0269182Y0159248D02*
X0258377Y0159248D01*
X0257969Y0158068D02*
X0269590Y0158068D01*
X0270276Y0156889D02*
X0212008Y0156889D01*
X0212008Y0158068D02*
X0238094Y0158068D01*
X0237686Y0159248D02*
X0212008Y0159248D01*
X0212008Y0160427D02*
X0237686Y0160427D01*
X0237686Y0161607D02*
X0212008Y0161607D01*
X0212008Y0162787D02*
X0237686Y0162787D01*
X0237752Y0163966D02*
X0212008Y0163966D01*
X0212008Y0165146D02*
X0238473Y0165146D01*
X0234125Y0169864D02*
X0258560Y0169864D01*
X0258560Y0168685D02*
X0212008Y0168685D01*
X0212008Y0169864D02*
X0227875Y0169864D01*
X0226794Y0171044D02*
X0212008Y0171044D01*
X0212008Y0172224D02*
X0226560Y0172224D01*
X0226560Y0173403D02*
X0212008Y0173403D01*
X0212008Y0174583D02*
X0226560Y0174583D01*
X0226560Y0175762D02*
X0212008Y0175762D01*
X0212008Y0176942D02*
X0226788Y0176942D01*
X0227841Y0178122D02*
X0212008Y0178122D01*
X0212008Y0179301D02*
X0246834Y0179301D01*
X0247841Y0180481D02*
X0212008Y0180481D01*
X0212008Y0181661D02*
X0234187Y0181661D01*
X0234138Y0181709D02*
X0234858Y0180989D01*
X0235799Y0180599D01*
X0240579Y0180599D01*
X0241520Y0180989D01*
X0242240Y0181709D01*
X0242629Y0182649D01*
X0242629Y0187430D01*
X0242240Y0188370D01*
X0241520Y0189090D01*
X0241348Y0189161D01*
X0241348Y0234912D01*
X0248059Y0241623D01*
X0250422Y0241623D01*
X0251362Y0242012D01*
X0252082Y0242732D01*
X0252472Y0243673D01*
X0252472Y0248453D01*
X0252082Y0249394D01*
X0251362Y0250114D01*
X0250422Y0250503D01*
X0245641Y0250503D01*
X0244701Y0250114D01*
X0243981Y0249394D01*
X0243591Y0248453D01*
X0243591Y0246090D01*
X0235511Y0238010D01*
X0235030Y0236849D01*
X0235030Y0189161D01*
X0234858Y0189090D01*
X0234138Y0188370D01*
X0233749Y0187430D01*
X0233749Y0182649D01*
X0234138Y0181709D01*
X0233749Y0182840D02*
X0212008Y0182840D01*
X0212008Y0184020D02*
X0233749Y0184020D01*
X0233749Y0185199D02*
X0212008Y0185199D01*
X0212008Y0186379D02*
X0233749Y0186379D01*
X0233802Y0187559D02*
X0212008Y0187559D01*
X0212008Y0188738D02*
X0234507Y0188738D01*
X0235030Y0189918D02*
X0212008Y0189918D01*
X0212008Y0191097D02*
X0235030Y0191097D01*
X0235030Y0192277D02*
X0212008Y0192277D01*
X0212008Y0193457D02*
X0235030Y0193457D01*
X0235030Y0194636D02*
X0212020Y0194636D01*
X0212020Y0195816D02*
X0235030Y0195816D01*
X0235030Y0196995D02*
X0212020Y0196995D01*
X0212020Y0198175D02*
X0235030Y0198175D01*
X0235030Y0199355D02*
X0212020Y0199355D01*
X0212020Y0200534D02*
X0235030Y0200534D01*
X0235030Y0201714D02*
X0212845Y0201714D01*
X0213102Y0202894D02*
X0235030Y0202894D01*
X0235030Y0204073D02*
X0213102Y0204073D01*
X0213102Y0205253D02*
X0235030Y0205253D01*
X0235030Y0206432D02*
X0213102Y0206432D01*
X0212896Y0207612D02*
X0235030Y0207612D01*
X0235030Y0208792D02*
X0212008Y0208792D01*
X0212008Y0209971D02*
X0235030Y0209971D01*
X0235030Y0211151D02*
X0212008Y0211151D01*
X0212008Y0212330D02*
X0235030Y0212330D01*
X0235030Y0213510D02*
X0212008Y0213510D01*
X0212008Y0214690D02*
X0235030Y0214690D01*
X0235030Y0215869D02*
X0212008Y0215869D01*
X0212008Y0217049D02*
X0235030Y0217049D01*
X0235030Y0218229D02*
X0212008Y0218229D01*
X0212008Y0219408D02*
X0235030Y0219408D01*
X0235030Y0220588D02*
X0212008Y0220588D01*
X0212008Y0221767D02*
X0235030Y0221767D01*
X0235030Y0222947D02*
X0212008Y0222947D01*
X0212008Y0224127D02*
X0235030Y0224127D01*
X0235030Y0225306D02*
X0212008Y0225306D01*
X0212008Y0226486D02*
X0235030Y0226486D01*
X0235030Y0227665D02*
X0212008Y0227665D01*
X0212008Y0228845D02*
X0235030Y0228845D01*
X0235030Y0230025D02*
X0212008Y0230025D01*
X0212008Y0231204D02*
X0235030Y0231204D01*
X0235030Y0232384D02*
X0212008Y0232384D01*
X0212008Y0233564D02*
X0235030Y0233564D01*
X0235030Y0234743D02*
X0212008Y0234743D01*
X0212008Y0235923D02*
X0235030Y0235923D01*
X0235135Y0237102D02*
X0212008Y0237102D01*
X0212008Y0238282D02*
X0235783Y0238282D01*
X0236962Y0239462D02*
X0212008Y0239462D01*
X0212008Y0240641D02*
X0238142Y0240641D01*
X0239322Y0241821D02*
X0212367Y0241821D01*
X0216392Y0243000D02*
X0240501Y0243000D01*
X0241681Y0244180D02*
X0216802Y0244180D01*
X0216802Y0245360D02*
X0242861Y0245360D01*
X0243591Y0246539D02*
X0216802Y0246539D01*
X0216802Y0247719D02*
X0243591Y0247719D01*
X0243776Y0248898D02*
X0216802Y0248898D01*
X0216214Y0250078D02*
X0244665Y0250078D01*
X0251398Y0250078D02*
X0261176Y0250078D01*
X0259431Y0248898D02*
X0252287Y0248898D01*
X0252472Y0247719D02*
X0258251Y0247719D01*
X0259322Y0248789D02*
X0259322Y0248789D01*
X0257072Y0246539D02*
X0252472Y0246539D01*
X0252472Y0245360D02*
X0255892Y0245360D01*
X0254712Y0244180D02*
X0252472Y0244180D01*
X0252193Y0243000D02*
X0253533Y0243000D01*
X0252353Y0241821D02*
X0250900Y0241821D01*
X0251174Y0240641D02*
X0247077Y0240641D01*
X0245898Y0239462D02*
X0249994Y0239462D01*
X0248814Y0238282D02*
X0244718Y0238282D01*
X0243538Y0237102D02*
X0248037Y0237102D01*
X0247841Y0235923D02*
X0242359Y0235923D01*
X0241348Y0234743D02*
X0247841Y0234743D01*
X0247841Y0233564D02*
X0241348Y0233564D01*
X0241348Y0232384D02*
X0247841Y0232384D01*
X0247841Y0231204D02*
X0241348Y0231204D01*
X0241348Y0230025D02*
X0247841Y0230025D01*
X0247841Y0228845D02*
X0241348Y0228845D01*
X0241348Y0227665D02*
X0247841Y0227665D01*
X0247841Y0226486D02*
X0241348Y0226486D01*
X0241348Y0225306D02*
X0247841Y0225306D01*
X0247841Y0224127D02*
X0241348Y0224127D01*
X0241348Y0222947D02*
X0247841Y0222947D01*
X0247841Y0221767D02*
X0241348Y0221767D01*
X0241348Y0220588D02*
X0247841Y0220588D01*
X0247841Y0219408D02*
X0241348Y0219408D01*
X0241348Y0218229D02*
X0247841Y0218229D01*
X0247841Y0217049D02*
X0241348Y0217049D01*
X0241348Y0215869D02*
X0247841Y0215869D01*
X0247841Y0214690D02*
X0241348Y0214690D01*
X0241348Y0213510D02*
X0247841Y0213510D01*
X0247841Y0212330D02*
X0241348Y0212330D01*
X0241348Y0211151D02*
X0247841Y0211151D01*
X0247841Y0209971D02*
X0241348Y0209971D01*
X0241348Y0208792D02*
X0247841Y0208792D01*
X0247841Y0207612D02*
X0241348Y0207612D01*
X0241348Y0206432D02*
X0247841Y0206432D01*
X0247841Y0205253D02*
X0241348Y0205253D01*
X0241348Y0204073D02*
X0247841Y0204073D01*
X0247841Y0202894D02*
X0241348Y0202894D01*
X0241348Y0201714D02*
X0247841Y0201714D01*
X0247841Y0200534D02*
X0241348Y0200534D01*
X0241348Y0199355D02*
X0247841Y0199355D01*
X0247841Y0198175D02*
X0241348Y0198175D01*
X0241348Y0196995D02*
X0247841Y0196995D01*
X0247841Y0195816D02*
X0241348Y0195816D01*
X0241348Y0194636D02*
X0247841Y0194636D01*
X0247841Y0193457D02*
X0241348Y0193457D01*
X0241348Y0192277D02*
X0247841Y0192277D01*
X0247841Y0191097D02*
X0241348Y0191097D01*
X0241348Y0189918D02*
X0247841Y0189918D01*
X0247841Y0188738D02*
X0241871Y0188738D01*
X0242576Y0187559D02*
X0247841Y0187559D01*
X0247841Y0186379D02*
X0242629Y0186379D01*
X0242629Y0185199D02*
X0247841Y0185199D01*
X0247841Y0184020D02*
X0242629Y0184020D01*
X0242629Y0182840D02*
X0247841Y0182840D01*
X0247841Y0181661D02*
X0242191Y0181661D01*
X0245654Y0178122D02*
X0234159Y0178122D01*
X0247119Y0171044D02*
X0258560Y0171044D01*
X0258905Y0172224D02*
X0248691Y0172224D01*
X0249871Y0173403D02*
X0259841Y0173403D01*
X0259841Y0174583D02*
X0251050Y0174583D01*
X0252230Y0175762D02*
X0259841Y0175762D01*
X0259841Y0176942D02*
X0253410Y0176942D01*
X0254055Y0178122D02*
X0259841Y0178122D01*
X0259841Y0179301D02*
X0254159Y0179301D01*
X0254159Y0180481D02*
X0259841Y0180481D01*
X0259841Y0181661D02*
X0254159Y0181661D01*
X0254159Y0182840D02*
X0259841Y0182840D01*
X0259513Y0184020D02*
X0254159Y0184020D01*
X0254159Y0185199D02*
X0258333Y0185199D01*
X0257153Y0186379D02*
X0254159Y0186379D01*
X0254159Y0187559D02*
X0255974Y0187559D01*
X0254794Y0188738D02*
X0254159Y0188738D01*
X0258560Y0167505D02*
X0212008Y0167505D01*
X0212008Y0166326D02*
X0258678Y0166326D01*
X0259473Y0165146D02*
X0257590Y0165146D01*
X0250284Y0165146D02*
X0245779Y0165146D01*
X0246158Y0158068D02*
X0249905Y0158068D01*
X0270276Y0155709D02*
X0212008Y0155709D01*
X0212008Y0154529D02*
X0270276Y0154529D01*
X0270276Y0153350D02*
X0212299Y0153350D01*
X0213030Y0152170D02*
X0270276Y0152170D01*
X0270276Y0150991D02*
X0213102Y0150991D01*
X0213102Y0149811D02*
X0270276Y0149811D01*
X0270276Y0148631D02*
X0213102Y0148631D01*
X0213102Y0147452D02*
X0270276Y0147452D01*
X0270276Y0146272D02*
X0212708Y0146272D01*
X0212008Y0145092D02*
X0270276Y0145092D01*
X0270276Y0143913D02*
X0212008Y0143913D01*
X0212008Y0142733D02*
X0270276Y0142733D01*
X0270276Y0141554D02*
X0212008Y0141554D01*
X0212008Y0140374D02*
X0270276Y0140374D01*
X0270276Y0139194D02*
X0212008Y0139194D01*
X0212008Y0138015D02*
X0270276Y0138015D01*
X0270276Y0136835D02*
X0212008Y0136835D01*
X0212008Y0135656D02*
X0270276Y0135656D01*
X0270276Y0134476D02*
X0212008Y0134476D01*
X0212008Y0133296D02*
X0270276Y0133296D01*
X0270276Y0132117D02*
X0212008Y0132117D01*
X0212008Y0130937D02*
X0270276Y0130937D01*
X0270276Y0129758D02*
X0212008Y0129758D01*
X0212008Y0128578D02*
X0270276Y0128578D01*
X0270276Y0127398D02*
X0222503Y0127398D01*
X0222944Y0126219D02*
X0270276Y0126219D01*
X0270276Y0125039D02*
X0222944Y0125039D01*
X0223344Y0123859D02*
X0270276Y0123859D01*
X0270276Y0122680D02*
X0223819Y0122680D01*
X0223819Y0121500D02*
X0270276Y0121500D01*
X0270276Y0120321D02*
X0223819Y0120321D01*
X0223819Y0119141D02*
X0270276Y0119141D01*
X0270276Y0117961D02*
X0223819Y0117961D01*
X0223819Y0116782D02*
X0270276Y0116782D01*
X0270276Y0115602D02*
X0223819Y0115602D01*
X0223819Y0114423D02*
X0270276Y0114423D01*
X0270276Y0113243D02*
X0223819Y0113243D01*
X0223819Y0112063D02*
X0270276Y0112063D01*
X0270276Y0110884D02*
X0223819Y0110884D01*
X0223819Y0109704D02*
X0270276Y0109704D01*
X0270276Y0108524D02*
X0223819Y0108524D01*
X0223819Y0107345D02*
X0270276Y0107345D01*
X0270276Y0106165D02*
X0223819Y0106165D01*
X0223819Y0104986D02*
X0270276Y0104986D01*
X0270276Y0103806D02*
X0223819Y0103806D01*
X0224941Y0102626D02*
X0270276Y0102626D01*
X0270276Y0101447D02*
X0226120Y0101447D01*
X0227300Y0100267D02*
X0270051Y0100267D01*
X0269282Y0099088D02*
X0228480Y0099088D01*
X0229659Y0097908D02*
X0269182Y0097908D01*
X0269182Y0096728D02*
X0230839Y0096728D01*
X0232019Y0095549D02*
X0269182Y0095549D01*
X0269182Y0094369D02*
X0233198Y0094369D01*
X0234378Y0093189D02*
X0269545Y0093189D01*
X0275087Y0092010D02*
X0235557Y0092010D01*
X0236737Y0090830D02*
X0275087Y0090830D01*
X0275087Y0089651D02*
X0237917Y0089651D01*
X0239096Y0088471D02*
X0275087Y0088471D01*
X0275448Y0087291D02*
X0240276Y0087291D01*
X0241455Y0086112D02*
X0277136Y0086112D01*
X0281920Y0086112D02*
X0295866Y0086112D01*
X0295866Y0087291D02*
X0283607Y0087291D01*
X0283968Y0088471D02*
X0295866Y0088471D01*
X0295866Y0089651D02*
X0283968Y0089651D01*
X0283968Y0090830D02*
X0295866Y0090830D01*
X0295866Y0092010D02*
X0283968Y0092010D01*
X0289510Y0093189D02*
X0295866Y0093189D01*
X0295866Y0094369D02*
X0289873Y0094369D01*
X0289873Y0095549D02*
X0295866Y0095549D01*
X0295866Y0096728D02*
X0289873Y0096728D01*
X0289873Y0097908D02*
X0295866Y0097908D01*
X0295866Y0099088D02*
X0289774Y0099088D01*
X0289004Y0100267D02*
X0295866Y0100267D01*
X0295866Y0101447D02*
X0288780Y0101447D01*
X0288780Y0102626D02*
X0295866Y0102626D01*
X0295866Y0103806D02*
X0288780Y0103806D01*
X0288780Y0104986D02*
X0295866Y0104986D01*
X0290026Y0106165D02*
X0288780Y0106165D01*
X0288780Y0107345D02*
X0289075Y0107345D01*
X0288867Y0108524D02*
X0288780Y0108524D01*
X0288780Y0109704D02*
X0288867Y0109704D01*
X0288867Y0110884D02*
X0288780Y0110884D01*
X0288780Y0112063D02*
X0288867Y0112063D01*
X0288780Y0113243D02*
X0289122Y0113243D01*
X0288780Y0114423D02*
X0289961Y0114423D01*
X0289961Y0115602D02*
X0288780Y0115602D01*
X0288780Y0116782D02*
X0289961Y0116782D01*
X0289961Y0117961D02*
X0288780Y0117961D01*
X0288780Y0119141D02*
X0289961Y0119141D01*
X0289961Y0120321D02*
X0288780Y0120321D01*
X0288780Y0121500D02*
X0289961Y0121500D01*
X0289961Y0122680D02*
X0288780Y0122680D01*
X0288780Y0123859D02*
X0289961Y0123859D01*
X0289961Y0125039D02*
X0288780Y0125039D01*
X0296654Y0140374D02*
X0300984Y0140374D01*
X0300984Y0141554D02*
X0296654Y0141554D01*
X0296654Y0142733D02*
X0300984Y0142733D01*
X0300984Y0143913D02*
X0296654Y0143913D01*
X0296654Y0145092D02*
X0300984Y0145092D01*
X0300984Y0146272D02*
X0296654Y0146272D01*
X0296654Y0147452D02*
X0300984Y0147452D01*
X0300984Y0148631D02*
X0296654Y0148631D01*
X0296654Y0149811D02*
X0300984Y0149811D01*
X0300984Y0150991D02*
X0296654Y0150991D01*
X0296654Y0152170D02*
X0300984Y0152170D01*
X0300984Y0153350D02*
X0296654Y0153350D01*
X0296654Y0154529D02*
X0300984Y0154529D01*
X0300984Y0155709D02*
X0296654Y0155709D01*
X0296654Y0156889D02*
X0300984Y0156889D01*
X0300984Y0158068D02*
X0296654Y0158068D01*
X0296654Y0159248D02*
X0300984Y0159248D01*
X0300984Y0160427D02*
X0296654Y0160427D01*
X0296654Y0161607D02*
X0300984Y0161607D01*
X0300984Y0162787D02*
X0296654Y0162787D01*
X0296654Y0163966D02*
X0300984Y0163966D01*
X0300984Y0165146D02*
X0296654Y0165146D01*
X0296654Y0166326D02*
X0300984Y0166326D01*
X0300984Y0167505D02*
X0296654Y0167505D01*
X0296654Y0168685D02*
X0300984Y0168685D01*
X0300984Y0169864D02*
X0296654Y0169864D01*
X0296654Y0171044D02*
X0300984Y0171044D01*
X0300984Y0172224D02*
X0296654Y0172224D01*
X0296654Y0173403D02*
X0300984Y0173403D01*
X0300984Y0174583D02*
X0296654Y0174583D01*
X0296654Y0175762D02*
X0300984Y0175762D01*
X0300984Y0176942D02*
X0296654Y0176942D01*
X0296654Y0178122D02*
X0300984Y0178122D01*
X0300984Y0179301D02*
X0296654Y0179301D01*
X0296654Y0180481D02*
X0300984Y0180481D01*
X0300984Y0181661D02*
X0296654Y0181661D01*
X0296654Y0182840D02*
X0300984Y0182840D01*
X0300984Y0184020D02*
X0296654Y0184020D01*
X0296654Y0185199D02*
X0300984Y0185199D01*
X0300984Y0186379D02*
X0296654Y0186379D01*
X0296654Y0187559D02*
X0300984Y0187559D01*
X0300984Y0188738D02*
X0296654Y0188738D01*
X0296654Y0189918D02*
X0300984Y0189918D01*
X0300984Y0191097D02*
X0296654Y0191097D01*
X0296654Y0192277D02*
X0300984Y0192277D01*
X0300984Y0193457D02*
X0296654Y0193457D01*
X0296654Y0194636D02*
X0300984Y0194636D01*
X0300984Y0195816D02*
X0296654Y0195816D01*
X0296654Y0196995D02*
X0300984Y0196995D01*
X0300984Y0198175D02*
X0296654Y0198175D01*
X0296654Y0199355D02*
X0300984Y0199355D01*
X0300984Y0200534D02*
X0296654Y0200534D01*
X0296654Y0201714D02*
X0300984Y0201714D01*
X0300984Y0202894D02*
X0296654Y0202894D01*
X0296654Y0204073D02*
X0300984Y0204073D01*
X0300984Y0205253D02*
X0296654Y0205253D01*
X0296654Y0206432D02*
X0300984Y0206432D01*
X0300984Y0207612D02*
X0296654Y0207612D01*
X0296654Y0208792D02*
X0300984Y0208792D01*
X0300164Y0209971D02*
X0296654Y0209971D01*
X0296654Y0211151D02*
X0298732Y0211151D01*
X0298425Y0212330D02*
X0296654Y0212330D01*
X0296654Y0213510D02*
X0298425Y0213510D01*
X0298425Y0214690D02*
X0296654Y0214690D01*
X0296654Y0215869D02*
X0298425Y0215869D01*
X0298425Y0217049D02*
X0296654Y0217049D01*
X0296654Y0218229D02*
X0298425Y0218229D01*
X0298425Y0219408D02*
X0296654Y0219408D01*
X0296654Y0220588D02*
X0298425Y0220588D01*
X0298506Y0221767D02*
X0296654Y0221767D01*
X0296654Y0222947D02*
X0299249Y0222947D01*
X0300984Y0224127D02*
X0296654Y0224127D01*
X0296654Y0225306D02*
X0300984Y0225306D01*
X0300984Y0226486D02*
X0296654Y0226486D01*
X0296654Y0227665D02*
X0300984Y0227665D01*
X0300984Y0228845D02*
X0296654Y0228845D01*
X0296654Y0230025D02*
X0300984Y0230025D01*
X0300984Y0231204D02*
X0296654Y0231204D01*
X0296654Y0232384D02*
X0300984Y0232384D01*
X0300984Y0233564D02*
X0296654Y0233564D01*
X0296654Y0234743D02*
X0300984Y0234743D01*
X0300984Y0235923D02*
X0296654Y0235923D01*
X0296654Y0237102D02*
X0300984Y0237102D01*
X0300984Y0238282D02*
X0296654Y0238282D01*
X0296654Y0239462D02*
X0300984Y0239462D01*
X0300984Y0240641D02*
X0296654Y0240641D01*
X0296654Y0241821D02*
X0300984Y0241821D01*
X0300984Y0243000D02*
X0296654Y0243000D01*
X0296654Y0244180D02*
X0300984Y0244180D01*
X0300984Y0245360D02*
X0296654Y0245360D01*
X0296654Y0246539D02*
X0300984Y0246539D01*
X0300984Y0247719D02*
X0296654Y0247719D01*
X0296533Y0248898D02*
X0300984Y0248898D01*
X0300984Y0250078D02*
X0295904Y0250078D01*
X0294725Y0251258D02*
X0300984Y0251258D01*
X0300984Y0252437D02*
X0293545Y0252437D01*
X0292366Y0253617D02*
X0300984Y0253617D01*
X0300984Y0254797D02*
X0291186Y0254797D01*
X0290006Y0255976D02*
X0300984Y0255976D01*
X0300984Y0257156D02*
X0288827Y0257156D01*
X0287647Y0258335D02*
X0300984Y0258335D01*
X0300984Y0259515D02*
X0286468Y0259515D01*
X0285288Y0260695D02*
X0300984Y0260695D01*
X0300077Y0261874D02*
X0284108Y0261874D01*
X0282929Y0263054D02*
X0298898Y0263054D01*
X0297718Y0264233D02*
X0281749Y0264233D01*
X0280570Y0265413D02*
X0296538Y0265413D01*
X0295359Y0266593D02*
X0279390Y0266593D01*
X0278210Y0267772D02*
X0294179Y0267772D01*
X0293000Y0268952D02*
X0277031Y0268952D01*
X0275851Y0270132D02*
X0291820Y0270132D01*
X0290640Y0271311D02*
X0274671Y0271311D01*
X0273492Y0272491D02*
X0289461Y0272491D01*
X0288281Y0273670D02*
X0272312Y0273670D01*
X0271133Y0274850D02*
X0287102Y0274850D01*
X0285922Y0276030D02*
X0269953Y0276030D01*
X0268773Y0277209D02*
X0284742Y0277209D01*
X0283563Y0278389D02*
X0268071Y0278389D01*
X0268071Y0279568D02*
X0282383Y0279568D01*
X0281204Y0280748D02*
X0268071Y0280748D01*
X0268071Y0281928D02*
X0280024Y0281928D01*
X0278844Y0283107D02*
X0267724Y0283107D01*
X0266103Y0284287D02*
X0277665Y0284287D01*
X0276485Y0285467D02*
X0224425Y0285467D01*
X0224726Y0284287D02*
X0248897Y0284287D01*
X0247276Y0283107D02*
X0224888Y0283107D01*
X0225050Y0281928D02*
X0246929Y0281928D01*
X0246929Y0280748D02*
X0225212Y0280748D01*
X0225374Y0279568D02*
X0246929Y0279568D01*
X0246929Y0278389D02*
X0225231Y0278389D01*
X0225069Y0277209D02*
X0246929Y0277209D01*
X0246929Y0276030D02*
X0224907Y0276030D01*
X0224745Y0274850D02*
X0247086Y0274850D01*
X0247937Y0273670D02*
X0224485Y0273670D01*
X0223972Y0272491D02*
X0264027Y0272491D01*
X0265206Y0271311D02*
X0223460Y0271311D01*
X0222947Y0270132D02*
X0266386Y0270132D01*
X0267565Y0268952D02*
X0222435Y0268952D01*
X0222416Y0268909D02*
X0222416Y0268909D01*
X0221492Y0267772D02*
X0268745Y0267772D01*
X0269925Y0266593D02*
X0220532Y0266593D01*
X0219572Y0265413D02*
X0271104Y0265413D01*
X0272284Y0264233D02*
X0218390Y0264233D01*
X0218913Y0264603D02*
X0218913Y0264603D01*
X0218913Y0264603D01*
X0216719Y0263054D02*
X0273464Y0263054D01*
X0274643Y0261874D02*
X0215048Y0261874D01*
X0214378Y0261401D02*
X0214378Y0261401D01*
X0212389Y0260695D02*
X0275823Y0260695D01*
X0277002Y0259515D02*
X0208746Y0259515D01*
X0209147Y0259542D02*
X0209147Y0259542D01*
X0203609Y0259164D02*
X0203609Y0259164D01*
X0201918Y0259515D02*
X0102892Y0259515D01*
X0104182Y0260695D02*
X0197399Y0260695D01*
X0198174Y0260293D02*
X0198174Y0260293D01*
X0195122Y0261874D02*
X0107365Y0261874D01*
X0110548Y0263054D02*
X0193024Y0263054D01*
X0191760Y0264233D02*
X0113731Y0264233D01*
X0116914Y0265413D02*
X0190497Y0265413D01*
X0189234Y0266593D02*
X0120097Y0266593D01*
X0123280Y0267772D02*
X0188497Y0267772D01*
X0187780Y0268952D02*
X0126463Y0268952D01*
X0129647Y0270132D02*
X0187062Y0270132D01*
X0186345Y0271311D02*
X0132830Y0271311D01*
X0136013Y0272491D02*
X0185992Y0272491D01*
X0186304Y0271379D02*
X0186304Y0271379D01*
X0185662Y0273670D02*
X0139196Y0273670D01*
X0142379Y0274850D02*
X0185331Y0274850D01*
X0185001Y0276030D02*
X0145562Y0276030D01*
X0148745Y0277209D02*
X0184806Y0277209D01*
X0184806Y0278389D02*
X0151928Y0278389D01*
X0155111Y0279568D02*
X0184806Y0279568D01*
X0184806Y0280748D02*
X0158294Y0280748D01*
X0161477Y0281928D02*
X0184806Y0281928D01*
X0185039Y0283107D02*
X0164660Y0283107D01*
X0167844Y0284287D02*
X0185370Y0284287D01*
X0185700Y0285467D02*
X0171027Y0285467D01*
X0174210Y0286646D02*
X0186031Y0286646D01*
X0186304Y0287621D02*
X0186304Y0287621D01*
X0186428Y0287826D02*
X0177393Y0287826D01*
X0180576Y0289005D02*
X0187146Y0289005D01*
X0222888Y0289005D02*
X0272946Y0289005D01*
X0274126Y0287826D02*
X0223400Y0287826D01*
X0223913Y0286646D02*
X0275305Y0286646D01*
X0258897Y0284287D02*
X0256103Y0284287D01*
X0257063Y0273670D02*
X0257937Y0273670D01*
X0278182Y0258335D02*
X0106211Y0258335D01*
X0106878Y0258099D02*
X0106878Y0258099D01*
X0108213Y0257156D02*
X0128476Y0257156D01*
X0127753Y0255976D02*
X0109885Y0255976D01*
X0111413Y0254897D02*
X0111413Y0254897D01*
X0111495Y0254797D02*
X0127687Y0254797D01*
X0127687Y0253617D02*
X0112455Y0253617D01*
X0113414Y0252437D02*
X0127687Y0252437D01*
X0127687Y0251258D02*
X0114374Y0251258D01*
X0114916Y0250591D02*
X0114916Y0250591D01*
X0115139Y0250078D02*
X0127687Y0250078D01*
X0127687Y0248898D02*
X0115652Y0248898D01*
X0116164Y0247719D02*
X0127687Y0247719D01*
X0127806Y0246539D02*
X0116676Y0246539D01*
X0117147Y0245360D02*
X0128602Y0245360D01*
X0140778Y0250078D02*
X0188629Y0250078D01*
X0188430Y0249879D02*
X0188040Y0248939D01*
X0188040Y0243961D01*
X0188430Y0243021D01*
X0189150Y0242301D01*
X0190090Y0241911D01*
X0195067Y0241911D01*
X0196008Y0242301D01*
X0196728Y0243021D01*
X0197117Y0243961D01*
X0197117Y0248939D01*
X0196728Y0249879D01*
X0196008Y0250599D01*
X0195067Y0250989D01*
X0190090Y0250989D01*
X0189150Y0250599D01*
X0188430Y0249879D01*
X0188040Y0248898D02*
X0186237Y0248898D01*
X0186306Y0247719D02*
X0188040Y0247719D01*
X0188040Y0246539D02*
X0186306Y0246539D01*
X0186306Y0245360D02*
X0188040Y0245360D01*
X0188040Y0244180D02*
X0186285Y0244180D01*
X0185351Y0243000D02*
X0188450Y0243000D01*
X0196707Y0243000D02*
X0198293Y0243000D01*
X0197883Y0244180D02*
X0197117Y0244180D01*
X0197117Y0245360D02*
X0197883Y0245360D01*
X0197883Y0246539D02*
X0197117Y0246539D01*
X0197117Y0247719D02*
X0197883Y0247719D01*
X0197883Y0248898D02*
X0197117Y0248898D01*
X0196529Y0250078D02*
X0198471Y0250078D01*
X0206371Y0250078D02*
X0208314Y0250078D01*
X0207725Y0248898D02*
X0206960Y0248898D01*
X0206960Y0247719D02*
X0207725Y0247719D01*
X0207620Y0246539D02*
X0206960Y0246539D01*
X0265169Y0251258D02*
X0140778Y0251258D01*
X0140778Y0252437D02*
X0284080Y0252437D01*
X0285260Y0251258D02*
X0270831Y0251258D01*
X0272155Y0250078D02*
X0286439Y0250078D01*
X0287619Y0248898D02*
X0272440Y0248898D01*
X0272440Y0247719D02*
X0288799Y0247719D01*
X0289961Y0246539D02*
X0272440Y0246539D01*
X0272440Y0245360D02*
X0275978Y0245360D01*
X0284022Y0245360D02*
X0289961Y0245360D01*
X0289961Y0244180D02*
X0284440Y0244180D01*
X0284440Y0243000D02*
X0289961Y0243000D01*
X0289961Y0241821D02*
X0284440Y0241821D01*
X0282900Y0253617D02*
X0140778Y0253617D01*
X0140778Y0254797D02*
X0281721Y0254797D01*
X0280541Y0255976D02*
X0140711Y0255976D01*
X0139989Y0257156D02*
X0279362Y0257156D01*
X0142765Y0243000D02*
X0142235Y0243000D01*
X0129724Y0219408D02*
X0041759Y0219408D01*
X0041759Y0218229D02*
X0129724Y0218229D01*
X0129724Y0217049D02*
X0041759Y0217049D01*
X0041759Y0215869D02*
X0129724Y0215869D01*
X0129724Y0214690D02*
X0111576Y0214690D01*
X0112505Y0213510D02*
X0129724Y0213510D01*
X0129724Y0212330D02*
X0112708Y0212330D01*
X0112708Y0211151D02*
X0129724Y0211151D01*
X0129724Y0209971D02*
X0112708Y0209971D01*
X0112708Y0208792D02*
X0129724Y0208792D01*
X0129724Y0207612D02*
X0112448Y0207612D01*
X0111244Y0206432D02*
X0129724Y0206432D01*
X0129724Y0205253D02*
X0100897Y0205253D01*
X0101284Y0204073D02*
X0129724Y0204073D01*
X0129724Y0202894D02*
X0102463Y0202894D01*
X0103643Y0201714D02*
X0129724Y0201714D01*
X0129724Y0200534D02*
X0121808Y0200534D01*
X0122503Y0199355D02*
X0129724Y0199355D01*
X0129724Y0198175D02*
X0122550Y0198175D01*
X0122550Y0196995D02*
X0129724Y0196995D01*
X0129724Y0195816D02*
X0122550Y0195816D01*
X0122550Y0194636D02*
X0129724Y0194636D01*
X0129724Y0193457D02*
X0122098Y0193457D01*
X0129724Y0192277D02*
X0112708Y0192277D01*
X0112657Y0193457D02*
X0114123Y0193457D01*
X0114413Y0200534D02*
X0104823Y0200534D01*
X0101647Y0220042D02*
X0101647Y0220042D01*
X0096109Y0219664D02*
X0096109Y0219664D01*
X0091662Y0220588D02*
X0041759Y0220588D01*
X0041759Y0221767D02*
X0088794Y0221767D01*
X0090674Y0220793D02*
X0090674Y0220793D01*
X0086517Y0222947D02*
X0041759Y0222947D01*
X0041602Y0224127D02*
X0084910Y0224127D01*
X0083647Y0225306D02*
X0041010Y0225306D01*
X0039407Y0226486D02*
X0082384Y0226486D01*
X0081366Y0227665D02*
X0034477Y0227665D01*
X0030971Y0233564D02*
X0078332Y0233564D01*
X0078001Y0234743D02*
X0034154Y0234743D01*
X0037337Y0235923D02*
X0077671Y0235923D01*
X0077340Y0237102D02*
X0040520Y0237102D01*
X0043703Y0238282D02*
X0077306Y0238282D01*
X0077306Y0239462D02*
X0046886Y0239462D01*
X0050069Y0240641D02*
X0077306Y0240641D01*
X0077306Y0241821D02*
X0053253Y0241821D01*
X0056436Y0243000D02*
X0077369Y0243000D01*
X0077700Y0244180D02*
X0059619Y0244180D01*
X0062802Y0245360D02*
X0078030Y0245360D01*
X0078361Y0246539D02*
X0065985Y0246539D01*
X0069168Y0247719D02*
X0078691Y0247719D01*
X0078804Y0248121D02*
X0078804Y0248121D01*
X0079277Y0248898D02*
X0072351Y0248898D01*
X0075534Y0250078D02*
X0079994Y0250078D01*
X0080711Y0251258D02*
X0078717Y0251258D01*
X0078662Y0232384D02*
X0027788Y0232384D01*
X0024605Y0231204D02*
X0079214Y0231204D01*
X0078804Y0231879D02*
X0078804Y0231879D01*
X0079931Y0230025D02*
X0021422Y0230025D01*
X0018239Y0228845D02*
X0080649Y0228845D01*
X0049704Y0201714D02*
X0047602Y0201714D01*
X0048279Y0202894D02*
X0046423Y0202894D01*
X0047100Y0204073D02*
X0045243Y0204073D01*
X0045920Y0205253D02*
X0044063Y0205253D01*
X0036970Y0201714D02*
X0015108Y0201714D01*
X0015108Y0202894D02*
X0035790Y0202894D01*
X0034729Y0204073D02*
X0015108Y0204073D01*
X0015108Y0205253D02*
X0034241Y0205253D01*
X0034241Y0206432D02*
X0015108Y0206432D01*
X0015108Y0207612D02*
X0025245Y0207612D01*
X0024507Y0208792D02*
X0015108Y0208792D01*
X0015108Y0209971D02*
X0024429Y0209971D01*
X0024429Y0211151D02*
X0015108Y0211151D01*
X0015108Y0212330D02*
X0024429Y0212330D01*
X0024429Y0213510D02*
X0015108Y0213510D01*
X0015108Y0214690D02*
X0024429Y0214690D01*
X0024429Y0215869D02*
X0015108Y0215869D01*
X0015108Y0217049D02*
X0024906Y0217049D01*
X0024740Y0218229D02*
X0015108Y0218229D01*
X0015108Y0219408D02*
X0024429Y0219408D01*
X0024429Y0220588D02*
X0015108Y0220588D01*
X0015108Y0221767D02*
X0024429Y0221767D01*
X0024429Y0222947D02*
X0015108Y0222947D01*
X0015108Y0224127D02*
X0024429Y0224127D01*
X0024429Y0225306D02*
X0015108Y0225306D01*
X0015108Y0226486D02*
X0024622Y0226486D01*
X0025523Y0227665D02*
X0015108Y0227665D01*
X0041759Y0214690D02*
X0041967Y0214690D01*
X0038150Y0200534D02*
X0015108Y0200534D01*
X0015108Y0199355D02*
X0039329Y0199355D01*
X0040509Y0198175D02*
X0015108Y0198175D01*
X0015108Y0196995D02*
X0041688Y0196995D01*
X0042868Y0195816D02*
X0014505Y0195816D01*
X0016763Y0193801D02*
X0015683Y0192722D01*
X0015098Y0191311D01*
X0015098Y0189784D01*
X0015683Y0188373D01*
X0016763Y0187293D01*
X0018173Y0186709D01*
X0019701Y0186709D01*
X0019724Y0186719D01*
X0019748Y0186709D01*
X0021275Y0186709D01*
X0022686Y0187293D01*
X0023766Y0188373D01*
X0024350Y0189784D01*
X0024350Y0191311D01*
X0023766Y0192722D01*
X0022686Y0193801D01*
X0021275Y0194386D01*
X0019748Y0194386D01*
X0019724Y0194376D01*
X0019701Y0194386D01*
X0018173Y0194386D01*
X0016763Y0193801D01*
X0016418Y0193457D02*
X0012325Y0193457D01*
X0012717Y0192277D02*
X0015499Y0192277D01*
X0015098Y0191097D02*
X0012717Y0191097D01*
X0012291Y0189918D02*
X0015098Y0189918D01*
X0015531Y0188738D02*
X0011357Y0188738D01*
X0016497Y0187559D02*
X0002608Y0187559D01*
X0002608Y0188738D02*
X0004233Y0188738D01*
X0003300Y0189918D02*
X0002608Y0189918D01*
X0002608Y0191097D02*
X0002874Y0191097D01*
X0002874Y0192277D02*
X0002608Y0192277D01*
X0002608Y0193457D02*
X0003266Y0193457D01*
X0002608Y0194636D02*
X0004151Y0194636D01*
X0011439Y0194636D02*
X0044048Y0194636D01*
X0045227Y0193457D02*
X0023031Y0193457D01*
X0023950Y0192277D02*
X0046407Y0192277D01*
X0047586Y0191097D02*
X0024350Y0191097D01*
X0024350Y0189918D02*
X0048766Y0189918D01*
X0049946Y0188738D02*
X0023917Y0188738D01*
X0022952Y0187559D02*
X0051125Y0187559D01*
X0052305Y0186379D02*
X0002608Y0186379D01*
X0002608Y0185199D02*
X0053485Y0185199D01*
X0054664Y0184020D02*
X0002608Y0184020D01*
X0002608Y0182840D02*
X0055241Y0182840D01*
X0055241Y0181661D02*
X0002608Y0181661D01*
X0002608Y0180481D02*
X0055241Y0180481D01*
X0055241Y0179301D02*
X0002608Y0179301D01*
X0002608Y0178122D02*
X0055241Y0178122D01*
X0025647Y0140827D02*
X0025647Y0140827D01*
X0135376Y0051903D02*
X0158287Y0051903D01*
X0158287Y0051456D02*
X0161574Y0048169D01*
X0166221Y0048169D01*
X0168898Y0050845D01*
X0171574Y0048169D01*
X0176221Y0048169D01*
X0179508Y0051456D01*
X0179508Y0056103D01*
X0176832Y0058780D01*
X0179508Y0061456D01*
X0179508Y0066103D01*
X0176832Y0068780D01*
X0177540Y0069488D01*
X0181685Y0069488D01*
X0183661Y0067511D01*
X0183661Y0061121D01*
X0182957Y0060417D01*
X0182568Y0059477D01*
X0182568Y0054696D01*
X0182957Y0053756D01*
X0183677Y0053036D01*
X0184618Y0052646D01*
X0185630Y0052646D01*
X0185630Y0047342D01*
X0184926Y0046638D01*
X0184536Y0045697D01*
X0184536Y0040917D01*
X0184926Y0039976D01*
X0185646Y0039257D01*
X0186586Y0038867D01*
X0191367Y0038867D01*
X0192307Y0039257D01*
X0193027Y0039976D01*
X0193417Y0040917D01*
X0193417Y0045697D01*
X0193027Y0046638D01*
X0192323Y0047342D01*
X0192323Y0055784D01*
X0191813Y0057014D01*
X0191448Y0057379D01*
X0191448Y0059477D01*
X0191058Y0060417D01*
X0190354Y0061121D01*
X0190354Y0069563D01*
X0189845Y0070793D01*
X0188903Y0071735D01*
X0185908Y0074730D01*
X0185908Y0074730D01*
X0184966Y0075672D01*
X0183737Y0076181D01*
X0179430Y0076181D01*
X0176221Y0079390D01*
X0171574Y0079390D01*
X0168287Y0076103D01*
X0168287Y0075954D01*
X0165820Y0078421D01*
X0164242Y0078421D01*
X0164242Y0074124D01*
X0163553Y0074124D01*
X0163553Y0073435D01*
X0159256Y0073435D01*
X0159256Y0071857D01*
X0161723Y0069390D01*
X0161574Y0069390D01*
X0158287Y0066103D01*
X0158287Y0061456D01*
X0160964Y0058780D01*
X0158287Y0056103D01*
X0158287Y0051456D01*
X0159020Y0050723D02*
X0134196Y0050723D01*
X0133017Y0049544D02*
X0160199Y0049544D01*
X0161379Y0048364D02*
X0131837Y0048364D01*
X0130657Y0047185D02*
X0185473Y0047185D01*
X0185630Y0048364D02*
X0176416Y0048364D01*
X0177596Y0049544D02*
X0185630Y0049544D01*
X0185630Y0050723D02*
X0178776Y0050723D01*
X0179508Y0051903D02*
X0185630Y0051903D01*
X0183631Y0053083D02*
X0179508Y0053083D01*
X0179508Y0054262D02*
X0182748Y0054262D01*
X0182568Y0055442D02*
X0179508Y0055442D01*
X0178990Y0056621D02*
X0182568Y0056621D01*
X0182568Y0057801D02*
X0177810Y0057801D01*
X0177033Y0058981D02*
X0182568Y0058981D01*
X0182851Y0060160D02*
X0178212Y0060160D01*
X0179392Y0061340D02*
X0183661Y0061340D01*
X0183661Y0062520D02*
X0179508Y0062520D01*
X0179508Y0063699D02*
X0183661Y0063699D01*
X0183661Y0064879D02*
X0179508Y0064879D01*
X0179508Y0066058D02*
X0183661Y0066058D01*
X0183661Y0067238D02*
X0178373Y0067238D01*
X0177194Y0068418D02*
X0182755Y0068418D01*
X0188682Y0071956D02*
X0200870Y0071956D01*
X0199824Y0073136D02*
X0187502Y0073136D01*
X0186322Y0074316D02*
X0199409Y0074316D01*
X0199409Y0075495D02*
X0185143Y0075495D01*
X0188903Y0071735D02*
X0188903Y0071735D01*
X0189852Y0070777D02*
X0202050Y0070777D01*
X0203229Y0069597D02*
X0190340Y0069597D01*
X0190354Y0068418D02*
X0204409Y0068418D01*
X0205588Y0067238D02*
X0190354Y0067238D01*
X0190354Y0066058D02*
X0206768Y0066058D01*
X0207948Y0064879D02*
X0190354Y0064879D01*
X0190354Y0063699D02*
X0208158Y0063699D01*
X0208179Y0062520D02*
X0190354Y0062520D01*
X0190354Y0061340D02*
X0206214Y0061340D01*
X0205497Y0060160D02*
X0191165Y0060160D01*
X0191448Y0058981D02*
X0205315Y0058981D01*
X0205315Y0057801D02*
X0191448Y0057801D01*
X0191976Y0056621D02*
X0205315Y0056621D01*
X0205315Y0055442D02*
X0192323Y0055442D01*
X0192323Y0054262D02*
X0205315Y0054262D01*
X0205315Y0053083D02*
X0192323Y0053083D01*
X0192323Y0051903D02*
X0205315Y0051903D01*
X0205315Y0050723D02*
X0192323Y0050723D01*
X0192323Y0049544D02*
X0205315Y0049544D01*
X0205315Y0048364D02*
X0192323Y0048364D01*
X0192480Y0047185D02*
X0205315Y0047185D01*
X0205315Y0046005D02*
X0193289Y0046005D01*
X0193417Y0044825D02*
X0205315Y0044825D01*
X0205315Y0043646D02*
X0193417Y0043646D01*
X0193417Y0042466D02*
X0205315Y0042466D01*
X0205315Y0041286D02*
X0193417Y0041286D01*
X0193081Y0040107D02*
X0205315Y0040107D01*
X0205315Y0038927D02*
X0191512Y0038927D01*
X0186441Y0038927D02*
X0120573Y0038927D01*
X0120582Y0040107D02*
X0184872Y0040107D01*
X0184536Y0041286D02*
X0120582Y0041286D01*
X0120582Y0042466D02*
X0184536Y0042466D01*
X0184536Y0043646D02*
X0120582Y0043646D01*
X0128298Y0044825D02*
X0184536Y0044825D01*
X0184664Y0046005D02*
X0129478Y0046005D01*
X0136555Y0053083D02*
X0158287Y0053083D01*
X0158287Y0054262D02*
X0137735Y0054262D01*
X0138915Y0055442D02*
X0158287Y0055442D01*
X0158806Y0056621D02*
X0140094Y0056621D01*
X0141274Y0057801D02*
X0159985Y0057801D01*
X0160762Y0058981D02*
X0142453Y0058981D01*
X0143633Y0060160D02*
X0159583Y0060160D01*
X0158403Y0061340D02*
X0144813Y0061340D01*
X0145992Y0062520D02*
X0158287Y0062520D01*
X0158287Y0063699D02*
X0147172Y0063699D01*
X0148352Y0064879D02*
X0158287Y0064879D01*
X0158287Y0066058D02*
X0149531Y0066058D01*
X0150711Y0067238D02*
X0159422Y0067238D01*
X0160602Y0068418D02*
X0151890Y0068418D01*
X0153070Y0069597D02*
X0161516Y0069597D01*
X0160336Y0070777D02*
X0154250Y0070777D01*
X0155429Y0071956D02*
X0159256Y0071956D01*
X0159256Y0073136D02*
X0156475Y0073136D01*
X0156890Y0074316D02*
X0159256Y0074316D01*
X0159256Y0074124D02*
X0163553Y0074124D01*
X0163553Y0078421D01*
X0161975Y0078421D01*
X0159256Y0075702D01*
X0159256Y0074124D01*
X0159256Y0075495D02*
X0156890Y0075495D01*
X0156890Y0076675D02*
X0160229Y0076675D01*
X0161408Y0077855D02*
X0156890Y0077855D01*
X0156890Y0079034D02*
X0171218Y0079034D01*
X0170039Y0077855D02*
X0166387Y0077855D01*
X0167567Y0076675D02*
X0168859Y0076675D01*
X0164242Y0076675D02*
X0163553Y0076675D01*
X0163553Y0077855D02*
X0164242Y0077855D01*
X0164242Y0075495D02*
X0163553Y0075495D01*
X0163553Y0074316D02*
X0164242Y0074316D01*
X0176577Y0079034D02*
X0199409Y0079034D01*
X0199409Y0077855D02*
X0177757Y0077855D01*
X0178936Y0076675D02*
X0199409Y0076675D01*
X0218701Y0076675D02*
X0241427Y0076675D01*
X0240248Y0077855D02*
X0218701Y0077855D01*
X0218701Y0079034D02*
X0239068Y0079034D01*
X0237888Y0080214D02*
X0218701Y0080214D01*
X0218701Y0081393D02*
X0236709Y0081393D01*
X0235529Y0082573D02*
X0218701Y0082573D01*
X0218701Y0083753D02*
X0234349Y0083753D01*
X0233170Y0084932D02*
X0218701Y0084932D01*
X0218701Y0086112D02*
X0231990Y0086112D01*
X0230811Y0087291D02*
X0218701Y0087291D01*
X0218701Y0088471D02*
X0229631Y0088471D01*
X0228451Y0089651D02*
X0218701Y0089651D01*
X0218701Y0090830D02*
X0227272Y0090830D01*
X0226092Y0092010D02*
X0218701Y0092010D01*
X0218701Y0093189D02*
X0224913Y0093189D01*
X0223733Y0094369D02*
X0218701Y0094369D01*
X0218701Y0095549D02*
X0222553Y0095549D01*
X0221374Y0096728D02*
X0218701Y0096728D01*
X0218701Y0097908D02*
X0220194Y0097908D01*
X0219014Y0099088D02*
X0218701Y0099088D01*
X0217126Y0109704D02*
X0217008Y0109704D01*
X0217126Y0110884D02*
X0215829Y0110884D01*
X0214649Y0112063D02*
X0217126Y0112063D01*
X0217126Y0113243D02*
X0213469Y0113243D01*
X0213102Y0114423D02*
X0217126Y0114423D01*
X0217126Y0115602D02*
X0212645Y0115602D01*
X0212008Y0116782D02*
X0217126Y0116782D01*
X0217126Y0117961D02*
X0212008Y0117961D01*
X0212008Y0119141D02*
X0217126Y0119141D01*
X0214818Y0120321D02*
X0212008Y0120321D01*
X0212008Y0121500D02*
X0214116Y0121500D01*
X0214064Y0122680D02*
X0212008Y0122680D01*
X0212008Y0123859D02*
X0214064Y0123859D01*
X0214064Y0125039D02*
X0212008Y0125039D01*
X0212008Y0126219D02*
X0214064Y0126219D01*
X0214505Y0127398D02*
X0212008Y0127398D01*
X0242635Y0084932D02*
X0295866Y0084932D01*
X0295866Y0083753D02*
X0243815Y0083753D01*
X0244994Y0082573D02*
X0295866Y0082573D01*
X0295866Y0081393D02*
X0246174Y0081393D01*
X0247353Y0080214D02*
X0295866Y0080214D01*
X0295866Y0079034D02*
X0248533Y0079034D01*
X0249713Y0077855D02*
X0295866Y0077855D01*
X0295866Y0076675D02*
X0271258Y0076675D01*
X0272045Y0075495D02*
X0295866Y0075495D01*
X0295866Y0074316D02*
X0272157Y0074316D01*
X0272157Y0073136D02*
X0295866Y0073136D01*
X0295866Y0071956D02*
X0272157Y0071956D01*
X0272157Y0070777D02*
X0295866Y0070777D01*
X0295866Y0069597D02*
X0271806Y0069597D01*
X0270162Y0068418D02*
X0295866Y0068418D01*
X0295866Y0067238D02*
X0224041Y0067238D01*
X0222862Y0068418D02*
X0265271Y0068418D01*
X0264176Y0076675D02*
X0250892Y0076675D01*
X0244966Y0073136D02*
X0218701Y0073136D01*
X0218701Y0074316D02*
X0243786Y0074316D01*
X0242607Y0075495D02*
X0218701Y0075495D01*
X0219323Y0071956D02*
X0246146Y0071956D01*
X0247163Y0070939D02*
X0247163Y0070939D01*
X0247325Y0070777D02*
X0220502Y0070777D01*
X0221682Y0069597D02*
X0249071Y0069597D01*
X0229542Y0060160D02*
X0295866Y0060160D01*
X0295866Y0058981D02*
X0229724Y0058981D01*
X0229724Y0057801D02*
X0295866Y0057801D01*
X0295866Y0056621D02*
X0229724Y0056621D01*
X0229724Y0055442D02*
X0295866Y0055442D01*
X0295866Y0054262D02*
X0229724Y0054262D01*
X0229724Y0053083D02*
X0295866Y0053083D01*
X0295866Y0051903D02*
X0229724Y0051903D01*
X0229724Y0050723D02*
X0295866Y0050723D01*
X0295866Y0049544D02*
X0229724Y0049544D01*
X0229649Y0048364D02*
X0295866Y0048364D01*
X0295866Y0047185D02*
X0229083Y0047185D01*
X0227379Y0046005D02*
X0295866Y0046005D01*
X0295866Y0044825D02*
X0223819Y0044825D01*
X0228803Y0043646D02*
X0295866Y0043646D01*
X0295866Y0042466D02*
X0229533Y0042466D01*
X0229724Y0041286D02*
X0295866Y0041286D01*
X0295866Y0040107D02*
X0229724Y0040107D01*
X0229724Y0038927D02*
X0295866Y0038927D01*
X0295866Y0037748D02*
X0229724Y0037748D01*
X0229724Y0036568D02*
X0295866Y0036568D01*
X0295866Y0035388D02*
X0229724Y0035388D01*
X0229724Y0034209D02*
X0295866Y0034209D01*
X0295866Y0033029D02*
X0229724Y0033029D01*
X0229724Y0031850D02*
X0276024Y0031850D01*
X0275005Y0030670D02*
X0229724Y0030670D01*
X0229724Y0029490D02*
X0274783Y0029490D01*
X0274783Y0028311D02*
X0229724Y0028311D01*
X0229724Y0027131D02*
X0274783Y0027131D01*
X0274783Y0025952D02*
X0229724Y0025952D01*
X0229724Y0024772D02*
X0274783Y0024772D01*
X0274783Y0023592D02*
X0229724Y0023592D01*
X0229724Y0022413D02*
X0274870Y0022413D01*
X0275620Y0021233D02*
X0229724Y0021233D01*
X0205315Y0037748D02*
X0119932Y0037748D01*
X0112351Y0037748D02*
X0092373Y0037748D01*
X0090354Y0050723D02*
X0083208Y0050723D01*
X0065953Y0011796D02*
X0322776Y0011796D01*
X0323107Y0010617D02*
X0065441Y0010617D01*
X0064929Y0009437D02*
X0323437Y0009437D01*
X0323768Y0008257D02*
X0063979Y0008257D01*
X0064916Y0009409D02*
X0064916Y0009409D01*
X0063020Y0007078D02*
X0324443Y0007078D01*
X0323804Y0008129D02*
X0323804Y0008129D01*
X0325160Y0005898D02*
X0062060Y0005898D01*
X0061413Y0005103D02*
X0061413Y0005103D01*
X0061413Y0005103D01*
X0060869Y0004718D02*
X0325878Y0004718D01*
X0326595Y0003539D02*
X0059197Y0003539D01*
X0166416Y0048364D02*
X0171379Y0048364D01*
X0170199Y0049544D02*
X0167596Y0049544D01*
X0168776Y0050723D02*
X0169020Y0050723D01*
X0225221Y0066058D02*
X0295866Y0066058D01*
X0295866Y0064879D02*
X0226134Y0064879D01*
X0226575Y0063699D02*
X0295866Y0063699D01*
X0295866Y0062520D02*
X0226575Y0062520D01*
X0228826Y0061340D02*
X0295866Y0061340D01*
X0295709Y0031850D02*
X0295000Y0031850D01*
X0285866Y0031850D02*
X0285157Y0031850D01*
X0309626Y0030670D02*
X0310610Y0030670D01*
X0310610Y0029490D02*
X0309626Y0029490D01*
X0309626Y0028311D02*
X0310610Y0028311D01*
X0310610Y0027131D02*
X0309626Y0027131D01*
X0314957Y0024772D02*
X0324048Y0024772D01*
X0323804Y0024371D02*
X0323804Y0024371D01*
X0323586Y0023592D02*
X0314957Y0023592D01*
X0314789Y0022413D02*
X0323255Y0022413D01*
X0341109Y0036586D02*
X0341109Y0036586D01*
X0341377Y0036568D02*
X0357392Y0036568D01*
X0357392Y0035388D02*
X0348952Y0035388D01*
X0346647Y0036208D02*
X0346647Y0036208D01*
X0351878Y0034349D02*
X0351878Y0034349D01*
X0352076Y0034209D02*
X0357392Y0034209D01*
X0357392Y0033029D02*
X0353747Y0033029D01*
X0355418Y0031850D02*
X0357392Y0031850D01*
X0357392Y0030670D02*
X0356801Y0030670D01*
X0356413Y0031147D02*
X0356413Y0031147D01*
X0326688Y0003386D02*
X0326688Y0003386D01*
D22*
X0053000Y0073000D03*
D23*
X0056000Y0084000D02*
X0063000Y0091000D01*
X0063000Y0157000D01*
X0059000Y0161000D01*
X0059000Y0185000D01*
X0038000Y0206000D01*
X0038000Y0223000D01*
X0030500Y0223000D01*
X0030000Y0222500D01*
X0025000Y0084000D02*
X0056000Y0084000D01*
X0025000Y0084000D02*
X0022000Y0081000D01*
X0022000Y0052000D01*
X0025772Y0048228D01*
X0030709Y0048228D01*
D24*
X0231000Y0174000D02*
X0246000Y0174000D01*
X0251000Y0179000D01*
X0251000Y0236000D01*
X0262000Y0247000D01*
X0268000Y0247000D01*
X0266000Y0242000D02*
X0280000Y0242000D01*
X0266000Y0242000D02*
X0256000Y0232000D01*
X0256000Y0192000D01*
X0263000Y0185000D01*
X0263000Y0169000D01*
X0238189Y0185039D02*
X0238189Y0236220D01*
X0248031Y0246063D01*
D25*
X0096457Y0204724D03*
X0096457Y0198819D03*
X0096457Y0192913D03*
D26*
X0096457Y0198819D02*
X0104331Y0190945D01*
X0108268Y0190945D01*
X0104331Y0196850D02*
X0096457Y0204724D01*
X0104331Y0196850D02*
X0118110Y0196850D01*
X0098425Y0082677D02*
X0098425Y0070866D01*
X0096457Y0068898D01*
X0096457Y0064961D01*
X0104331Y0057087D01*
M02*
