%
M48
M72
T01C0.01969
T02C0.02362
T03C0.02559
T04C0.02756
T05C0.03543
T06C0.03740
T07C0.04016
T08C0.04331
T09C0.04724
T10C0.05315
T11C0.15200
%
T01
X53000Y73000
T02
X68898Y94488
X74803Y94488
X86614Y84646
X86614Y76772
X96457Y68898
X104331Y70866
X120079Y66929
X104331Y57087
X94488Y55118
X86614Y62992
X80709Y55118
X76772Y41339
X80709Y35433
X88583Y41339
X88583Y29528
X96457Y29528
X100394Y35433
X110236Y31496
X116142Y41339
X147638Y27559
X151575Y45276
X187008Y57087
X188976Y43307
X212598Y64961
X222441Y57087
X224409Y45276
X222441Y19685
X212598Y19685
X263780Y53150
X279528Y45276
X287402Y57087
X267717Y72835
X279528Y90551
X285433Y96457
X273622Y96457
X267717Y108268
X293307Y110236
X299213Y135827
X285433Y141732
X273622Y161417
X263000Y169000
X253937Y161417
X242126Y161417
X231000Y174000
X218504Y167323
X202756Y177165
X190945Y169291
X171260Y159449
X165354Y143701
X153543Y141732
X159449Y118110
X175197Y112205
X196850Y124016
X208661Y112205
X218504Y124016
X233701Y129528
X250000Y129921
X251969Y149606
X261811Y151575
X238189Y185039
X265748Y202756
X287528Y236535
X280000Y242000
X268000Y247000
X248031Y246063
X236220Y250000
X220472Y248031
X175197Y250000
X208661Y204724
X187008Y187008
X196850Y151575
X208661Y149606
X133858Y90551
X122047Y90551
X116142Y82677
X108268Y82677
X112205Y90551
X104331Y94488
X96457Y94488
X96457Y100394
X112205Y106299
X120079Y125984
X118110Y133858
X108268Y139764
X100394Y153543
X112205Y159449
X127953Y169291
X106299Y183071
X98425Y183071
X108268Y190945
X118110Y196850
X110236Y202756
X108268Y210630
X96457Y204724
X96457Y198819
X96457Y192913
X80709Y190945
X80709Y183071
X72835Y190945
X80709Y198819
X64961Y204724
X45276Y210630
X57087Y224409
X64961Y224409
X78740Y226378
X80709Y218504
X62992Y238189
X64961Y169291
X64961Y163386
X90551Y133858
X67992Y125953
X98425Y82677
X61024Y39370
X53150Y41339
X9843Y88583
X9843Y100394
X9843Y114173
X9843Y125984
X159449Y86614
X171260Y88583
X187008Y84646
T03
X20512Y171453
X18937Y171453
X18937Y190547
X20512Y190547
X182736Y246450
X192579Y246450
X202421Y246450
X212264Y246450
T04
X8780Y191728
X6811Y191728
X6811Y170272
X8780Y170272
T05
X137579Y219037
X147421Y219037
X147421Y228880
X147421Y238723
X137579Y238723
X137579Y228880
T06
X163898Y73780
X173898Y73780
X173898Y63780
X163898Y63780
X163898Y53780
X173898Y53780
T07
X30000Y212500
X30000Y222500
X252500Y278750
X262500Y278750
T08
X280591Y26378
X290433Y26378
X300276Y26378
X310118Y26378
T09
X30709Y38386
X30709Y48228
X30709Y58071
X30709Y67913
X30709Y77756
X11024Y77756
X11024Y67913
X11024Y58071
X11024Y48228
X11024Y38386
T10
X150768Y206439
X134232Y251321
T11
X47500Y20000
X37402Y157480
X97500Y240000
X205000Y279500
X342500Y16250
M30
